<svg width="371" height="227" viewBox="0 0 371 227" fill="none" xmlns="http://www.w3.org/2000/svg">
<rect width="371" height="227" fill="white"/>
<path fill-rule="evenodd" clip-rule="evenodd" d="M63.8571 39.7144C63.0994 39.7144 62.3727 40.0154 61.8368 40.5512C61.301 41.087 61 41.8137 61 42.5715V43.9115H62.4286C64.5124 43.9115 66.5109 44.7393 67.9844 46.2128C69.4579 47.6863 70.2857 49.6848 70.2857 51.7686V52.2144H81V42.5715C81 41.8137 80.699 41.087 80.1632 40.5512C79.6273 40.0154 78.9006 39.7144 78.1429 39.7144H63.8571ZM63.5457 73.6315C63.8445 72.7656 63.9307 71.8406 63.7971 70.9344C65.6154 70.6127 67.2624 69.661 68.4489 68.2461C69.6354 66.8313 70.2857 65.0437 70.2857 63.1972V55.7858H81V71.1429C81 71.9007 80.699 72.6274 80.1632 73.1632C79.6273 73.699 78.9006 74.0001 78.1429 74.0001H65.2857C64.6863 74.0002 64.0936 73.8747 63.5457 73.6315ZM77.2029 45.9658C77.218 46.2622 77.1727 46.5586 77.0697 46.837C76.9667 47.1154 76.8082 47.3699 76.6037 47.5851C76.3993 47.8003 76.1532 47.9716 75.8804 48.0887C75.6077 48.2058 75.314 48.2661 75.0171 48.2661C74.7203 48.2661 74.4266 48.2058 74.1539 48.0887C73.8811 47.9716 73.635 47.8003 73.4306 47.5851C73.2261 47.3699 73.0676 47.1154 72.9646 46.837C72.8616 46.5586 72.8163 46.2622 72.8314 45.9658C72.8601 45.4054 73.1029 44.8775 73.5096 44.491C73.9164 44.1045 74.4561 43.889 75.0171 43.889C75.5782 43.889 76.1179 44.1045 76.5247 44.491C76.9314 44.8775 77.1742 45.4054 77.2029 45.9658ZM41 51.7629C41 50.6263 41.4515 49.5362 42.2553 48.7325C43.059 47.9287 44.1491 47.4772 45.2857 47.4772H62.4286C63.5652 47.4772 64.6553 47.9287 65.459 48.7325C66.2628 49.5362 66.7143 50.6263 66.7143 51.7629V63.1915C66.7143 64.3281 66.2628 65.4182 65.459 66.222C64.6553 67.0257 63.5652 67.4772 62.4286 67.4772H56V69.6201H58.1429C58.7112 69.6201 59.2562 69.8458 59.6581 70.2477C60.06 70.6496 60.2857 71.1946 60.2857 71.7629C60.2857 72.3312 60.06 72.8763 59.6581 73.2782C59.2562 73.68 58.7112 73.9058 58.1429 73.9058H49.5714C49.0031 73.9058 48.4581 73.68 48.0562 73.2782C47.6543 72.8763 47.4286 72.3312 47.4286 71.7629C47.4286 71.1946 47.6543 70.6496 48.0562 70.2477C48.4581 69.8458 49.0031 69.6201 49.5714 69.6201H51.7143V67.4772H45.2857C44.1491 67.4772 43.059 67.0257 42.2553 66.222C41.4515 65.4182 41 64.3281 41 63.1915V51.7629Z" fill="#A020F0"/>
<path fill-rule="evenodd" clip-rule="evenodd" d="M63.8571 99.7144C63.0994 99.7144 62.3727 100.015 61.8368 100.551C61.301 101.087 61 101.814 61 102.571V103.911H62.4286C64.5124 103.911 66.5109 104.739 67.9844 106.213C69.4579 107.686 70.2857 109.685 70.2857 111.769V112.214H81V102.571C81 101.814 80.699 101.087 80.1632 100.551C79.6273 100.015 78.9006 99.7144 78.1429 99.7144H63.8571ZM63.5457 133.631C63.8445 132.766 63.9307 131.841 63.7971 130.934C65.6154 130.613 67.2624 129.661 68.4489 128.246C69.6354 126.831 70.2857 125.044 70.2857 123.197V115.786H81V131.143C81 131.901 80.699 132.627 80.1632 133.163C79.6273 133.699 78.9006 134 78.1429 134H65.2857C64.6863 134 64.0936 133.875 63.5457 133.631ZM77.2029 105.966C77.218 106.262 77.1727 106.559 77.0697 106.837C76.9667 107.115 76.8082 107.37 76.6037 107.585C76.3993 107.8 76.1532 107.972 75.8804 108.089C75.6077 108.206 75.314 108.266 75.0171 108.266C74.7203 108.266 74.4266 108.206 74.1539 108.089C73.8811 107.972 73.635 107.8 73.4306 107.585C73.2261 107.37 73.0676 107.115 72.9646 106.837C72.8616 106.559 72.8163 106.262 72.8314 105.966C72.8601 105.405 73.1029 104.877 73.5096 104.491C73.9164 104.105 74.4561 103.889 75.0171 103.889C75.5782 103.889 76.1179 104.105 76.5247 104.491C76.9314 104.877 77.1742 105.405 77.2029 105.966ZM41 111.763C41 110.626 41.4515 109.536 42.2553 108.732C43.059 107.929 44.1491 107.477 45.2857 107.477H62.4286C63.5652 107.477 64.6553 107.929 65.459 108.732C66.2628 109.536 66.7143 110.626 66.7143 111.763V123.191C66.7143 124.328 66.2628 125.418 65.459 126.222C64.6553 127.026 63.5652 127.477 62.4286 127.477H56V129.62H58.1429C58.7112 129.62 59.2562 129.846 59.6581 130.248C60.06 130.65 60.2857 131.195 60.2857 131.763C60.2857 132.331 60.06 132.876 59.6581 133.278C59.2562 133.68 58.7112 133.906 58.1429 133.906H49.5714C49.0031 133.906 48.4581 133.68 48.0562 133.278C47.6543 132.876 47.4286 132.331 47.4286 131.763C47.4286 131.195 47.6543 130.65 48.0562 130.248C48.4581 129.846 49.0031 129.62 49.5714 129.62H51.7143V127.477H45.2857C44.1491 127.477 43.059 127.026 42.2553 126.222C41.4515 125.418 41 124.328 41 123.191V111.763Z" fill="#A020F0"/>
<path fill-rule="evenodd" clip-rule="evenodd" d="M63.8571 159.714C63.0994 159.714 62.3727 160.015 61.8368 160.551C61.301 161.087 61 161.814 61 162.571V163.911H62.4286C64.5124 163.911 66.5109 164.739 67.9844 166.213C69.4579 167.686 70.2857 169.685 70.2857 171.769V172.214H81V162.571C81 161.814 80.699 161.087 80.1632 160.551C79.6273 160.015 78.9006 159.714 78.1429 159.714H63.8571ZM63.5457 193.631C63.8445 192.766 63.9307 191.841 63.7971 190.934C65.6154 190.613 67.2624 189.661 68.4489 188.246C69.6354 186.831 70.2857 185.044 70.2857 183.197V175.786H81V191.143C81 191.901 80.699 192.627 80.1632 193.163C79.6273 193.699 78.9006 194 78.1429 194H65.2857C64.6863 194 64.0936 193.875 63.5457 193.631ZM77.2029 165.966C77.218 166.262 77.1727 166.559 77.0697 166.837C76.9667 167.115 76.8082 167.37 76.6037 167.585C76.3993 167.8 76.1532 167.972 75.8804 168.089C75.6077 168.206 75.314 168.266 75.0171 168.266C74.7203 168.266 74.4266 168.206 74.1539 168.089C73.8811 167.972 73.635 167.8 73.4306 167.585C73.2261 167.37 73.0676 167.115 72.9646 166.837C72.8616 166.559 72.8163 166.262 72.8314 165.966C72.8601 165.405 73.1029 164.877 73.5096 164.491C73.9164 164.105 74.4561 163.889 75.0171 163.889C75.5782 163.889 76.1179 164.105 76.5247 164.491C76.9314 164.877 77.1742 165.405 77.2029 165.966ZM41 171.763C41 170.626 41.4515 169.536 42.2553 168.732C43.059 167.929 44.1491 167.477 45.2857 167.477H62.4286C63.5652 167.477 64.6553 167.929 65.459 168.732C66.2628 169.536 66.7143 170.626 66.7143 171.763V183.191C66.7143 184.328 66.2628 185.418 65.459 186.222C64.6553 187.026 63.5652 187.477 62.4286 187.477H56V189.62H58.1429C58.7112 189.62 59.2562 189.846 59.6581 190.248C60.06 190.65 60.2857 191.195 60.2857 191.763C60.2857 192.331 60.06 192.876 59.6581 193.278C59.2562 193.68 58.7112 193.906 58.1429 193.906H49.5714C49.0031 193.906 48.4581 193.68 48.0562 193.278C47.6543 192.876 47.4286 192.331 47.4286 191.763C47.4286 191.195 47.6543 190.65 48.0562 190.248C48.4581 189.846 49.0031 189.62 49.5714 189.62H51.7143V187.477H45.2857C44.1491 187.477 43.059 187.026 42.2553 186.222C41.4515 185.418 41 184.328 41 183.191V171.763Z" fill="#A020F0"/>
<line x1="169.217" y1="117.032" x2="90.492" y2="57.004" stroke="black"/>
<line x1="89" y1="116.5" x2="169" y2="116.5" stroke="black"/>
<line x1="88.7014" y1="176.322" x2="168.909" y2="116.599" stroke="black"/>
<path d="M188.75 84C187.755 84 186.802 84.3951 186.098 85.0983C185.395 85.8016 185 86.7554 185 87.75V140.25C185 141.245 185.395 142.198 186.098 142.902C186.802 143.605 187.755 144 188.75 144H211.25C212.245 144 213.198 143.605 213.902 142.902C214.605 142.198 215 141.245 215 140.25V87.75C215 86.7554 214.605 85.8016 213.902 85.0983C213.198 84.3951 212.245 84 211.25 84H188.75ZM190.625 136.5C191.122 136.5 191.599 136.698 191.951 137.049C192.302 137.401 192.5 137.878 192.5 138.375C192.5 138.872 192.302 139.349 191.951 139.701C191.599 140.052 191.122 140.25 190.625 140.25C190.128 140.25 189.651 140.052 189.299 139.701C188.948 139.349 188.75 138.872 188.75 138.375C188.75 137.878 188.948 137.401 189.299 137.049C189.651 136.698 190.128 136.5 190.625 136.5ZM198.125 136.5C198.622 136.5 199.099 136.698 199.451 137.049C199.802 137.401 200 137.878 200 138.375C200 138.872 199.802 139.349 199.451 139.701C199.099 140.052 198.622 140.25 198.125 140.25C197.628 140.25 197.151 140.052 196.799 139.701C196.448 139.349 196.25 138.872 196.25 138.375C196.25 137.878 196.448 137.401 196.799 137.049C197.151 136.698 197.628 136.5 198.125 136.5ZM188.75 89.625C188.75 89.1277 188.948 88.6508 189.299 88.2992C189.651 87.9475 190.128 87.75 190.625 87.75H209.375C209.872 87.75 210.349 87.9475 210.701 88.2992C211.052 88.6508 211.25 89.1277 211.25 89.625C211.25 90.1223 211.052 90.5992 210.701 90.9508C210.349 91.3025 209.872 91.5 209.375 91.5H190.625C190.128 91.5 189.651 91.3025 189.299 90.9508C188.948 90.5992 188.75 90.1223 188.75 89.625ZM190.625 95.25H209.375C209.872 95.25 210.349 95.4475 210.701 95.7992C211.052 96.1508 211.25 96.6277 211.25 97.125C211.25 97.6223 211.052 98.0992 210.701 98.4508C210.349 98.8025 209.872 99 209.375 99H190.625C190.128 99 189.651 98.8025 189.299 98.4508C188.948 98.0992 188.75 97.6223 188.75 97.125C188.75 96.6277 188.948 96.1508 189.299 95.7992C189.651 95.4475 190.128 95.25 190.625 95.25Z" fill="#A020F0"/>
<path d="M224.833 113.529L242 116.5L265.5 113.529L285.5 109L314 94.5L320.833 79.5288" stroke="black" stroke-dasharray="2 2"/>
<path d="M295.25 48.31V54C295.25 54.62 295.845 55.75 298.172 56.8975C300.357 57.9725 303.533 58.76 307.223 58.9525C307.468 58.9653 307.709 59.0264 307.932 59.1323C308.154 59.2383 308.353 59.387 308.518 59.5699C308.683 59.7528 308.81 59.9664 308.892 60.1985C308.975 60.4306 309.01 60.6766 308.998 60.9225C308.985 61.1684 308.924 61.4094 308.818 61.6317C308.712 61.8539 308.563 62.0532 308.38 62.218C308.197 62.3828 307.984 62.51 307.751 62.5923C307.519 62.6745 307.273 62.7103 307.027 62.6975C302.972 62.485 299.272 61.6175 296.517 60.26C296.084 60.0472 295.661 59.8136 295.25 59.56V65.25C295.25 65.5825 295.395 66.045 295.955 66.6275C296.523 67.22 297.432 67.835 298.707 68.395C301.245 69.5125 304.883 70.25 309 70.25C310.017 70.25 311.002 70.2067 311.957 70.12C312.21 70.0842 312.467 70.1 312.712 70.1666C312.958 70.2332 313.188 70.3492 313.388 70.5074C313.587 70.6656 313.753 70.8627 313.874 71.0869C313.995 71.311 314.069 71.5574 314.092 71.8111C314.114 72.0648 314.085 72.3205 314.006 72.5626C313.927 72.8047 313.799 73.0281 313.631 73.2193C313.463 73.4105 313.257 73.5655 313.027 73.6748C312.797 73.7841 312.547 73.8454 312.293 73.855C311.224 73.95 310.127 73.9983 309 74C304.488 74 300.313 73.2 297.198 71.8275C295.64 71.1425 294.265 70.28 293.25 69.225C292.23 68.1625 291.5 66.815 291.5 65.25V42.75C291.5 41.185 292.23 39.8375 293.25 38.7725C294.265 37.7225 295.64 36.8575 297.198 36.1725C300.313 34.8 304.488 34 309 34C313.512 34 317.69 34.8 320.802 36.1725C322.36 36.8575 323.735 37.72 324.75 38.775C325.77 39.8375 326.5 41.185 326.5 42.75C326.5 44.315 325.77 45.6625 324.75 46.7275C323.735 47.7775 322.36 48.6425 320.805 49.3275C317.688 50.7 313.512 51.5 309 51.5C304.488 51.5 300.313 50.7 297.198 49.3275C296.524 49.0364 295.873 48.6963 295.25 48.31ZM295.25 42.75C295.25 43.0825 295.395 43.545 295.955 44.1275C296.523 44.72 297.432 45.335 298.707 45.895C301.245 47.0125 304.883 47.75 309 47.75C313.117 47.75 316.753 47.0125 319.295 45.895C320.565 45.335 321.478 44.7175 322.045 44.125C322.605 43.545 322.75 43.0825 322.75 42.75C322.75 42.4175 322.605 41.955 322.045 41.3725C321.478 40.78 320.567 40.165 319.292 39.605C316.755 38.4875 313.117 37.75 309 37.75C304.883 37.75 301.247 38.4875 298.705 39.605C297.435 40.165 296.523 40.7825 295.955 41.375C295.395 41.955 295.25 42.4175 295.25 42.75Z" fill="#A020F0"/>
<path d="M325.225 52.955C325.27 52.7482 325.244 52.5322 325.15 52.3422C325.057 52.1523 324.902 51.9995 324.711 51.9088C324.519 51.8181 324.303 51.7948 324.097 51.8427C323.891 51.8905 323.707 52.0068 323.575 52.1725L314.512 63.735C314.404 63.8734 314.337 64.0393 314.319 64.214C314.3 64.3886 314.331 64.5649 314.408 64.7228C314.485 64.8808 314.605 65.0139 314.753 65.1071C314.902 65.2003 315.074 65.2498 315.25 65.25H320.567L319.02 72.555C318.976 72.7636 319.004 72.9811 319.1 73.1716C319.196 73.362 319.354 73.5141 319.548 73.6026C319.742 73.6912 319.96 73.711 320.167 73.6587C320.374 73.6064 320.556 73.4852 320.685 73.315L328.497 63.0025C328.603 62.8634 328.667 62.6978 328.683 62.5242C328.699 62.3506 328.666 62.176 328.589 62.0199C328.511 61.8638 328.391 61.7325 328.243 61.6407C328.095 61.5488 327.924 61.5001 327.75 61.5H323.305L325.225 52.955Z" fill="#A020F0"/>
<path d="M322.333 184C322.333 187.683 316.363 190.667 309 190.667C301.637 190.667 295.667 187.683 295.667 184V177.29C296.503 178.318 297.692 179.172 299.013 179.832C301.633 181.142 305.167 181.917 309 181.917C312.833 181.917 316.367 181.142 318.987 179.833C320.308 179.172 321.497 178.317 322.333 177.29V184Z" fill="#A020F0"/>
<path d="M309 171.917C312.833 171.917 316.367 171.142 318.987 169.833C320.308 169.172 321.497 168.317 322.333 167.29V174C322.333 174.833 319.357 176.652 317.868 177.597C315.663 178.698 312.53 179.417 309 179.417C305.47 179.417 302.337 178.7 300.132 177.597C298.167 176.613 295.667 174.833 295.667 174V167.29C296.503 168.318 297.692 169.172 299.013 169.832C301.633 171.142 305.167 171.917 309 171.917Z" fill="#A020F0"/>
<path d="M317.868 167.597C315.663 168.698 312.53 169.417 309 169.417C305.47 169.417 302.337 168.7 300.132 167.597C299.273 167.26 297.343 166.192 296.003 164.465C295.889 164.32 295.806 164.154 295.76 163.976C295.714 163.798 295.704 163.612 295.733 163.43C295.772 163.183 295.825 162.928 295.893 162.77C297.047 159.677 302.477 157.333 309 157.333C315.523 157.333 320.953 159.677 322.107 162.77C322.175 162.928 322.228 163.183 322.267 163.43C322.296 163.612 322.286 163.798 322.24 163.976C322.194 164.154 322.111 164.32 321.997 164.465C320.657 166.192 318.727 167.26 317.868 167.597Z" fill="#A020F0"/>
<path d="M269 63L269 62.5L268.925 62.5L268.853 62.5221L269 63ZM249.5 69L249.353 68.5221L249.249 68.5541L249.168 68.6263L249.5 69ZM236 81L235.668 80.6263L235.641 80.6499L235.618 80.677L236 81ZM224.502 94.0415C224.525 94.3167 224.766 94.5212 225.042 94.4983L229.526 94.1246C229.801 94.1016 230.006 93.86 229.983 93.5848C229.96 93.3096 229.718 93.1051 229.443 93.128L225.457 93.4602L225.125 89.474C225.102 89.1988 224.86 88.9943 224.585 89.0173C224.31 89.0402 224.105 89.2819 224.128 89.5571L224.502 94.0415ZM285 63L285 62.5L284 62.5L284 63L284 63.5L285 63.5L285 63ZM282 63L282 62.5L280 62.5L280 63L280 63.5L282 63.5L282 63ZM278 63L278 62.5L276 62.5L276 63L276 63.5L278 63.5L278 63ZM274 63L274 62.5L272 62.5L272 63L272 63.5L274 63.5L274 63ZM270 63L270 62.5L269 62.5L269 63L269 63.5L270 63.5L270 63ZM269 63L268.853 62.5221L267.878 62.8221L268.025 63.3L268.172 63.7779L269.147 63.4779L269 63ZM266.075 63.9L265.928 63.4221L263.978 64.0221L264.125 64.5L264.272 64.9779L266.222 64.3779L266.075 63.9ZM262.175 65.1L262.028 64.6221L260.078 65.2221L260.225 65.7L260.372 66.1779L262.322 65.5779L262.175 65.1ZM258.275 66.3L258.128 65.8221L256.178 66.4221L256.325 66.9L256.472 67.3779L258.422 66.7779L258.275 66.3ZM254.375 67.5L254.228 67.0221L252.278 67.6221L252.425 68.1L252.572 68.5779L254.522 67.9779L254.375 67.5ZM250.475 68.7L250.328 68.2221L249.353 68.5221L249.5 69L249.647 69.4779L250.622 69.1779L250.475 68.7ZM249.5 69L249.168 68.6263L248.493 69.2263L248.825 69.6L249.157 69.9737L249.832 69.3737L249.5 69ZM247.475 70.8L247.143 70.4263L245.793 71.6263L246.125 72L246.457 72.3737L247.807 71.1737L247.475 70.8ZM244.775 73.2L244.443 72.8263L243.093 74.0263L243.425 74.4L243.757 74.7737L245.107 73.5737L244.775 73.2ZM242.075 75.6L241.743 75.2263L240.393 76.4263L240.725 76.8L241.057 77.1737L242.407 75.9737L242.075 75.6ZM239.375 78L239.043 77.6263L237.693 78.8263L238.025 79.2L238.357 79.5737L239.707 78.3737L239.375 78ZM236.675 80.4L236.343 80.0263L235.668 80.6263L236 81L236.332 81.3737L237.007 80.7737L236.675 80.4ZM236 81L235.618 80.677L234.931 81.4895L235.313 81.8125L235.694 82.1355L236.382 81.323L236 81ZM233.938 83.4375L233.556 83.1145L232.181 84.7395L232.562 85.0625L232.944 85.3855L234.319 83.7605L233.938 83.4375ZM231.187 86.6875L230.806 86.3645L229.431 87.9895L229.812 88.3125L230.194 88.6355L231.569 87.0105L231.187 86.6875ZM228.437 89.9375L228.056 89.6145L226.681 91.2395L227.062 91.5625L227.444 91.8855L228.819 90.2605L228.437 89.9375ZM225.687 93.1875L225.306 92.8645L224.618 93.677L225 94L225.382 94.323L226.069 93.5105L225.687 93.1875ZM269 63L269 62.5L268.925 62.5L268.853 62.5221L269 63ZM249.5 69L249.353 68.5221L249.249 68.5541L249.168 68.6263L249.5 69ZM236 81L235.668 80.6263L235.641 80.6499L235.618 80.677L236 81ZM224.502 94.0415C224.525 94.3167 224.766 94.5212 225.042 94.4983L229.526 94.1246C229.801 94.1016 230.006 93.86 229.983 93.5848C229.96 93.3096 229.718 93.1051 229.443 93.128L225.457 93.4602L225.125 89.474C225.102 89.1988 224.86 88.9943 224.585 89.0173C224.31 89.0402 224.105 89.2819 224.128 89.5571L224.502 94.0415ZM285 63L285 62.5L284 62.5L284 63L284 63.5L285 63.5L285 63ZM282 63L282 62.5L280 62.5L280 63L280 63.5L282 63.5L282 63ZM278 63L278 62.5L276 62.5L276 63L276 63.5L278 63.5L278 63ZM274 63L274 62.5L272 62.5L272 63L272 63.5L274 63.5L274 63ZM270 63L270 62.5L269 62.5L269 63L269 63.5L270 63.5L270 63ZM269 63L268.853 62.5221L267.878 62.8221L268.025 63.3L268.172 63.7779L269.147 63.4779L269 63ZM266.075 63.9L265.928 63.4221L263.978 64.0221L264.125 64.5L264.272 64.9779L266.222 64.3779L266.075 63.9ZM262.175 65.1L262.028 64.6221L260.078 65.2221L260.225 65.7L260.372 66.1779L262.322 65.5779L262.175 65.1ZM258.275 66.3L258.128 65.8221L256.178 66.4221L256.325 66.9L256.472 67.3779L258.422 66.7779L258.275 66.3ZM254.375 67.5L254.228 67.0221L252.278 67.6221L252.425 68.1L252.572 68.5779L254.522 67.9779L254.375 67.5ZM250.475 68.7L250.328 68.2221L249.353 68.5221L249.5 69L249.647 69.4779L250.622 69.1779L250.475 68.7ZM249.5 69L249.168 68.6263L248.493 69.2263L248.825 69.6L249.157 69.9737L249.832 69.3737L249.5 69ZM247.475 70.8L247.143 70.4263L245.793 71.6263L246.125 72L246.457 72.3737L247.807 71.1737L247.475 70.8ZM244.775 73.2L244.443 72.8263L243.093 74.0263L243.425 74.4L243.757 74.7737L245.107 73.5737L244.775 73.2ZM242.075 75.6L241.743 75.2263L240.393 76.4263L240.725 76.8L241.057 77.1737L242.407 75.9737L242.075 75.6ZM239.375 78L239.043 77.6263L237.693 78.8263L238.025 79.2L238.357 79.5737L239.707 78.3737L239.375 78ZM236.675 80.4L236.343 80.0263L235.668 80.6263L236 81L236.332 81.3737L237.007 80.7737L236.675 80.4ZM236 81L235.618 80.677L234.931 81.4895L235.313 81.8125L235.694 82.1355L236.382 81.323L236 81ZM233.938 83.4375L233.556 83.1145L232.181 84.7395L232.562 85.0625L232.944 85.3855L234.319 83.7605L233.938 83.4375ZM231.187 86.6875L230.806 86.3645L229.431 87.9895L229.812 88.3125L230.194 88.6355L231.569 87.0105L231.187 86.6875ZM228.437 89.9375L228.056 89.6145L226.681 91.2395L227.062 91.5625L227.444 91.8855L228.819 90.2605L228.437 89.9375ZM225.687 93.1875L225.306 92.8645L224.618 93.677L225 94L225.382 94.323L226.069 93.5105L225.687 93.1875Z" fill="black"/>
<path d="M220 144L223.482 148.605L225.729 143.287L220 144ZM291 174L287.518 169.395L285.271 174.713L291 174ZM224.145 145.751L223.951 146.212L286.66 172.709L286.855 172.249L287.049 171.788L224.34 145.291L224.145 145.751Z" fill="black"/>
<path d="M118.226 108.376C118.412 108.376 118.594 108.381 118.77 108.392C118.946 108.403 119.116 108.421 119.282 108.448C119.447 108.469 119.607 108.501 119.762 108.544L119.69 109.072C119.524 109.056 119.356 109.043 119.186 109.032C119.02 109.021 118.86 109.016 118.706 109.016C118.551 109.011 118.404 109.008 118.266 109.008C117.967 109.008 117.714 109.037 117.506 109.096C117.303 109.149 117.14 109.256 117.018 109.416C116.895 109.576 116.804 109.805 116.746 110.104C116.692 110.403 116.666 110.792 116.666 111.272C116.666 111.816 116.703 112.251 116.778 112.576C116.852 112.896 116.978 113.128 117.154 113.272C117.33 113.416 117.564 113.488 117.858 113.488C118.06 113.488 118.244 113.459 118.41 113.4C118.58 113.341 118.738 113.267 118.882 113.176C119.031 113.08 119.175 112.981 119.314 112.88L119.41 113.312C119.314 113.424 119.18 113.541 119.01 113.664C118.844 113.787 118.65 113.891 118.426 113.976C118.202 114.061 117.948 114.104 117.666 114.104C117.255 114.104 116.919 114.003 116.658 113.8C116.402 113.592 116.215 113.277 116.098 112.856C115.98 112.429 115.922 111.885 115.922 111.224C115.922 110.493 115.994 109.923 116.138 109.512C116.287 109.096 116.53 108.803 116.866 108.632C117.207 108.461 117.66 108.376 118.226 108.376ZM119.906 110.808V114H119.394L119.282 113.184L119.218 113.024V110.808H119.906ZM122.161 108.472C122.428 108.472 122.695 108.472 122.961 108.472C123.233 108.472 123.5 108.477 123.761 108.488C124.028 108.493 124.284 108.504 124.529 108.52L124.497 109.072H122.281C122.116 109.072 121.993 109.115 121.913 109.2C121.839 109.28 121.801 109.413 121.801 109.6V112.88C121.801 113.067 121.839 113.203 121.913 113.288C121.993 113.373 122.116 113.416 122.281 113.416H124.497L124.529 113.96C124.284 113.976 124.028 113.987 123.761 113.992C123.5 113.997 123.233 114 122.961 114C122.695 114.005 122.428 114.008 122.161 114.008C121.836 114.008 121.577 113.923 121.385 113.752C121.199 113.576 121.103 113.341 121.097 113.048V109.432C121.103 109.133 121.199 108.899 121.385 108.728C121.577 108.557 121.836 108.472 122.161 108.472ZM121.241 110.8H124.185V111.368H121.241V110.8ZM127.598 108.48V114H126.894V108.48H127.598ZM129.382 108.48V109.104H125.118V108.48H129.382Z" fill="black"/>
<path d="M42.5414 210.408C42.9681 210.408 43.3121 210.456 43.5734 210.552C43.8347 210.643 44.0241 210.803 44.1414 211.032C44.2641 211.261 44.3254 211.584 44.3254 212C44.3254 212.299 44.2907 212.549 44.2214 212.752C44.1521 212.949 44.0427 213.104 43.8934 213.216C43.7494 213.323 43.5547 213.392 43.3094 213.424V213.464C43.4001 213.485 43.4881 213.531 43.5734 213.6C43.6641 213.664 43.7467 213.752 43.8214 213.864C43.8961 213.971 43.9521 214.101 43.9894 214.256L44.5254 216H43.7734L43.2854 214.272C43.2161 214.064 43.1227 213.917 43.0054 213.832C42.8881 213.741 42.7361 213.696 42.5494 213.696C42.2241 213.696 41.9414 213.696 41.7014 213.696C41.4614 213.691 41.2614 213.685 41.1014 213.68C40.9414 213.675 40.8134 213.672 40.7174 213.672L40.7414 213.088H42.5254C42.7974 213.083 43.0107 213.051 43.1654 212.992C43.3254 212.933 43.4401 212.829 43.5094 212.68C43.5787 212.525 43.6134 212.312 43.6134 212.04C43.6134 211.768 43.5787 211.56 43.5094 211.416C43.4401 211.267 43.3254 211.163 43.1654 211.104C43.0107 211.045 42.7974 211.016 42.5254 211.016C42.0881 211.016 41.7094 211.019 41.3894 211.024C41.0747 211.029 40.8614 211.032 40.7494 211.032L40.6374 210.48C40.8401 210.459 41.0294 210.443 41.2054 210.432C41.3814 210.421 41.5734 210.416 41.7814 210.416C41.9947 210.411 42.2481 210.408 42.5414 210.408ZM41.3334 210.48V216H40.6374V210.48H41.3334ZM47.0717 212.008C47.6583 212.008 48.0823 212.115 48.3437 212.328C48.6103 212.541 48.7437 212.859 48.7437 213.28C48.749 213.627 48.677 213.899 48.5277 214.096C48.3783 214.288 48.141 214.384 47.8157 214.384H45.5437V213.856H47.6397C47.8157 213.856 47.9303 213.797 47.9837 213.68C48.037 213.557 48.0637 213.424 48.0637 213.28C48.0583 213.029 47.9837 212.851 47.8397 212.744C47.6957 212.637 47.4503 212.584 47.1037 212.584C46.821 212.584 46.597 212.627 46.4317 212.712C46.2717 212.792 46.157 212.936 46.0877 213.144C46.0237 213.347 45.9917 213.632 45.9917 214C45.9917 214.416 46.0317 214.733 46.1117 214.952C46.197 215.171 46.3303 215.32 46.5117 215.4C46.693 215.48 46.933 215.52 47.2317 215.52C47.4397 215.52 47.6663 215.512 47.9117 215.496C48.1623 215.475 48.3863 215.451 48.5837 215.424L48.6557 215.88C48.533 215.928 48.381 215.968 48.1997 216C48.0237 216.032 47.8397 216.056 47.6477 216.072C47.461 216.088 47.293 216.096 47.1437 216.096C46.6957 216.096 46.3357 216.029 46.0637 215.896C45.7917 215.757 45.5917 215.539 45.4637 215.24C45.341 214.936 45.2797 214.536 45.2797 214.04C45.2797 213.528 45.341 213.125 45.4637 212.832C45.5917 212.533 45.7863 212.323 46.0477 212.2C46.3143 212.072 46.6557 212.008 47.0717 212.008ZM51.3365 212.008C51.4592 212.008 51.5952 212.013 51.7445 212.024C51.8939 212.035 52.0485 212.053 52.2085 212.08C52.3685 212.101 52.5232 212.131 52.6725 212.168C52.8272 212.2 52.9685 212.237 53.0965 212.28L52.5445 212.752C52.4059 212.709 52.2645 212.675 52.1205 212.648C51.9765 212.621 51.8379 212.603 51.7045 212.592C51.5712 212.581 51.4459 212.579 51.3285 212.584C51.0725 212.589 50.8672 212.637 50.7125 212.728C50.5579 212.813 50.4459 212.965 50.3765 213.184C50.3125 213.403 50.2805 213.712 50.2805 214.112C50.2805 214.587 50.3392 214.939 50.4565 215.168C50.5739 215.392 50.8032 215.504 51.1445 215.504C51.3899 215.504 51.6112 215.453 51.8085 215.352C52.0112 215.245 52.2405 215.104 52.4965 214.928L52.5845 215.376C52.4192 215.525 52.2459 215.656 52.0645 215.768C51.8832 215.875 51.6965 215.957 51.5045 216.016C51.3179 216.075 51.1232 216.104 50.9205 216.104C50.4672 216.104 50.1312 215.941 49.9125 215.616C49.6939 215.291 49.5845 214.773 49.5845 214.064C49.5845 213.728 49.6112 213.432 49.6645 213.176C49.7232 212.92 49.8192 212.707 49.9525 212.536C50.0859 212.36 50.2645 212.229 50.4885 212.144C50.7125 212.053 50.9952 212.008 51.3365 212.008ZM52.4165 212.256L53.0965 212.28V217.608H52.4165L52.4085 216.272C52.4085 216.101 52.4139 215.949 52.4245 215.816C52.4352 215.677 52.4565 215.536 52.4885 215.392L52.4165 215.28V212.256ZM54.987 212.104V214.84C54.9817 215.085 55.027 215.259 55.123 215.36C55.219 215.461 55.379 215.512 55.603 215.512C55.8217 215.512 56.0377 215.461 56.251 215.36C56.4697 215.253 56.731 215.101 57.035 214.904L57.123 215.376C56.819 215.616 56.523 215.797 56.235 215.92C55.9524 216.043 55.6644 216.104 55.371 216.104C54.6617 216.104 54.307 215.747 54.307 215.032V212.104H54.987ZM57.643 212.104V216H57.099L57.035 215.264L56.963 215.144V212.104H57.643ZM59.5975 212.104V216H58.9255V212.104H59.5975ZM59.4215 210.448C59.5602 210.448 59.6295 210.517 59.6295 210.656V211.112C59.6295 211.251 59.5602 211.32 59.4215 211.32H59.1015C58.9629 211.32 58.8935 211.251 58.8935 211.112V210.656C58.8935 210.517 58.9629 210.448 59.1015 210.448H59.4215ZM62.1739 212.008C62.3446 212.008 62.5259 212.013 62.7179 212.024C62.9099 212.035 63.0992 212.048 63.2859 212.064C63.4779 212.08 63.6539 212.101 63.8139 212.128L63.7579 212.624C63.5126 212.613 63.2646 212.605 63.0139 212.6C62.7686 212.589 62.5232 212.584 62.2779 212.584C62.0379 212.579 61.8486 212.584 61.7099 212.6C61.5712 212.616 61.4699 212.659 61.4059 212.728C61.3472 212.797 61.3179 212.915 61.3179 213.08C61.3179 213.283 61.3659 213.416 61.4619 213.48C61.5579 213.544 61.6992 213.597 61.8859 213.64L63.0219 213.896C63.3312 213.971 63.5579 214.085 63.7019 214.24C63.8512 214.395 63.9259 214.637 63.9259 214.968C63.9259 215.288 63.8646 215.528 63.7419 215.688C63.6246 215.848 63.4432 215.955 63.1979 216.008C62.9526 216.061 62.6406 216.088 62.2619 216.088C62.1232 216.088 61.9152 216.083 61.6379 216.072C61.3659 216.061 61.0646 216.029 60.7339 215.976L60.7819 215.48C60.9099 215.485 61.0459 215.493 61.1899 215.504C61.3339 215.509 61.4832 215.512 61.6379 215.512C61.7979 215.512 61.9606 215.512 62.1259 215.512C62.4192 215.512 62.6486 215.499 62.8139 215.472C62.9792 215.445 63.0966 215.395 63.1659 215.32C63.2352 215.24 63.2699 215.123 63.2699 214.968C63.2699 214.776 63.2139 214.648 63.1019 214.584C62.9899 214.52 62.8406 214.467 62.6539 214.424L61.5339 214.168C61.3206 214.115 61.1499 214.045 61.0219 213.96C60.8939 213.869 60.8006 213.755 60.7419 213.616C60.6832 213.472 60.6539 213.293 60.6539 213.08C60.6539 212.776 60.7072 212.547 60.8139 212.392C60.9206 212.237 61.0859 212.133 61.3099 212.08C61.5339 212.027 61.8219 212.003 62.1739 212.008ZM65.6444 212.104V216H64.9724V212.104H65.6444ZM65.4684 210.448C65.6071 210.448 65.6764 210.517 65.6764 210.656V211.112C65.6764 211.251 65.6071 211.32 65.4684 211.32H65.1484C65.0097 211.32 64.9404 211.251 64.9404 211.112V210.656C64.9404 210.517 65.0097 210.448 65.1484 210.448H65.4684ZM68.5888 212.008C68.7061 212.008 68.8368 212.013 68.9808 212.024C69.1248 212.035 69.2714 212.053 69.4208 212.08C69.5754 212.107 69.7168 212.144 69.8448 212.192L69.7568 212.632C69.5808 212.616 69.3941 212.605 69.1968 212.6C69.0048 212.589 68.8394 212.584 68.7008 212.584C68.3914 212.584 68.1461 212.627 67.9648 212.712C67.7834 212.797 67.6528 212.947 67.5728 213.16C67.4928 213.373 67.4528 213.669 67.4528 214.048C67.4528 214.427 67.4928 214.725 67.5728 214.944C67.6528 215.157 67.7834 215.307 67.9648 215.392C68.1461 215.477 68.3914 215.52 68.7008 215.52C68.7808 215.52 68.8848 215.517 69.0128 215.512C69.1408 215.507 69.2768 215.499 69.4208 215.488C69.5701 215.477 69.7114 215.461 69.8448 215.44L69.9168 215.896C69.7194 215.965 69.5034 216.016 69.2688 216.048C69.0394 216.08 68.8101 216.096 68.5808 216.096C68.1328 216.096 67.7728 216.029 67.5008 215.896C67.2288 215.763 67.0314 215.547 66.9088 215.248C66.7914 214.949 66.7328 214.549 66.7328 214.048C66.7328 213.547 66.7941 213.147 66.9168 212.848C67.0394 212.549 67.2368 212.336 67.5088 212.208C67.7808 212.075 68.1408 212.008 68.5888 212.008ZM68.1808 216.44C68.3888 216.419 68.5568 216.419 68.6848 216.44C68.8181 216.467 68.9168 216.52 68.9808 216.6C69.0448 216.68 69.0741 216.8 69.0688 216.96C69.0634 217.184 69.0021 217.373 68.8848 217.528C68.7674 217.688 68.6101 217.803 68.4128 217.872C68.2154 217.941 67.9888 217.96 67.7328 217.928L67.8368 217.568C68.0554 217.573 68.2314 217.523 68.3648 217.416C68.5034 217.315 68.5754 217.181 68.5808 217.016C68.5861 216.92 68.5568 216.853 68.4928 216.816C68.4288 216.784 68.3008 216.765 68.1088 216.76L68.1808 216.44ZM72.4243 212.008C72.8723 212.008 73.2297 212.075 73.4963 212.208C73.7683 212.341 73.963 212.56 74.0803 212.864C74.1977 213.163 74.2563 213.56 74.2563 214.056C74.2563 214.552 74.1977 214.952 74.0803 215.256C73.963 215.555 73.7683 215.771 73.4963 215.904C73.2297 216.037 72.8723 216.104 72.4243 216.104C71.9817 216.104 71.6243 216.037 71.3523 215.904C71.0857 215.771 70.891 215.555 70.7683 215.256C70.651 214.952 70.5923 214.552 70.5923 214.056C70.5923 213.56 70.651 213.163 70.7683 212.864C70.891 212.56 71.0857 212.341 71.3523 212.208C71.6243 212.075 71.9817 212.008 72.4243 212.008ZM72.4243 212.584C72.1417 212.584 71.9177 212.629 71.7523 212.72C71.5923 212.805 71.4777 212.955 71.4083 213.168C71.339 213.381 71.3043 213.677 71.3043 214.056C71.3043 214.435 71.339 214.731 71.4083 214.944C71.4777 215.157 71.5923 215.309 71.7523 215.4C71.9177 215.485 72.1417 215.528 72.4243 215.528C72.707 215.528 72.931 215.485 73.0963 215.4C73.2617 215.309 73.379 215.157 73.4483 214.944C73.5177 214.731 73.5523 214.435 73.5523 214.056C73.5523 213.677 73.5177 213.381 73.4483 213.168C73.379 212.955 73.2617 212.805 73.0963 212.72C72.931 212.629 72.707 212.584 72.4243 212.584ZM71.7923 210.44C71.915 210.451 72.0243 210.477 72.1203 210.52C72.2217 210.557 72.315 210.603 72.4003 210.656C72.491 210.704 72.5817 210.749 72.6723 210.792C72.7683 210.835 72.8723 210.864 72.9843 210.88C73.139 210.901 73.243 210.877 73.2963 210.808C73.3497 210.739 73.3763 210.629 73.3763 210.48H73.6963C73.7283 210.779 73.683 211.008 73.5603 211.168C73.443 211.323 73.2803 211.392 73.0723 211.376C72.891 211.36 72.7337 211.317 72.6003 211.248C72.4723 211.179 72.3497 211.109 72.2323 211.04C72.1203 210.971 71.9977 210.931 71.8643 210.92C71.715 210.904 71.6137 210.933 71.5603 211.008C71.5123 211.077 71.4883 211.192 71.4883 211.352H71.1683C71.147 211.139 71.1603 210.963 71.2083 210.824C71.2617 210.685 71.339 210.584 71.4403 210.52C71.547 210.456 71.6643 210.429 71.7923 210.44ZM76.9232 212.008C77.5099 212.008 77.9339 212.115 78.1952 212.328C78.4619 212.541 78.5952 212.859 78.5952 213.28C78.6006 213.627 78.5286 213.899 78.3792 214.096C78.2299 214.288 77.9926 214.384 77.6672 214.384H75.3952V213.856H77.4912C77.6672 213.856 77.7819 213.797 77.8352 213.68C77.8886 213.557 77.9152 213.424 77.9152 213.28C77.9099 213.029 77.8352 212.851 77.6912 212.744C77.5472 212.637 77.3019 212.584 76.9552 212.584C76.6726 212.584 76.4486 212.627 76.2832 212.712C76.1232 212.792 76.0086 212.936 75.9392 213.144C75.8752 213.347 75.8432 213.632 75.8432 214C75.8432 214.416 75.8832 214.733 75.9632 214.952C76.0486 215.171 76.1819 215.32 76.3632 215.4C76.5446 215.48 76.7846 215.52 77.0832 215.52C77.2912 215.52 77.5179 215.512 77.7632 215.496C78.0139 215.475 78.2379 215.451 78.4352 215.424L78.5072 215.88C78.3846 215.928 78.2326 215.968 78.0512 216C77.8752 216.032 77.6912 216.056 77.4992 216.072C77.3126 216.088 77.1446 216.096 76.9952 216.096C76.5472 216.096 76.1872 216.029 75.9152 215.896C75.6432 215.757 75.4432 215.539 75.3152 215.24C75.1926 214.936 75.1312 214.536 75.1312 214.04C75.1312 213.528 75.1926 213.125 75.3152 212.832C75.4432 212.533 75.6379 212.323 75.8992 212.2C76.1659 212.072 76.5072 212.008 76.9232 212.008ZM80.9161 212.008C81.0868 212.008 81.2681 212.013 81.4601 212.024C81.6521 212.035 81.8414 212.048 82.0281 212.064C82.2201 212.08 82.3961 212.101 82.5561 212.128L82.5001 212.624C82.2548 212.613 82.0068 212.605 81.7561 212.6C81.5108 212.589 81.2654 212.584 81.0201 212.584C80.7801 212.579 80.5908 212.584 80.4521 212.6C80.3134 212.616 80.2121 212.659 80.1481 212.728C80.0894 212.797 80.0601 212.915 80.0601 213.08C80.0601 213.283 80.1081 213.416 80.2041 213.48C80.3001 213.544 80.4414 213.597 80.6281 213.64L81.7641 213.896C82.0734 213.971 82.3001 214.085 82.4441 214.24C82.5934 214.395 82.6681 214.637 82.6681 214.968C82.6681 215.288 82.6068 215.528 82.4841 215.688C82.3668 215.848 82.1854 215.955 81.9401 216.008C81.6948 216.061 81.3828 216.088 81.0041 216.088C80.8654 216.088 80.6574 216.083 80.3801 216.072C80.1081 216.061 79.8068 216.029 79.4761 215.976L79.5241 215.48C79.6521 215.485 79.7881 215.493 79.9321 215.504C80.0761 215.509 80.2254 215.512 80.3801 215.512C80.5401 215.512 80.7028 215.512 80.8681 215.512C81.1614 215.512 81.3908 215.499 81.5561 215.472C81.7214 215.445 81.8388 215.395 81.9081 215.32C81.9774 215.24 82.0121 215.123 82.0121 214.968C82.0121 214.776 81.9561 214.648 81.8441 214.584C81.7321 214.52 81.5828 214.467 81.3961 214.424L80.2761 214.168C80.0628 214.115 79.8921 214.045 79.7641 213.96C79.6361 213.869 79.5428 213.755 79.4841 213.616C79.4254 213.472 79.3961 213.293 79.3961 213.08C79.3961 212.776 79.4494 212.547 79.5561 212.392C79.6628 212.237 79.8281 212.133 80.0521 212.08C80.2761 212.027 80.5641 212.003 80.9161 212.008Z" fill="black"/>
<path d="M189.451 70.384C189.712 70.3893 189.981 70.4027 190.259 70.424C190.536 70.4453 190.813 70.4853 191.091 70.544L191.043 71.056C190.813 71.0453 190.56 71.0373 190.283 71.032C190.005 71.0213 189.739 71.016 189.483 71.016C189.285 71.016 189.115 71.024 188.971 71.04C188.832 71.0507 188.717 71.0827 188.627 71.136C188.536 71.184 188.469 71.2667 188.427 71.384C188.389 71.496 188.371 71.6533 188.371 71.856C188.371 72.16 188.424 72.3733 188.531 72.496C188.643 72.6133 188.821 72.7013 189.067 72.76L190.187 73.04C190.613 73.1413 190.904 73.32 191.059 73.576C191.219 73.8267 191.299 74.1653 191.299 74.592C191.299 74.912 191.261 75.1707 191.187 75.368C191.117 75.5653 191.008 75.7173 190.859 75.824C190.709 75.9253 190.517 75.9947 190.283 76.032C190.048 76.0747 189.771 76.096 189.451 76.096C189.269 76.096 189.032 76.088 188.739 76.072C188.451 76.056 188.117 76.0133 187.739 75.944L187.787 75.424C188.101 75.4347 188.355 75.4453 188.547 75.456C188.739 75.4613 188.904 75.464 189.043 75.464C189.181 75.464 189.325 75.464 189.475 75.464C189.757 75.464 189.979 75.4427 190.139 75.4C190.304 75.3573 190.419 75.272 190.483 75.144C190.552 75.016 190.587 74.8267 190.587 74.576C190.587 74.3627 190.563 74.1973 190.515 74.08C190.467 73.9627 190.389 73.8747 190.283 73.816C190.181 73.752 190.051 73.7013 189.891 73.664L188.747 73.376C188.347 73.2747 188.064 73.0987 187.899 72.848C187.739 72.5973 187.659 72.2613 187.659 71.84C187.659 71.52 187.693 71.264 187.763 71.072C187.837 70.8747 187.947 70.728 188.091 70.632C188.24 70.5307 188.427 70.464 188.651 70.432C188.875 70.4 189.141 70.384 189.451 70.384ZM193.927 72.008C194.514 72.008 194.938 72.1147 195.199 72.328C195.466 72.5413 195.599 72.8587 195.599 73.28C195.604 73.6267 195.532 73.8987 195.383 74.096C195.234 74.288 194.996 74.384 194.671 74.384H192.399V73.856H194.495C194.671 73.856 194.786 73.7973 194.839 73.68C194.892 73.5573 194.919 73.424 194.919 73.28C194.914 73.0293 194.839 72.8507 194.695 72.744C194.551 72.6373 194.306 72.584 193.959 72.584C193.676 72.584 193.452 72.6267 193.287 72.712C193.127 72.792 193.012 72.936 192.943 73.144C192.879 73.3467 192.847 73.632 192.847 74C192.847 74.416 192.887 74.7333 192.967 74.952C193.052 75.1707 193.186 75.32 193.367 75.4C193.548 75.48 193.788 75.52 194.087 75.52C194.295 75.52 194.522 75.512 194.767 75.496C195.018 75.4747 195.242 75.4507 195.439 75.424L195.511 75.88C195.388 75.928 195.236 75.968 195.055 76C194.879 76.032 194.695 76.056 194.503 76.072C194.316 76.088 194.148 76.096 193.999 76.096C193.551 76.096 193.191 76.0293 192.919 75.896C192.647 75.7573 192.447 75.5387 192.319 75.24C192.196 74.936 192.135 74.536 192.135 74.04C192.135 73.528 192.196 73.1253 192.319 72.832C192.447 72.5333 192.642 72.3227 192.903 72.2C193.17 72.072 193.511 72.008 193.927 72.008ZM197.152 72.104L197.24 72.848L197.304 72.968V76H196.624V72.104H197.152ZM199.064 72.008L198.984 72.648H198.76C198.531 72.648 198.301 72.696 198.072 72.792C197.843 72.8827 197.563 73.0133 197.232 73.184L197.176 72.76C197.464 72.5253 197.752 72.3413 198.04 72.208C198.333 72.0747 198.616 72.008 198.888 72.008H199.064ZM203.299 72.104L201.875 75.832C201.854 75.8853 201.822 75.928 201.779 75.96C201.742 75.9867 201.694 76 201.635 76H201.019C200.966 76 200.918 75.9867 200.875 75.96C200.832 75.928 200.8 75.8853 200.779 75.832L199.355 72.104H200.083L201.043 74.832C201.086 74.944 201.126 75.0587 201.163 75.176C201.2 75.2933 201.238 75.4053 201.275 75.512H201.379C201.422 75.4 201.462 75.288 201.499 75.176C201.542 75.0587 201.582 74.944 201.619 74.832L202.579 72.104H203.299ZM204.781 72.104V76H204.109V72.104H204.781ZM204.605 70.448C204.744 70.448 204.813 70.5173 204.813 70.656V71.112C204.813 71.2507 204.744 71.32 204.605 71.32H204.285C204.146 71.32 204.077 71.2507 204.077 71.112V70.656C204.077 70.5173 204.146 70.448 204.285 70.448H204.605ZM207.358 72.008C207.614 72.008 207.867 72.0427 208.118 72.112C208.368 72.176 208.608 72.2773 208.838 72.416L208.798 72.84C208.547 72.7653 208.326 72.7067 208.134 72.664C207.942 72.6213 207.736 72.6 207.518 72.6C207.294 72.6 207.112 72.64 206.974 72.72C206.84 72.7947 206.742 72.936 206.678 73.144C206.614 73.352 206.582 73.648 206.582 74.032C206.582 74.416 206.611 74.7147 206.67 74.928C206.734 75.1413 206.832 75.2907 206.966 75.376C207.099 75.4613 207.27 75.504 207.478 75.504C207.632 75.504 207.771 75.4853 207.894 75.448C208.022 75.4053 208.155 75.3387 208.294 75.248C208.438 75.1573 208.606 75.0427 208.798 74.904L208.862 75.384C208.648 75.5813 208.406 75.7493 208.134 75.888C207.862 76.0267 207.568 76.096 207.254 76.096C206.763 76.096 206.411 75.9227 206.198 75.576C205.99 75.2293 205.886 74.7173 205.886 74.04C205.886 73.5333 205.939 73.1333 206.046 72.84C206.152 72.5413 206.315 72.328 206.534 72.2C206.752 72.072 207.027 72.008 207.358 72.008ZM209.39 70.4V76H208.862L208.782 75.32L208.71 75.264V72.592L208.758 72.472C208.736 72.3227 208.723 72.1787 208.718 72.04C208.712 71.9013 208.71 71.7547 208.71 71.6V70.4H209.39ZM212.295 72.008C212.743 72.008 213.101 72.0747 213.367 72.208C213.639 72.3413 213.834 72.56 213.951 72.864C214.069 73.1627 214.127 73.56 214.127 74.056C214.127 74.552 214.069 74.952 213.951 75.256C213.834 75.5547 213.639 75.7707 213.367 75.904C213.101 76.0373 212.743 76.104 212.295 76.104C211.853 76.104 211.495 76.0373 211.223 75.904C210.957 75.7707 210.762 75.5547 210.639 75.256C210.522 74.952 210.463 74.552 210.463 74.056C210.463 73.56 210.522 73.1627 210.639 72.864C210.762 72.56 210.957 72.3413 211.223 72.208C211.495 72.0747 211.853 72.008 212.295 72.008ZM212.295 72.584C212.013 72.584 211.789 72.6293 211.623 72.72C211.463 72.8053 211.349 72.9547 211.279 73.168C211.21 73.3813 211.175 73.6773 211.175 74.056C211.175 74.4347 211.21 74.7307 211.279 74.944C211.349 75.1573 211.463 75.3093 211.623 75.4C211.789 75.4853 212.013 75.528 212.295 75.528C212.578 75.528 212.802 75.4853 212.967 75.4C213.133 75.3093 213.25 75.1573 213.319 74.944C213.389 74.7307 213.423 74.4347 213.423 74.056C213.423 73.6773 213.389 73.3813 213.319 73.168C213.25 72.9547 213.133 72.8053 212.967 72.72C212.802 72.6293 212.578 72.584 212.295 72.584ZM215.722 72.104L215.81 72.848L215.874 72.968V76H215.194V72.104H215.722ZM217.634 72.008L217.554 72.648H217.33C217.101 72.648 216.872 72.696 216.642 72.792C216.413 72.8827 216.133 73.0133 215.802 73.184L215.746 72.76C216.034 72.5253 216.322 72.3413 216.61 72.208C216.904 72.0747 217.186 72.008 217.458 72.008H217.634Z" fill="black"/>
<path d="M301.25 20.384C301.484 20.384 301.684 20.3893 301.85 20.4C302.02 20.4107 302.175 20.4293 302.314 20.456C302.458 20.4773 302.604 20.5067 302.754 20.544L302.682 21.08C302.522 21.064 302.372 21.0507 302.234 21.04C302.1 21.0293 301.956 21.0213 301.802 21.016C301.647 21.0107 301.463 21.008 301.25 21.008C300.892 21.008 300.61 21.0773 300.402 21.216C300.194 21.3547 300.044 21.5867 299.954 21.912C299.868 22.2373 299.826 22.68 299.826 23.24C299.826 23.8 299.868 24.2427 299.954 24.568C300.044 24.8933 300.194 25.1253 300.402 25.264C300.61 25.4027 300.892 25.472 301.25 25.472C301.591 25.472 301.876 25.4667 302.106 25.456C302.34 25.44 302.57 25.416 302.794 25.384L302.866 25.912C302.636 25.976 302.399 26.0213 302.154 26.048C301.914 26.08 301.612 26.096 301.25 26.096C300.722 26.096 300.298 26.0053 299.978 25.824C299.663 25.6373 299.434 25.336 299.29 24.92C299.151 24.504 299.082 23.944 299.082 23.24C299.082 22.536 299.151 21.976 299.29 21.56C299.434 21.144 299.663 20.8453 299.978 20.664C300.298 20.4773 300.722 20.384 301.25 20.384ZM305.62 22.008C305.908 22.008 306.151 22.048 306.348 22.128C306.551 22.2027 306.703 22.3307 306.804 22.512C306.906 22.6933 306.956 22.9413 306.956 23.256V26H306.42L306.316 25.152L306.268 25.064V23.256C306.268 23.016 306.212 22.8453 306.1 22.744C305.994 22.6373 305.786 22.584 305.476 22.584C305.274 22.584 305.018 22.5947 304.708 22.616C304.404 22.6373 304.103 22.6613 303.804 22.688L303.74 22.184C303.922 22.152 304.119 22.1227 304.332 22.096C304.551 22.0693 304.772 22.048 304.996 22.032C305.22 22.016 305.428 22.008 305.62 22.008ZM306.636 23.6L306.628 24.112L304.764 24.12C304.578 24.1253 304.447 24.176 304.372 24.272C304.298 24.3627 304.26 24.4907 304.26 24.656V24.904C304.26 25.1067 304.308 25.256 304.404 25.352C304.5 25.4427 304.655 25.488 304.868 25.488C305.018 25.488 305.186 25.4613 305.372 25.408C305.564 25.3493 305.756 25.2613 305.948 25.144C306.14 25.0267 306.316 24.8773 306.476 24.696V25.2C306.418 25.2747 306.332 25.3627 306.22 25.464C306.114 25.56 305.983 25.656 305.828 25.752C305.679 25.8427 305.511 25.92 305.324 25.984C305.143 26.0427 304.946 26.072 304.732 26.072C304.503 26.072 304.3 26.032 304.124 25.952C303.948 25.8667 303.81 25.744 303.708 25.584C303.612 25.4187 303.564 25.2187 303.564 24.984V24.56C303.564 24.256 303.658 24.0213 303.844 23.856C304.036 23.6853 304.303 23.6 304.644 23.6H306.636ZM309.835 22.008C309.952 22.008 310.083 22.0133 310.227 22.024C310.371 22.0347 310.518 22.0533 310.667 22.08C310.822 22.1067 310.963 22.144 311.091 22.192L311.003 22.632C310.827 22.616 310.64 22.6053 310.443 22.6C310.251 22.5893 310.086 22.584 309.947 22.584C309.638 22.584 309.392 22.6267 309.211 22.712C309.03 22.7973 308.899 22.9467 308.819 23.16C308.739 23.3733 308.699 23.6693 308.699 24.048C308.699 24.4267 308.739 24.7253 308.819 24.944C308.899 25.1573 309.03 25.3067 309.211 25.392C309.392 25.4773 309.638 25.52 309.947 25.52C310.027 25.52 310.131 25.5173 310.259 25.512C310.387 25.5067 310.523 25.4987 310.667 25.488C310.816 25.4773 310.958 25.4613 311.091 25.44L311.163 25.896C310.966 25.9653 310.75 26.016 310.515 26.048C310.286 26.08 310.056 26.096 309.827 26.096C309.379 26.096 309.019 26.0293 308.747 25.896C308.475 25.7627 308.278 25.5467 308.155 25.248C308.038 24.9493 307.979 24.5493 307.979 24.048C307.979 23.5467 308.04 23.1467 308.163 22.848C308.286 22.5493 308.483 22.336 308.755 22.208C309.027 22.0747 309.387 22.008 309.835 22.008ZM314.453 22.008C315.157 22.008 315.509 22.3653 315.509 23.08V26H314.821V23.272C314.821 23.0107 314.778 22.832 314.693 22.736C314.613 22.6347 314.472 22.584 314.269 22.584C314.029 22.584 313.789 22.64 313.549 22.752C313.309 22.864 313.024 23.0267 312.693 23.24L312.661 22.752C312.965 22.5227 313.266 22.3413 313.565 22.208C313.864 22.0747 314.16 22.008 314.453 22.008ZM312.765 20.4L312.773 21.944C312.773 22.12 312.765 22.2853 312.749 22.44C312.738 22.5947 312.72 22.7307 312.693 22.848L312.765 22.968V26H312.085V20.4H312.765ZM318.333 22.008C318.92 22.008 319.344 22.1147 319.605 22.328C319.872 22.5413 320.005 22.8587 320.005 23.28C320.011 23.6267 319.939 23.8987 319.789 24.096C319.64 24.288 319.403 24.384 319.077 24.384H316.805V23.856H318.901C319.077 23.856 319.192 23.7973 319.245 23.68C319.299 23.5573 319.325 23.424 319.325 23.28C319.32 23.0293 319.245 22.8507 319.101 22.744C318.957 22.6373 318.712 22.584 318.365 22.584C318.083 22.584 317.859 22.6267 317.693 22.712C317.533 22.792 317.419 22.936 317.349 23.144C317.285 23.3467 317.253 23.632 317.253 24C317.253 24.416 317.293 24.7333 317.373 24.952C317.459 25.1707 317.592 25.32 317.773 25.4C317.955 25.48 318.195 25.52 318.493 25.52C318.701 25.52 318.928 25.512 319.173 25.496C319.424 25.4747 319.648 25.4507 319.845 25.424L319.917 25.88C319.795 25.928 319.643 25.968 319.461 26C319.285 26.032 319.101 26.056 318.909 26.072C318.723 26.088 318.555 26.096 318.405 26.096C317.957 26.096 317.597 26.0293 317.325 25.896C317.053 25.7573 316.853 25.5387 316.725 25.24C316.603 24.936 316.541 24.536 316.541 24.04C316.541 23.528 316.603 23.1253 316.725 22.832C316.853 22.5333 317.048 22.3227 317.309 22.2C317.576 22.072 317.917 22.008 318.333 22.008Z" fill="black"/>
<path d="M283.117 198.416C283.57 198.416 283.93 198.459 284.197 198.544C284.464 198.624 284.656 198.768 284.773 198.976C284.896 199.184 284.957 199.477 284.957 199.856C284.957 200.251 284.882 200.552 284.733 200.76C284.589 200.968 284.352 201.088 284.021 201.12V201.152C284.432 201.189 284.717 201.333 284.877 201.584C285.042 201.835 285.125 202.181 285.125 202.624C285.125 203.003 285.066 203.296 284.949 203.504C284.832 203.712 284.642 203.859 284.381 203.944C284.125 204.024 283.786 204.064 283.365 204.064C283.05 204.064 282.778 204.061 282.549 204.056C282.325 204.056 282.117 204.051 281.925 204.04C281.733 204.029 281.533 204.016 281.325 204L281.437 203.44C281.554 203.445 281.776 203.451 282.101 203.456C282.432 203.461 282.816 203.464 283.253 203.464C283.546 203.464 283.776 203.44 283.941 203.392C284.112 203.339 284.232 203.243 284.301 203.104C284.376 202.965 284.413 202.765 284.413 202.504C284.413 202.216 284.376 201.995 284.301 201.84C284.226 201.685 284.101 201.576 283.925 201.512C283.749 201.448 283.509 201.413 283.205 201.408H281.429V200.872H283.197C283.464 200.867 283.674 200.84 283.829 200.792C283.989 200.739 284.104 200.645 284.173 200.512C284.242 200.373 284.277 200.181 284.277 199.936C284.277 199.685 284.24 199.493 284.165 199.36C284.09 199.227 283.965 199.136 283.789 199.088C283.618 199.04 283.384 199.016 283.085 199.016C282.824 199.016 282.589 199.016 282.381 199.016C282.173 199.016 281.989 199.019 281.829 199.024C281.674 199.024 281.544 199.029 281.437 199.04L281.325 198.48C281.512 198.459 281.688 198.445 281.853 198.44C282.024 198.429 282.208 198.424 282.405 198.424C282.608 198.419 282.845 198.416 283.117 198.416ZM282.013 198.48V204H281.325V198.48H282.013ZM288.054 200.008C288.342 200.008 288.585 200.048 288.782 200.128C288.985 200.203 289.137 200.331 289.238 200.512C289.339 200.693 289.39 200.941 289.39 201.256V204H288.854L288.75 203.152L288.702 203.064V201.256C288.702 201.016 288.646 200.845 288.534 200.744C288.427 200.637 288.219 200.584 287.91 200.584C287.707 200.584 287.451 200.595 287.142 200.616C286.838 200.637 286.537 200.661 286.238 200.688L286.174 200.184C286.355 200.152 286.553 200.123 286.766 200.096C286.985 200.069 287.206 200.048 287.43 200.032C287.654 200.016 287.862 200.008 288.054 200.008ZM289.07 201.6L289.062 202.112L287.198 202.12C287.011 202.125 286.881 202.176 286.806 202.272C286.731 202.363 286.694 202.491 286.694 202.656V202.904C286.694 203.107 286.742 203.256 286.838 203.352C286.934 203.443 287.089 203.488 287.302 203.488C287.451 203.488 287.619 203.461 287.806 203.408C287.998 203.349 288.19 203.261 288.382 203.144C288.574 203.027 288.75 202.877 288.91 202.696V203.2C288.851 203.275 288.766 203.363 288.654 203.464C288.547 203.56 288.417 203.656 288.262 203.752C288.113 203.843 287.945 203.92 287.758 203.984C287.577 204.043 287.379 204.072 287.166 204.072C286.937 204.072 286.734 204.032 286.558 203.952C286.382 203.867 286.243 203.744 286.142 203.584C286.046 203.419 285.998 203.219 285.998 202.984V202.56C285.998 202.256 286.091 202.021 286.278 201.856C286.47 201.685 286.737 201.6 287.078 201.6H289.07ZM292.972 200.008C293.676 200.008 294.028 200.365 294.028 201.08V204H293.348V201.272C293.348 201.011 293.306 200.832 293.22 200.736C293.135 200.635 292.991 200.584 292.788 200.584C292.548 200.584 292.308 200.643 292.068 200.76C291.828 200.877 291.543 201.037 291.212 201.24L291.18 200.752C291.484 200.517 291.786 200.336 292.084 200.208C292.383 200.075 292.679 200.008 292.972 200.008ZM291.18 200.104L291.236 200.848L291.284 200.968V204H290.604V200.104H291.18ZM296.917 200.008C297.034 200.008 297.165 200.013 297.309 200.024C297.453 200.035 297.6 200.053 297.749 200.08C297.904 200.107 298.045 200.144 298.173 200.192L298.085 200.632C297.909 200.616 297.722 200.605 297.525 200.6C297.333 200.589 297.168 200.584 297.029 200.584C296.72 200.584 296.474 200.627 296.293 200.712C296.112 200.797 295.981 200.947 295.901 201.16C295.821 201.373 295.781 201.669 295.781 202.048C295.781 202.427 295.821 202.725 295.901 202.944C295.981 203.157 296.112 203.307 296.293 203.392C296.474 203.477 296.72 203.52 297.029 203.52C297.109 203.52 297.213 203.517 297.341 203.512C297.469 203.507 297.605 203.499 297.749 203.488C297.898 203.477 298.04 203.461 298.173 203.44L298.245 203.896C298.048 203.965 297.832 204.016 297.597 204.048C297.368 204.08 297.138 204.096 296.909 204.096C296.461 204.096 296.101 204.029 295.829 203.896C295.557 203.763 295.36 203.547 295.237 203.248C295.12 202.949 295.061 202.549 295.061 202.048C295.061 201.547 295.122 201.147 295.245 200.848C295.368 200.549 295.565 200.336 295.837 200.208C296.109 200.075 296.469 200.008 296.917 200.008ZM300.752 200.008C301.2 200.008 301.558 200.075 301.824 200.208C302.096 200.341 302.291 200.56 302.408 200.864C302.526 201.163 302.584 201.56 302.584 202.056C302.584 202.552 302.526 202.952 302.408 203.256C302.291 203.555 302.096 203.771 301.824 203.904C301.558 204.037 301.2 204.104 300.752 204.104C300.31 204.104 299.952 204.037 299.68 203.904C299.414 203.771 299.219 203.555 299.096 203.256C298.979 202.952 298.92 202.552 298.92 202.056C298.92 201.56 298.979 201.163 299.096 200.864C299.219 200.56 299.414 200.341 299.68 200.208C299.952 200.075 300.31 200.008 300.752 200.008ZM300.752 200.584C300.47 200.584 300.246 200.629 300.08 200.72C299.92 200.805 299.806 200.955 299.736 201.168C299.667 201.381 299.632 201.677 299.632 202.056C299.632 202.435 299.667 202.731 299.736 202.944C299.806 203.157 299.92 203.309 300.08 203.4C300.246 203.485 300.47 203.528 300.752 203.528C301.035 203.528 301.259 203.485 301.424 203.4C301.59 203.309 301.707 203.157 301.776 202.944C301.846 202.731 301.88 202.435 301.88 202.056C301.88 201.677 301.846 201.381 301.776 201.168C301.707 200.955 301.59 200.805 301.424 200.72C301.259 200.629 301.035 200.584 300.752 200.584ZM306.729 200.008C306.985 200.008 307.238 200.043 307.489 200.112C307.739 200.176 307.979 200.277 308.209 200.416L308.169 200.84C307.918 200.765 307.697 200.707 307.505 200.664C307.313 200.621 307.107 200.6 306.889 200.6C306.665 200.6 306.483 200.64 306.345 200.72C306.211 200.795 306.113 200.936 306.049 201.144C305.985 201.352 305.953 201.648 305.953 202.032C305.953 202.416 305.982 202.715 306.041 202.928C306.105 203.141 306.203 203.291 306.337 203.376C306.47 203.461 306.641 203.504 306.849 203.504C307.003 203.504 307.142 203.485 307.265 203.448C307.393 203.405 307.526 203.339 307.665 203.248C307.809 203.157 307.977 203.043 308.169 202.904L308.233 203.384C308.019 203.581 307.777 203.749 307.505 203.888C307.233 204.027 306.939 204.096 306.625 204.096C306.134 204.096 305.782 203.923 305.569 203.576C305.361 203.229 305.257 202.717 305.257 202.04C305.257 201.533 305.31 201.133 305.417 200.84C305.523 200.541 305.686 200.328 305.905 200.2C306.123 200.072 306.398 200.008 306.729 200.008ZM308.761 198.4V204H308.233L308.153 203.32L308.081 203.264V200.592L308.129 200.472C308.107 200.323 308.094 200.179 308.089 200.04C308.083 199.901 308.081 199.755 308.081 199.6V198.4H308.761ZM311.619 200.008C312.205 200.008 312.629 200.115 312.891 200.328C313.157 200.541 313.291 200.859 313.291 201.28C313.296 201.627 313.224 201.899 313.075 202.096C312.925 202.288 312.688 202.384 312.363 202.384H310.091V201.856H312.187C312.363 201.856 312.477 201.797 312.531 201.68C312.584 201.557 312.611 201.424 312.611 201.28C312.605 201.029 312.531 200.851 312.387 200.744C312.243 200.637 311.997 200.584 311.651 200.584C311.368 200.584 311.144 200.627 310.979 200.712C310.819 200.792 310.704 200.936 310.635 201.144C310.571 201.347 310.539 201.632 310.539 202C310.539 202.416 310.579 202.733 310.659 202.952C310.744 203.171 310.877 203.32 311.059 203.4C311.24 203.48 311.48 203.52 311.779 203.52C311.987 203.52 312.213 203.512 312.459 203.496C312.709 203.475 312.933 203.451 313.131 203.424L313.203 203.88C313.08 203.928 312.928 203.968 312.747 204C312.571 204.032 312.387 204.056 312.195 204.072C312.008 204.088 311.84 204.096 311.691 204.096C311.243 204.096 310.883 204.029 310.611 203.896C310.339 203.757 310.139 203.539 310.011 203.24C309.888 202.936 309.827 202.536 309.827 202.04C309.827 201.528 309.888 201.125 310.011 200.832C310.139 200.533 310.333 200.323 310.595 200.2C310.861 200.072 311.203 200.008 311.619 200.008ZM318.137 198.408C318.531 198.408 318.865 198.456 319.137 198.552C319.414 198.648 319.635 198.805 319.801 199.024C319.971 199.243 320.094 199.533 320.169 199.896C320.249 200.259 320.289 200.707 320.289 201.24C320.289 201.773 320.249 202.221 320.169 202.584C320.094 202.947 319.971 203.237 319.801 203.456C319.635 203.675 319.414 203.832 319.137 203.928C318.865 204.024 318.531 204.072 318.137 204.072C317.758 204.072 317.406 204.064 317.081 204.048C316.761 204.037 316.457 204.021 316.169 204L316.473 203.424C316.697 203.429 316.945 203.437 317.217 203.448C317.494 203.453 317.801 203.456 318.137 203.456C318.489 203.456 318.769 203.389 318.977 203.256C319.185 203.117 319.331 202.888 319.417 202.568C319.507 202.243 319.553 201.8 319.553 201.24C319.553 200.68 319.507 200.24 319.417 199.92C319.331 199.595 319.185 199.363 318.977 199.224C318.769 199.085 318.489 199.016 318.137 199.016C317.806 199.016 317.507 199.019 317.241 199.024C316.979 199.029 316.723 199.035 316.473 199.04L316.169 198.48C316.457 198.459 316.761 198.443 317.081 198.432C317.406 198.416 317.758 198.408 318.137 198.408ZM316.873 198.48V204H316.169V198.48H316.873ZM323.249 200.008C323.537 200.008 323.78 200.048 323.977 200.128C324.18 200.203 324.332 200.331 324.433 200.512C324.534 200.693 324.585 200.941 324.585 201.256V204H324.049L323.945 203.152L323.897 203.064V201.256C323.897 201.016 323.841 200.845 323.729 200.744C323.622 200.637 323.414 200.584 323.105 200.584C322.902 200.584 322.646 200.595 322.337 200.616C322.033 200.637 321.732 200.661 321.433 200.688L321.369 200.184C321.55 200.152 321.748 200.123 321.961 200.096C322.18 200.069 322.401 200.048 322.625 200.032C322.849 200.016 323.057 200.008 323.249 200.008ZM324.265 201.6L324.257 202.112L322.393 202.12C322.206 202.125 322.076 202.176 322.001 202.272C321.926 202.363 321.889 202.491 321.889 202.656V202.904C321.889 203.107 321.937 203.256 322.033 203.352C322.129 203.443 322.284 203.488 322.497 203.488C322.646 203.488 322.814 203.461 323.001 203.408C323.193 203.349 323.385 203.261 323.577 203.144C323.769 203.027 323.945 202.877 324.105 202.696V203.2C324.046 203.275 323.961 203.363 323.849 203.464C323.742 203.56 323.612 203.656 323.457 203.752C323.308 203.843 323.14 203.92 322.953 203.984C322.772 204.043 322.574 204.072 322.361 204.072C322.132 204.072 321.929 204.032 321.753 203.952C321.577 203.867 321.438 203.744 321.337 203.584C321.241 203.419 321.193 203.219 321.193 202.984V202.56C321.193 202.256 321.286 202.021 321.473 201.856C321.665 201.685 321.932 201.6 322.273 201.6H324.265ZM327.096 200.008C327.352 200.008 327.605 200.043 327.856 200.112C328.106 200.176 328.346 200.277 328.576 200.416L328.536 200.84C328.285 200.765 328.064 200.707 327.872 200.664C327.68 200.621 327.474 200.6 327.256 200.6C327.032 200.6 326.85 200.64 326.712 200.72C326.578 200.795 326.48 200.936 326.416 201.144C326.352 201.352 326.32 201.648 326.32 202.032C326.32 202.416 326.349 202.715 326.408 202.928C326.472 203.141 326.57 203.291 326.704 203.376C326.837 203.461 327.008 203.504 327.216 203.504C327.37 203.504 327.509 203.485 327.632 203.448C327.76 203.405 327.893 203.339 328.032 203.248C328.176 203.157 328.344 203.043 328.536 202.904L328.6 203.384C328.386 203.581 328.144 203.749 327.872 203.888C327.6 204.027 327.306 204.096 326.992 204.096C326.501 204.096 326.149 203.923 325.936 203.576C325.728 203.229 325.624 202.717 325.624 202.04C325.624 201.533 325.677 201.133 325.784 200.84C325.89 200.541 326.053 200.328 326.272 200.2C326.49 200.072 326.765 200.008 327.096 200.008ZM329.128 198.4V204H328.6L328.52 203.32L328.448 203.264V200.592L328.496 200.472C328.474 200.323 328.461 200.179 328.456 200.04C328.45 199.901 328.448 199.755 328.448 199.6V198.4H329.128ZM332.034 200.008C332.482 200.008 332.839 200.075 333.106 200.208C333.378 200.341 333.572 200.56 333.69 200.864C333.807 201.163 333.866 201.56 333.866 202.056C333.866 202.552 333.807 202.952 333.69 203.256C333.572 203.555 333.378 203.771 333.106 203.904C332.839 204.037 332.482 204.104 332.034 204.104C331.591 204.104 331.234 204.037 330.962 203.904C330.695 203.771 330.5 203.555 330.378 203.256C330.26 202.952 330.202 202.552 330.202 202.056C330.202 201.56 330.26 201.163 330.378 200.864C330.5 200.56 330.695 200.341 330.962 200.208C331.234 200.075 331.591 200.008 332.034 200.008ZM332.034 200.584C331.751 200.584 331.527 200.629 331.362 200.72C331.202 200.805 331.087 200.955 331.018 201.168C330.948 201.381 330.914 201.677 330.914 202.056C330.914 202.435 330.948 202.731 331.018 202.944C331.087 203.157 331.202 203.309 331.362 203.4C331.527 203.485 331.751 203.528 332.034 203.528C332.316 203.528 332.54 203.485 332.706 203.4C332.871 203.309 332.988 203.157 333.058 202.944C333.127 202.731 333.162 202.435 333.162 202.056C333.162 201.677 333.127 201.381 333.058 201.168C332.988 200.955 332.871 200.805 332.706 200.72C332.54 200.629 332.316 200.584 332.034 200.584ZM336.229 200.008C336.399 200.008 336.581 200.013 336.773 200.024C336.965 200.035 337.154 200.048 337.341 200.064C337.533 200.08 337.709 200.101 337.869 200.128L337.813 200.624C337.567 200.613 337.319 200.605 337.069 200.6C336.823 200.589 336.578 200.584 336.333 200.584C336.093 200.579 335.903 200.584 335.765 200.6C335.626 200.616 335.525 200.659 335.461 200.728C335.402 200.797 335.373 200.915 335.373 201.08C335.373 201.283 335.421 201.416 335.517 201.48C335.613 201.544 335.754 201.597 335.941 201.64L337.077 201.896C337.386 201.971 337.613 202.085 337.757 202.24C337.906 202.395 337.981 202.637 337.981 202.968C337.981 203.288 337.919 203.528 337.797 203.688C337.679 203.848 337.498 203.955 337.253 204.008C337.007 204.061 336.695 204.088 336.317 204.088C336.178 204.088 335.97 204.083 335.693 204.072C335.421 204.061 335.119 204.029 334.789 203.976L334.837 203.48C334.965 203.485 335.101 203.493 335.245 203.504C335.389 203.509 335.538 203.512 335.693 203.512C335.853 203.512 336.015 203.512 336.181 203.512C336.474 203.512 336.703 203.499 336.869 203.472C337.034 203.445 337.151 203.395 337.221 203.32C337.29 203.24 337.325 203.123 337.325 202.968C337.325 202.776 337.269 202.648 337.157 202.584C337.045 202.52 336.895 202.467 336.709 202.424L335.589 202.168C335.375 202.115 335.205 202.045 335.077 201.96C334.949 201.869 334.855 201.755 334.797 201.616C334.738 201.472 334.709 201.293 334.709 201.08C334.709 200.776 334.762 200.547 334.869 200.392C334.975 200.237 335.141 200.133 335.365 200.08C335.589 200.027 335.877 200.003 336.229 200.008Z" fill="black"/>
<path d="M128.497 76.5557C128.645 76.6685 128.787 76.7823 128.92 76.8972C129.054 77.0121 129.179 77.1301 129.294 77.2513C129.413 77.3682 129.521 77.4904 129.619 77.6178L129.242 77.995C129.12 77.8823 128.995 77.7702 128.865 77.6585C128.74 77.5501 128.615 77.4492 128.492 77.3557C128.372 77.258 128.257 77.1672 128.147 77.0834C127.909 76.9029 127.689 76.7732 127.488 76.6942C127.294 76.6142 127.1 76.6009 126.906 76.6542C126.711 76.7076 126.5 76.8355 126.273 77.038C126.05 77.2437 125.794 77.5378 125.504 77.9202C125.175 78.3536 124.942 78.7225 124.805 79.0268C124.671 79.3269 124.63 79.5875 124.684 79.8086C124.737 80.0296 124.88 80.2288 125.114 80.4061C125.275 80.5286 125.44 80.6164 125.607 80.6696C125.778 80.726 125.949 80.7616 126.118 80.7764C126.295 80.7902 126.47 80.7986 126.641 80.8016L126.457 81.2038C126.313 81.2351 126.136 81.248 125.925 81.2425C125.72 81.2404 125.502 81.2056 125.272 81.1382C125.042 81.0708 124.814 80.9517 124.589 80.7808C124.262 80.5327 124.055 80.2489 123.969 79.9295C123.891 79.609 123.933 79.2455 124.094 78.8389C124.258 78.4281 124.54 77.9592 124.94 77.4323C125.381 76.8502 125.784 76.439 126.147 76.1989C126.517 75.9577 126.888 75.8706 127.258 75.9377C127.633 76.008 128.046 76.214 128.497 76.5557ZM128.365 79.5086L126.436 82.0517L126.028 81.7423L126.432 81.0245L126.478 80.8584L127.817 79.0928L128.365 79.5086ZM131.574 79.0106C131.786 79.1717 131.999 79.3329 132.211 79.4941C132.428 79.6584 132.637 79.8239 132.839 79.9903C133.048 80.1557 133.246 80.3189 133.432 80.4799L133.073 80.9004L131.307 79.5611C131.175 79.4612 131.052 79.4211 130.936 79.4407C130.829 79.4593 130.718 79.543 130.605 79.6917L128.623 82.3049C128.51 82.4537 128.458 82.5846 128.466 82.6977C128.478 82.814 128.55 82.9221 128.682 83.0221L130.447 84.3613L130.144 84.8141C129.939 84.6785 129.728 84.5323 129.513 84.3754C129.301 84.2217 129.087 84.0627 128.871 83.8983C128.655 83.7414 128.441 83.5824 128.228 83.4212C127.969 83.2246 127.815 83.0003 127.765 82.7483C127.722 82.4952 127.788 82.2502 127.961 82.0133L130.146 79.1324C130.331 78.8977 130.549 78.7687 130.801 78.7456C131.057 78.7256 131.315 78.814 131.574 79.0106ZM129.434 80.3093L131.78 82.0885L131.436 82.5411L129.091 80.7619L129.434 80.3093ZM135.901 82.3026L132.565 86.7004L132.004 86.275L135.34 81.8771L135.901 82.3026ZM137.322 83.3807L136.945 83.8779L133.548 81.3009L133.925 80.8038L137.322 83.3807Z" fill="black"/>
<path d="M128.072 151.845C128.217 151.726 128.36 151.615 128.503 151.511C128.645 151.407 128.789 151.313 128.933 151.229C129.075 151.14 129.219 151.063 129.365 150.998L129.645 151.451C129.507 151.544 129.369 151.641 129.231 151.741C129.096 151.838 128.969 151.935 128.85 152.034C128.727 152.128 128.612 152.219 128.505 152.307C128.275 152.497 128.098 152.681 127.974 152.858C127.852 153.028 127.794 153.214 127.801 153.415C127.808 153.617 127.884 153.851 128.028 154.119C128.177 154.384 128.404 154.701 128.709 155.072C129.055 155.492 129.36 155.804 129.624 156.007C129.885 156.207 130.13 156.306 130.357 156.306C130.584 156.305 130.811 156.211 131.038 156.025C131.194 155.896 131.318 155.756 131.408 155.606C131.502 155.452 131.576 155.295 131.63 155.133C131.684 154.964 131.733 154.796 131.775 154.63L132.124 154.903C132.121 155.05 132.093 155.225 132.039 155.429C131.989 155.628 131.905 155.832 131.786 156.041C131.668 156.249 131.499 156.443 131.281 156.622C130.964 156.884 130.64 157.019 130.31 157.029C129.98 157.031 129.636 156.906 129.277 156.656C128.915 156.401 128.524 156.018 128.104 155.508C127.64 154.944 127.332 154.457 127.183 154.049C127.033 153.633 127.034 153.252 127.185 152.907C127.34 152.558 127.636 152.204 128.072 151.845ZM130.915 152.654L132.944 155.118L132.549 155.444L131.944 154.885L131.793 154.802L130.384 153.091L130.915 152.654ZM131.172 149.417C131.378 149.248 131.583 149.078 131.789 148.909C131.999 148.736 132.208 148.57 132.417 148.413C132.626 148.247 132.831 148.093 133.03 147.949L133.356 148.396L131.646 149.804C131.518 149.909 131.45 150.02 131.443 150.137C131.436 150.246 131.492 150.373 131.611 150.517L133.696 153.049C133.814 153.193 133.929 153.274 134.041 153.293C134.157 153.308 134.279 153.263 134.407 153.158L136.118 151.749L136.488 152.149C136.309 152.317 136.118 152.488 135.916 152.662C135.717 152.832 135.513 153.003 135.303 153.176C135.101 153.35 134.896 153.521 134.69 153.691C134.439 153.898 134.185 153.996 133.929 153.987C133.673 153.969 133.449 153.849 133.259 153.626L130.96 150.835C130.775 150.601 130.7 150.358 130.735 150.108C130.775 149.854 130.92 149.624 131.172 149.417ZM131.941 151.799L134.214 149.928L134.575 150.366L132.302 152.238L131.941 151.799ZM135.374 145.968L138.882 150.229L138.339 150.677L134.83 146.415L135.374 145.968ZM136.751 144.834L137.148 145.316L133.856 148.026L133.459 147.544L136.751 144.834Z" fill="black"/>
</svg>
