<svg width="548" height="227" viewBox="0 0 548 227" fill="none" xmlns="http://www.w3.org/2000/svg">
<rect width="548" height="227" fill="white"/>
<path fill-rule="evenodd" clip-rule="evenodd" d="M63.8571 39.7144C63.0994 39.7144 62.3727 40.0154 61.8368 40.5512C61.301 41.087 61 41.8137 61 42.5715V43.9115H62.4286C64.5124 43.9115 66.5109 44.7393 67.9844 46.2128C69.4579 47.6863 70.2857 49.6848 70.2857 51.7686V52.2144H81V42.5715C81 41.8137 80.699 41.087 80.1632 40.5512C79.6273 40.0154 78.9006 39.7144 78.1429 39.7144H63.8571ZM63.5457 73.6315C63.8445 72.7656 63.9307 71.8406 63.7971 70.9344C65.6154 70.6127 67.2624 69.661 68.4489 68.2461C69.6354 66.8313 70.2857 65.0437 70.2857 63.1972V55.7858H81V71.1429C81 71.9007 80.699 72.6274 80.1632 73.1632C79.6273 73.699 78.9006 74.0001 78.1429 74.0001H65.2857C64.6863 74.0002 64.0936 73.8747 63.5457 73.6315ZM77.2029 45.9658C77.218 46.2622 77.1727 46.5586 77.0697 46.837C76.9667 47.1154 76.8082 47.3699 76.6037 47.5851C76.3993 47.8003 76.1532 47.9716 75.8804 48.0887C75.6077 48.2058 75.314 48.2661 75.0171 48.2661C74.7203 48.2661 74.4266 48.2058 74.1539 48.0887C73.8811 47.9716 73.635 47.8003 73.4306 47.5851C73.2261 47.3699 73.0676 47.1154 72.9646 46.837C72.8616 46.5586 72.8163 46.2622 72.8314 45.9658C72.8601 45.4054 73.1029 44.8775 73.5096 44.491C73.9164 44.1045 74.4561 43.889 75.0171 43.889C75.5782 43.889 76.1179 44.1045 76.5247 44.491C76.9314 44.8775 77.1742 45.4054 77.2029 45.9658ZM41 51.7629C41 50.6263 41.4515 49.5362 42.2553 48.7325C43.059 47.9287 44.1491 47.4772 45.2857 47.4772H62.4286C63.5652 47.4772 64.6553 47.9287 65.459 48.7325C66.2628 49.5362 66.7143 50.6263 66.7143 51.7629V63.1915C66.7143 64.3281 66.2628 65.4182 65.459 66.222C64.6553 67.0257 63.5652 67.4772 62.4286 67.4772H56V69.6201H58.1429C58.7112 69.6201 59.2562 69.8458 59.6581 70.2477C60.06 70.6496 60.2857 71.1946 60.2857 71.7629C60.2857 72.3312 60.06 72.8763 59.6581 73.2782C59.2562 73.68 58.7112 73.9058 58.1429 73.9058H49.5714C49.0031 73.9058 48.4581 73.68 48.0562 73.2782C47.6543 72.8763 47.4286 72.3312 47.4286 71.7629C47.4286 71.1946 47.6543 70.6496 48.0562 70.2477C48.4581 69.8458 49.0031 69.6201 49.5714 69.6201H51.7143V67.4772H45.2857C44.1491 67.4772 43.059 67.0257 42.2553 66.222C41.4515 65.4182 41 64.3281 41 63.1915V51.7629Z" fill="#A020F0"/>
<path d="M390.087 41C394.881 41 397.45 45.2111 397.45 51.781C397.45 56.291 396.367 59.4186 394.34 61.0943L398.996 60.7636V62.541H389.954C385.121 62.541 382.458 59.0344 382.458 51.7813C382.458 44.5276 385.59 41 390.086 41M364.368 41.3682L370.488 59.8937H370.554L376.697 41.3682H379.768V62.5302H378.034V43.0602L371.549 62.5302H369.549L362.976 43.0602V62.5302H361.225V41.3682H364.368ZM390.064 42.8252C386.324 42.8252 384.54 45.7555 384.54 51.7866C384.54 57.8176 385.954 60.7636 389.97 60.7636C393.986 60.7636 395.345 57.2464 395.345 51.7866C395.345 46.3268 393.804 42.8252 390.064 42.8252Z" fill="#A9B5AF"/>
<path d="M353.702 43.5352V47.9226H357.74V49.3849H353.707V58.7784C353.707 59.2 353.603 61.3775 355.994 61.3775C356.586 61.3716 357.174 61.2835 357.74 61.116V62.7331C357.205 62.8047 356.666 62.8494 356.127 62.8666C355.054 62.9294 353.991 62.6335 353.116 62.0286C352.453 61.495 352.128 60.5556 352.128 59.2693V49.3905H349.708V47.9281H352.128V44.5548L353.702 43.5352ZM319.311 41.363V50.6928H319.367C319.622 49.8024 320.174 49.0179 320.936 48.4604C321.699 47.9029 322.63 47.6033 323.587 47.6077C324.802 47.6077 328.834 48.3497 328.834 55.3947C328.834 62.4398 324.239 62.8669 322.979 62.8669C317.847 62.8669 317.718 57.5925 317.715 56.6078V41.363H319.311ZM332.883 41.363V50.6928H332.949C333.205 49.8024 333.756 49.0179 334.519 48.4604C335.282 47.9029 336.213 47.6033 337.169 47.6077C338.385 47.6077 342.417 48.3497 342.417 55.3947C342.417 62.4398 337.821 62.8669 336.562 62.8669C331.43 62.8669 331.301 57.5925 331.298 56.6078V41.363H332.883ZM310.385 47.5969C315.154 47.5969 315.111 50.9338 315.108 52.4687V62.5306H313.534V60.4648H313.467C312.953 61.2091 312.259 61.821 311.446 62.2476C310.622 62.6656 309.702 62.8766 308.772 62.8613C308.142 62.8613 304.905 62.7331 304.905 58.9597C304.905 55.1864 309.137 54.5352 311.727 54.343C312.32 54.2876 313.226 54.2803 313.46 54.2793H313.517V52.8582L313.517 52.8207V52.7433C313.515 51.5151 313.39 49.0592 310.236 49.0592C307.645 49.0592 307.27 50.575 307.093 51.4289H305.148C305.148 50.7353 305.518 47.5969 310.385 47.5969ZM295.416 41.4058C301.171 41.4058 302.425 44.3252 302.425 46.8231C302.425 49.545 301.089 51.5412 298.007 52.1228C298.007 52.1228 299.885 52.6564 300.542 53.6441C301.039 54.3911 301.282 55.1277 301.646 56.8462L302.889 62.5571H300.978L299.873 57.5507C299.525 56.1632 299.304 53.9908 297.366 53.281C296.71 53.0563 296.017 52.9479 295.322 52.9608H292.692V62.5303H290.792V41.4058H295.416ZM346.692 47.9279V62.5303H345.107V47.9279H346.692ZM323.41 49.0539C321.764 49.0539 319.372 50.7886 319.372 55.592C319.372 61.267 322.327 61.3805 322.944 61.3828H322.996C323.577 61.3797 326.923 61.201 326.923 55.3517L326.922 55.2182C326.886 50.6599 325.04 49.0539 323.41 49.0539ZM336.993 49.0539C335.347 49.0539 332.955 50.7886 332.955 55.592C332.955 61.267 335.909 61.3805 336.527 61.3828H336.579C337.16 61.3797 340.506 61.201 340.506 55.3517L340.5 55.3573C340.5 50.6925 338.639 49.0539 336.993 49.0539ZM313.512 55.7414L313.489 55.7417C313.232 55.7447 310.815 55.7745 310.203 55.8858C307.126 56.4565 306.817 58.2659 306.817 59.0399C306.815 59.3164 306.874 59.5901 306.989 59.8434C307.104 60.0967 307.272 60.3239 307.484 60.5104C307.695 60.6969 307.944 60.8387 308.216 60.9264C308.487 61.0142 308.774 61.046 309.059 61.0199C310.108 61.0225 311.123 60.6615 311.92 60.0024C312.717 59.3432 313.242 58.4298 313.401 57.4281C313.474 56.8686 313.511 56.3053 313.512 55.7414ZM295.2 43.0497H292.692V51.2742H294.427C300.321 51.2742 300.503 47.7516 300.503 46.7856V46.7502C300.497 45.5708 300.16 43.0497 295.2 43.0497ZM347.057 41.3683V43.8503H344.715V41.3683H347.057ZM286.164 49.7531H279.11C278.993 49.7538 278.878 49.7322 278.771 49.6896C278.663 49.6469 278.565 49.584 278.483 49.5046C278.401 49.4251 278.336 49.3307 278.292 49.2268C278.248 49.1229 278.225 49.0115 278.226 48.8992V42.0837C278.226 41.9718 278.203 41.861 278.159 41.7577C278.114 41.6544 278.049 41.5606 277.967 41.4817C277.885 41.4029 277.787 41.3405 277.68 41.2981C277.573 41.2558 277.458 41.2344 277.342 41.2351H274.702C274.586 41.2344 274.471 41.2558 274.364 41.2981C274.257 41.3405 274.16 41.4029 274.077 41.4817C273.995 41.5606 273.93 41.6544 273.886 41.7577C273.841 41.861 273.818 41.9718 273.818 42.0837V48.8992C273.819 49.0115 273.797 49.1229 273.752 49.2268C273.708 49.3307 273.643 49.4251 273.561 49.5046C273.479 49.584 273.381 49.6469 273.273 49.6896C273.166 49.7322 273.051 49.7538 272.934 49.7531H270.294C270.178 49.7538 270.062 49.7322 269.955 49.6895C269.847 49.6468 269.75 49.5839 269.667 49.5045C269.585 49.425 269.52 49.3306 269.476 49.2267C269.432 49.1228 269.409 49.0115 269.41 48.8992V42.0837C269.411 41.9714 269.389 41.86 269.345 41.756C269.3 41.6521 269.235 41.5576 269.153 41.4781C269.071 41.3987 268.973 41.3358 268.866 41.2931C268.758 41.2504 268.643 41.2288 268.526 41.2295H265.881C265.765 41.2295 265.65 41.2516 265.543 41.2946C265.436 41.3376 265.339 41.4006 265.257 41.48C265.176 41.5594 265.111 41.6536 265.067 41.7572C265.024 41.8609 265.001 41.9718 265.002 42.0837V61.6817C265.002 61.794 265.024 61.9054 265.068 62.0093C265.112 62.1132 265.177 62.2076 265.259 62.2871C265.342 62.3665 265.439 62.4294 265.547 62.4721C265.655 62.5147 265.77 62.5363 265.886 62.5356H286.163C286.28 62.5364 286.395 62.5148 286.502 62.4721C286.61 62.4295 286.708 62.3666 286.79 62.2872C286.872 62.2077 286.937 62.1133 286.982 62.0094C287.026 61.9054 287.048 61.794 287.047 61.6817V50.623C287.05 50.5093 287.03 50.3963 286.986 50.2905C286.943 50.1847 286.879 50.0884 286.796 50.0072C286.714 49.9261 286.615 49.8618 286.507 49.8181C286.398 49.7745 286.281 49.7524 286.164 49.7531ZM282.617 56.9904C282.618 57.1583 282.585 57.3248 282.518 57.4802C282.452 57.6356 282.355 57.7769 282.233 57.8959C282.11 58.0149 281.964 58.1094 281.804 58.1738C281.643 58.2382 281.471 58.2714 281.297 58.2714H279.53C279.356 58.2714 279.184 58.2382 279.023 58.1738C278.863 58.1093 278.717 58.0149 278.594 57.8959C278.472 57.7768 278.375 57.6356 278.309 57.4802C278.243 57.3248 278.209 57.1583 278.21 56.9904V55.2878C278.209 55.1198 278.243 54.9534 278.309 54.7981C278.375 54.6427 278.472 54.5015 278.594 54.3825C278.717 54.2635 278.863 54.1691 279.023 54.1046C279.184 54.0402 279.356 54.007 279.53 54.007H281.297C281.471 54.0069 281.643 54.0401 281.804 54.1045C281.964 54.1689 282.11 54.2633 282.233 54.3823C282.356 54.5013 282.453 54.6426 282.519 54.798C282.585 54.9533 282.618 55.1198 282.618 55.2878L282.617 56.9904Z" fill="#FF6600"/>
<path fill-rule="evenodd" clip-rule="evenodd" d="M63.8571 99.7144C63.0994 99.7144 62.3727 100.015 61.8368 100.551C61.301 101.087 61 101.814 61 102.571V103.911H62.4286C64.5124 103.911 66.5109 104.739 67.9844 106.213C69.4579 107.686 70.2857 109.685 70.2857 111.769V112.214H81V102.571C81 101.814 80.699 101.087 80.1632 100.551C79.6273 100.015 78.9006 99.7144 78.1429 99.7144H63.8571ZM63.5457 133.631C63.8445 132.766 63.9307 131.841 63.7971 130.934C65.6154 130.613 67.2624 129.661 68.4489 128.246C69.6354 126.831 70.2857 125.044 70.2857 123.197V115.786H81V131.143C81 131.901 80.699 132.627 80.1632 133.163C79.6273 133.699 78.9006 134 78.1429 134H65.2857C64.6863 134 64.0936 133.875 63.5457 133.631ZM77.2029 105.966C77.218 106.262 77.1727 106.559 77.0697 106.837C76.9667 107.115 76.8082 107.37 76.6037 107.585C76.3993 107.8 76.1532 107.972 75.8804 108.089C75.6077 108.206 75.314 108.266 75.0171 108.266C74.7203 108.266 74.4266 108.206 74.1539 108.089C73.8811 107.972 73.635 107.8 73.4306 107.585C73.2261 107.37 73.0676 107.115 72.9646 106.837C72.8616 106.559 72.8163 106.262 72.8314 105.966C72.8601 105.405 73.1029 104.877 73.5096 104.491C73.9164 104.105 74.4561 103.889 75.0171 103.889C75.5782 103.889 76.1179 104.105 76.5247 104.491C76.9314 104.877 77.1742 105.405 77.2029 105.966ZM41 111.763C41 110.626 41.4515 109.536 42.2553 108.732C43.059 107.929 44.1491 107.477 45.2857 107.477H62.4286C63.5652 107.477 64.6553 107.929 65.459 108.732C66.2628 109.536 66.7143 110.626 66.7143 111.763V123.191C66.7143 124.328 66.2628 125.418 65.459 126.222C64.6553 127.026 63.5652 127.477 62.4286 127.477H56V129.62H58.1429C58.7112 129.62 59.2562 129.846 59.6581 130.248C60.06 130.65 60.2857 131.195 60.2857 131.763C60.2857 132.331 60.06 132.876 59.6581 133.278C59.2562 133.68 58.7112 133.906 58.1429 133.906H49.5714C49.0031 133.906 48.4581 133.68 48.0562 133.278C47.6543 132.876 47.4286 132.331 47.4286 131.763C47.4286 131.195 47.6543 130.65 48.0562 130.248C48.4581 129.846 49.0031 129.62 49.5714 129.62H51.7143V127.477H45.2857C44.1491 127.477 43.059 127.026 42.2553 126.222C41.4515 125.418 41 124.328 41 123.191V111.763Z" fill="#A020F0"/>
<path d="M481.024 35.3335L490.333 44.6431V68.6669H463.667V35.3335H481.024ZM479.642 38.6669H467V65.3335H487V46.0251L479.642 38.6669ZM477.821 45.1693L479.438 45.5735L476.105 58.9069L474.488 58.5026L477.821 45.1693ZM472.183 47.3129L473.484 48.354L470.567 51.9985L473.484 55.6462L472.183 56.6874L468.433 52.0001L472.183 47.3129ZM481.824 47.3129L485.573 52.0001L481.824 56.6874L480.522 55.6462L483.44 51.9985L480.522 48.354L481.824 47.3129Z" fill="#A020F0"/>
<path fill-rule="evenodd" clip-rule="evenodd" d="M63.8571 159.714C63.0994 159.714 62.3727 160.015 61.8368 160.551C61.301 161.087 61 161.814 61 162.571V163.911H62.4286C64.5124 163.911 66.5109 164.739 67.9844 166.213C69.4579 167.686 70.2857 169.685 70.2857 171.769V172.214H81V162.571C81 161.814 80.699 161.087 80.1632 160.551C79.6273 160.015 78.9006 159.714 78.1429 159.714H63.8571ZM63.5457 193.631C63.8445 192.766 63.9307 191.841 63.7971 190.934C65.6154 190.613 67.2624 189.661 68.4489 188.246C69.6354 186.831 70.2857 185.044 70.2857 183.197V175.786H81V191.143C81 191.901 80.699 192.627 80.1632 193.163C79.6273 193.699 78.9006 194 78.1429 194H65.2857C64.6863 194 64.0936 193.875 63.5457 193.631ZM77.2029 165.966C77.218 166.262 77.1727 166.559 77.0697 166.837C76.9667 167.115 76.8082 167.37 76.6037 167.585C76.3993 167.8 76.1532 167.972 75.8804 168.089C75.6077 168.206 75.314 168.266 75.0171 168.266C74.7203 168.266 74.4266 168.206 74.1539 168.089C73.8811 167.972 73.635 167.8 73.4306 167.585C73.2261 167.37 73.0676 167.115 72.9646 166.837C72.8616 166.559 72.8163 166.262 72.8314 165.966C72.8601 165.405 73.1029 164.877 73.5096 164.491C73.9164 164.105 74.4561 163.889 75.0171 163.889C75.5782 163.889 76.1179 164.105 76.5247 164.491C76.9314 164.877 77.1742 165.405 77.2029 165.966ZM41 171.763C41 170.626 41.4515 169.536 42.2553 168.732C43.059 167.929 44.1491 167.477 45.2857 167.477H62.4286C63.5652 167.477 64.6553 167.929 65.459 168.732C66.2628 169.536 66.7143 170.626 66.7143 171.763V183.191C66.7143 184.328 66.2628 185.418 65.459 186.222C64.6553 187.026 63.5652 187.477 62.4286 187.477H56V189.62H58.1429C58.7112 189.62 59.2562 189.846 59.6581 190.248C60.06 190.65 60.2857 191.195 60.2857 191.763C60.2857 192.331 60.06 192.876 59.6581 193.278C59.2562 193.68 58.7112 193.906 58.1429 193.906H49.5714C49.0031 193.906 48.4581 193.68 48.0562 193.278C47.6543 192.876 47.4286 192.331 47.4286 191.763C47.4286 191.195 47.6543 190.65 48.0562 190.248C48.4581 189.846 49.0031 189.62 49.5714 189.62H51.7143V187.477H45.2857C44.1491 187.477 43.059 187.026 42.2553 186.222C41.4515 185.418 41 184.328 41 183.191V171.763Z" fill="#A020F0"/>
<path d="M441.159 72.1422L435.856 77.4455V66.8389L441.159 72.1422Z" fill="#3F51B5"/>
<path d="M422.792 73.7991L422.792 70.4663L436.415 70.4666L436.415 73.7991L422.792 73.7991Z" fill="#3F51B5"/>
<line x1="169.217" y1="117.032" x2="90.492" y2="57.004" stroke="black" stroke-dasharray="2 2"/>
<path d="M249.083 81.9165V89.4165L241.583 81.9165H249.083Z" fill="#3F51B5"/>
<path d="M237.267 96.076L234.91 93.7193L244.544 84.0864L246.9 86.4431L237.267 96.076Z" fill="#3F51B5"/>
<line x1="89" y1="116.5" x2="169" y2="116.5" stroke="black" stroke-dasharray="2 2"/>
<line x1="88.7014" y1="176.322" x2="168.909" y2="116.599" stroke="black" stroke-dasharray="2 2"/>
<line x1="211.701" y1="93.3216" x2="259.826" y2="57.4879" stroke="black" stroke-dasharray="2 2"/>
<line x1="406" y1="56.5" x2="456" y2="56.5" stroke="black" stroke-dasharray="2 2"/>
<line x1="477.5" y1="114" x2="477.5" y2="74" stroke="black" stroke-dasharray="2 2"/>
<path d="M180.75 84C179.755 84 178.802 84.3951 178.098 85.0983C177.395 85.8016 177 86.7554 177 87.75V140.25C177 141.245 177.395 142.198 178.098 142.902C178.802 143.605 179.755 144 180.75 144H203.25C204.245 144 205.198 143.605 205.902 142.902C206.605 142.198 207 141.245 207 140.25V87.75C207 86.7554 206.605 85.8016 205.902 85.0983C205.198 84.3951 204.245 84 203.25 84H180.75ZM182.625 136.5C183.122 136.5 183.599 136.698 183.951 137.049C184.302 137.401 184.5 137.878 184.5 138.375C184.5 138.872 184.302 139.349 183.951 139.701C183.599 140.052 183.122 140.25 182.625 140.25C182.128 140.25 181.651 140.052 181.299 139.701C180.948 139.349 180.75 138.872 180.75 138.375C180.75 137.878 180.948 137.401 181.299 137.049C181.651 136.698 182.128 136.5 182.625 136.5ZM190.125 136.5C190.622 136.5 191.099 136.698 191.451 137.049C191.802 137.401 192 137.878 192 138.375C192 138.872 191.802 139.349 191.451 139.701C191.099 140.052 190.622 140.25 190.125 140.25C189.628 140.25 189.151 140.052 188.799 139.701C188.448 139.349 188.25 138.872 188.25 138.375C188.25 137.878 188.448 137.401 188.799 137.049C189.151 136.698 189.628 136.5 190.125 136.5ZM180.75 89.625C180.75 89.1277 180.948 88.6508 181.299 88.2992C181.651 87.9475 182.128 87.75 182.625 87.75H201.375C201.872 87.75 202.349 87.9475 202.701 88.2992C203.052 88.6508 203.25 89.1277 203.25 89.625C203.25 90.1223 203.052 90.5992 202.701 90.9508C202.349 91.3025 201.872 91.5 201.375 91.5H182.625C182.128 91.5 181.651 91.3025 181.299 90.9508C180.948 90.5992 180.75 90.1223 180.75 89.625ZM182.625 95.25H201.375C201.872 95.25 202.349 95.4475 202.701 95.7992C203.052 96.1508 203.25 96.6277 203.25 97.125C203.25 97.6223 203.052 98.0992 202.701 98.4508C202.349 98.8025 201.872 99 201.375 99H182.625C182.128 99 181.651 98.8025 181.299 98.4508C180.948 98.0992 180.75 97.6223 180.75 97.125C180.75 96.6277 180.948 96.1508 181.299 95.7992C181.651 95.4475 182.128 95.25 182.625 95.25Z" fill="#A020F0"/>
<path d="M491.333 147C491.333 150.683 485.363 153.667 478 153.667C470.637 153.667 464.667 150.683 464.667 147V140.29C465.503 141.318 466.692 142.172 468.013 142.832C470.633 144.142 474.167 144.917 478 144.917C481.833 144.917 485.367 144.142 487.987 142.833C489.308 142.172 490.497 141.317 491.333 140.29V147Z" fill="#A020F0"/>
<path d="M478 134.917C481.833 134.917 485.367 134.142 487.987 132.833C489.308 132.172 490.497 131.317 491.333 130.29V137C491.333 137.833 488.357 139.652 486.868 140.597C484.663 141.698 481.53 142.417 478 142.417C474.47 142.417 471.337 141.7 469.132 140.597C467.167 139.613 464.667 137.833 464.667 137V130.29C465.503 131.318 466.692 132.172 468.013 132.832C470.633 134.142 474.167 134.917 478 134.917Z" fill="#A020F0"/>
<path d="M486.868 130.597C484.663 131.698 481.53 132.417 478 132.417C474.47 132.417 471.337 131.7 469.132 130.597C468.273 130.26 466.343 129.192 465.003 127.465C464.889 127.321 464.806 127.154 464.76 126.976C464.714 126.798 464.704 126.612 464.733 126.43C464.772 126.183 464.825 125.928 464.893 125.77C466.047 122.677 471.477 120.333 478 120.333C484.523 120.333 489.953 122.677 491.107 125.77C491.175 125.928 491.228 126.183 491.267 126.43C491.296 126.612 491.286 126.798 491.24 126.976C491.194 127.154 491.111 127.321 490.997 127.465C489.657 129.192 487.727 130.26 486.868 130.597Z" fill="#A020F0"/>
<path d="M238.667 69.3335H225.333C224.417 69.3335 223.675 70.0835 223.675 71.0002L223.667 81.0002C223.667 81.9168 224.417 82.6668 225.333 82.6668H238.667C239.583 82.6668 240.333 81.9168 240.333 81.0002V71.0002C240.333 70.0835 239.583 69.3335 238.667 69.3335ZM238.667 72.6668L232 76.8335L225.333 72.6668V71.0002L232 75.1668L238.667 71.0002V72.6668Z" fill="#A020F0"/>
<path d="M437.667 49.3335H424.333C423.417 49.3335 422.675 50.0835 422.675 51.0002L422.667 61.0002C422.667 61.9168 423.417 62.6668 424.333 62.6668H437.667C438.583 62.6668 439.333 61.9168 439.333 61.0002V51.0002C439.333 50.0835 438.583 49.3335 437.667 49.3335ZM437.667 52.6668L431 56.8335L424.333 52.6668V51.0002L431 55.1668L437.667 51.0002V52.6668Z" fill="#A020F0"/>
</svg>
