<svg width="383" height="318" viewBox="0 0 383 318" fill="none" xmlns="http://www.w3.org/2000/svg">
<rect width="383" height="318" fill="white"/>
<path d="M70.8025 251.947C69.3963 250.541 67.489 249.75 65.5 249.75H50.5C48.5109 249.75 46.6032 250.54 45.1967 251.947C43.7902 253.353 43 255.261 43 257.25V294.75C43 296.739 43.7902 298.647 45.1967 300.053C46.6032 301.46 48.5109 302.25 50.5 302.25H65.5C67.4891 302.25 69.3968 301.46 70.8033 300.053C72.2098 298.647 73 296.739 73 294.75V257.25C72.9996 255.261 72.2091 253.354 70.8025 251.947ZM64.9487 294.203C64.7743 294.377 64.5673 294.514 64.3395 294.608C64.1117 294.702 63.8676 294.75 63.6212 294.75H52.3713C51.874 294.75 51.3971 294.552 51.0454 294.201C50.6938 293.849 50.4963 293.372 50.4963 292.875C50.4963 292.378 50.6938 291.901 51.0454 291.549C51.3971 291.198 51.874 291 52.3713 291H63.6212C63.9926 290.999 64.3557 291.109 64.6647 291.315C64.9737 291.521 65.2145 291.814 65.3567 292.157C65.4989 292.5 65.536 292.878 65.4634 293.242C65.3908 293.606 65.2116 293.94 64.9487 294.203ZM64.9487 286.703C64.7743 286.877 64.5673 287.014 64.3395 287.108C64.1117 287.202 63.8676 287.25 63.6212 287.25H52.3713C51.874 287.25 51.3971 287.052 51.0454 286.701C50.6938 286.349 50.4963 285.872 50.4963 285.375C50.4963 284.878 50.6938 284.401 51.0454 284.049C51.3971 283.698 51.874 283.5 52.3713 283.5H63.6212C63.9926 283.499 64.3557 283.609 64.6647 283.815C64.9737 284.021 65.2145 284.314 65.3567 284.657C65.4989 285 65.536 285.378 65.4634 285.742C65.3908 286.106 65.2116 286.44 64.9487 286.703ZM64.9487 264.203C64.7743 264.377 64.5673 264.514 64.3395 264.608C64.1117 264.702 63.8676 264.75 63.6212 264.75H52.3713C51.874 264.75 51.3971 264.552 51.0454 264.201C50.6938 263.849 50.4963 263.372 50.4963 262.875C50.4963 262.378 50.6938 261.901 51.0454 261.549C51.3971 261.198 51.874 261 52.3713 261H63.6212C63.9926 260.999 64.3557 261.109 64.6647 261.315C64.9737 261.521 65.2145 261.814 65.3567 262.157C65.4989 262.5 65.536 262.878 65.4634 263.242C65.3908 263.606 65.2116 263.94 64.9487 264.203Z" fill="#A020F0"/>
<path d="M217.802 163.947C216.396 162.541 214.489 161.75 212.5 161.75H197.5C195.511 161.75 193.603 162.54 192.197 163.947C190.79 165.353 190 167.261 190 169.25V206.75C190 208.739 190.79 210.647 192.197 212.053C193.603 213.46 195.511 214.25 197.5 214.25H212.5C214.489 214.25 216.397 213.46 217.803 212.053C219.21 210.647 220 208.739 220 206.75V169.25C220 167.261 219.209 165.354 217.802 163.947ZM211.949 206.203C211.774 206.377 211.567 206.514 211.339 206.608C211.112 206.702 210.868 206.75 210.621 206.75H199.371C198.874 206.75 198.397 206.552 198.045 206.201C197.694 205.849 197.496 205.372 197.496 204.875C197.496 204.378 197.694 203.901 198.045 203.549C198.397 203.198 198.874 203 199.371 203H210.621C210.993 202.999 211.356 203.109 211.665 203.315C211.974 203.521 212.215 203.814 212.357 204.157C212.499 204.5 212.536 204.878 212.463 205.242C212.391 205.606 212.212 205.94 211.949 206.203ZM211.949 198.703C211.774 198.877 211.567 199.014 211.339 199.108C211.112 199.202 210.868 199.25 210.621 199.25H199.371C198.874 199.25 198.397 199.052 198.045 198.701C197.694 198.349 197.496 197.872 197.496 197.375C197.496 196.878 197.694 196.401 198.045 196.049C198.397 195.698 198.874 195.5 199.371 195.5H210.621C210.993 195.499 211.356 195.609 211.665 195.815C211.974 196.021 212.215 196.314 212.357 196.657C212.499 197 212.536 197.378 212.463 197.742C212.391 198.106 212.212 198.44 211.949 198.703ZM211.949 176.203C211.774 176.377 211.567 176.514 211.339 176.608C211.112 176.702 210.868 176.75 210.621 176.75H199.371C198.874 176.75 198.397 176.552 198.045 176.201C197.694 175.849 197.496 175.372 197.496 174.875C197.496 174.378 197.694 173.901 198.045 173.549C198.397 173.198 198.874 173 199.371 173H210.621C210.993 172.999 211.356 173.109 211.665 173.315C211.974 173.521 212.215 173.814 212.357 174.157C212.499 174.5 212.536 174.878 212.463 175.242C212.391 175.606 212.212 175.94 211.949 176.203Z" fill="#A020F0"/>
<path d="M277.802 163.947C276.396 162.541 274.489 161.75 272.5 161.75H257.5C255.511 161.75 253.603 162.54 252.197 163.947C250.79 165.353 250 167.261 250 169.25V206.75C250 208.739 250.79 210.647 252.197 212.053C253.603 213.46 255.511 214.25 257.5 214.25H272.5C274.489 214.25 276.397 213.46 277.803 212.053C279.21 210.647 280 208.739 280 206.75V169.25C280 167.261 279.209 165.354 277.802 163.947ZM271.949 206.203C271.774 206.377 271.567 206.514 271.339 206.608C271.112 206.702 270.868 206.75 270.621 206.75H259.371C258.874 206.75 258.397 206.552 258.045 206.201C257.694 205.849 257.496 205.372 257.496 204.875C257.496 204.378 257.694 203.901 258.045 203.549C258.397 203.198 258.874 203 259.371 203H270.621C270.993 202.999 271.356 203.109 271.665 203.315C271.974 203.521 272.215 203.814 272.357 204.157C272.499 204.5 272.536 204.878 272.463 205.242C272.391 205.606 272.212 205.94 271.949 206.203ZM271.949 198.703C271.774 198.877 271.567 199.014 271.339 199.108C271.112 199.202 270.868 199.25 270.621 199.25H259.371C258.874 199.25 258.397 199.052 258.045 198.701C257.694 198.349 257.496 197.872 257.496 197.375C257.496 196.878 257.694 196.401 258.045 196.049C258.397 195.698 258.874 195.5 259.371 195.5H270.621C270.993 195.499 271.356 195.609 271.665 195.815C271.974 196.021 272.215 196.314 272.357 196.657C272.499 197 272.536 197.378 272.463 197.742C272.391 198.106 272.212 198.44 271.949 198.703ZM271.949 176.203C271.774 176.377 271.567 176.514 271.339 176.608C271.112 176.702 270.868 176.75 270.621 176.75H259.371C258.874 176.75 258.397 176.552 258.045 176.201C257.694 175.849 257.496 175.372 257.496 174.875C257.496 174.378 257.694 173.901 258.045 173.549C258.397 173.198 258.874 173 259.371 173H270.621C270.993 172.999 271.356 173.109 271.665 173.315C271.974 173.521 272.215 173.814 272.357 174.157C272.499 174.5 272.536 174.878 272.463 175.242C272.391 175.606 272.212 175.94 271.949 176.203Z" fill="#A020F0"/>
<path d="M337.802 163.947C336.396 162.541 334.489 161.75 332.5 161.75H317.5C315.511 161.75 313.603 162.54 312.197 163.947C310.79 165.353 310 167.261 310 169.25V206.75C310 208.739 310.79 210.647 312.197 212.053C313.603 213.46 315.511 214.25 317.5 214.25H332.5C334.489 214.25 336.397 213.46 337.803 212.053C339.21 210.647 340 208.739 340 206.75V169.25C340 167.261 339.209 165.354 337.802 163.947ZM331.949 206.203C331.774 206.377 331.567 206.514 331.339 206.608C331.112 206.702 330.868 206.75 330.621 206.75H319.371C318.874 206.75 318.397 206.552 318.045 206.201C317.694 205.849 317.496 205.372 317.496 204.875C317.496 204.378 317.694 203.901 318.045 203.549C318.397 203.198 318.874 203 319.371 203H330.621C330.993 202.999 331.356 203.109 331.665 203.315C331.974 203.521 332.215 203.814 332.357 204.157C332.499 204.5 332.536 204.878 332.463 205.242C332.391 205.606 332.212 205.94 331.949 206.203ZM331.949 198.703C331.774 198.877 331.567 199.014 331.339 199.108C331.112 199.202 330.868 199.25 330.621 199.25H319.371C318.874 199.25 318.397 199.052 318.045 198.701C317.694 198.349 317.496 197.872 317.496 197.375C317.496 196.878 317.694 196.401 318.045 196.049C318.397 195.698 318.874 195.5 319.371 195.5H330.621C330.993 195.499 331.356 195.609 331.665 195.815C331.974 196.021 332.215 196.314 332.357 196.657C332.499 197 332.536 197.378 332.463 197.742C332.391 198.106 332.212 198.44 331.949 198.703ZM331.949 176.203C331.774 176.377 331.567 176.514 331.339 176.608C331.112 176.702 330.868 176.75 330.621 176.75H319.371C318.874 176.75 318.397 176.552 318.045 176.201C317.694 175.849 317.496 175.372 317.496 174.875C317.496 174.378 317.694 173.901 318.045 173.549C318.397 173.198 318.874 173 319.371 173H330.621C330.993 172.999 331.356 173.109 331.665 173.315C331.974 173.521 332.215 173.814 332.357 174.157C332.499 174.5 332.536 174.878 332.463 175.242C332.391 175.606 332.212 175.94 331.949 176.203Z" fill="#A020F0"/>
<path d="M217.802 231.947C216.396 230.541 214.489 229.75 212.5 229.75H197.5C195.511 229.75 193.603 230.54 192.197 231.947C190.79 233.353 190 235.261 190 237.25V274.75C190 276.739 190.79 278.647 192.197 280.053C193.603 281.46 195.511 282.25 197.5 282.25H212.5C214.489 282.25 216.397 281.46 217.803 280.053C219.21 278.647 220 276.739 220 274.75V237.25C220 235.261 219.209 233.354 217.802 231.947ZM211.949 274.203C211.774 274.377 211.567 274.514 211.339 274.608C211.112 274.702 210.868 274.75 210.621 274.75H199.371C198.874 274.75 198.397 274.552 198.045 274.201C197.694 273.849 197.496 273.372 197.496 272.875C197.496 272.378 197.694 271.901 198.045 271.549C198.397 271.198 198.874 271 199.371 271H210.621C210.993 270.999 211.356 271.109 211.665 271.315C211.974 271.521 212.215 271.814 212.357 272.157C212.499 272.5 212.536 272.878 212.463 273.242C212.391 273.606 212.212 273.94 211.949 274.203ZM211.949 266.703C211.774 266.877 211.567 267.014 211.339 267.108C211.112 267.202 210.868 267.25 210.621 267.25H199.371C198.874 267.25 198.397 267.052 198.045 266.701C197.694 266.349 197.496 265.872 197.496 265.375C197.496 264.878 197.694 264.401 198.045 264.049C198.397 263.698 198.874 263.5 199.371 263.5H210.621C210.993 263.499 211.356 263.609 211.665 263.815C211.974 264.021 212.215 264.314 212.357 264.657C212.499 265 212.536 265.378 212.463 265.742C212.391 266.106 212.212 266.44 211.949 266.703ZM211.949 244.203C211.774 244.377 211.567 244.514 211.339 244.608C211.112 244.702 210.868 244.75 210.621 244.75H199.371C198.874 244.75 198.397 244.552 198.045 244.201C197.694 243.849 197.496 243.372 197.496 242.875C197.496 242.378 197.694 241.901 198.045 241.549C198.397 241.198 198.874 241 199.371 241H210.621C210.993 240.999 211.356 241.109 211.665 241.315C211.974 241.521 212.215 241.814 212.357 242.157C212.499 242.5 212.536 242.878 212.463 243.242C212.391 243.606 212.212 243.94 211.949 244.203Z" fill="#A020F0"/>
<path d="M277.802 231.947C276.396 230.541 274.489 229.75 272.5 229.75H257.5C255.511 229.75 253.603 230.54 252.197 231.947C250.79 233.353 250 235.261 250 237.25V274.75C250 276.739 250.79 278.647 252.197 280.053C253.603 281.46 255.511 282.25 257.5 282.25H272.5C274.489 282.25 276.397 281.46 277.803 280.053C279.21 278.647 280 276.739 280 274.75V237.25C280 235.261 279.209 233.354 277.802 231.947ZM271.949 274.203C271.774 274.377 271.567 274.514 271.339 274.608C271.112 274.702 270.868 274.75 270.621 274.75H259.371C258.874 274.75 258.397 274.552 258.045 274.201C257.694 273.849 257.496 273.372 257.496 272.875C257.496 272.378 257.694 271.901 258.045 271.549C258.397 271.198 258.874 271 259.371 271H270.621C270.993 270.999 271.356 271.109 271.665 271.315C271.974 271.521 272.215 271.814 272.357 272.157C272.499 272.5 272.536 272.878 272.463 273.242C272.391 273.606 272.212 273.94 271.949 274.203ZM271.949 266.703C271.774 266.877 271.567 267.014 271.339 267.108C271.112 267.202 270.868 267.25 270.621 267.25H259.371C258.874 267.25 258.397 267.052 258.045 266.701C257.694 266.349 257.496 265.872 257.496 265.375C257.496 264.878 257.694 264.401 258.045 264.049C258.397 263.698 258.874 263.5 259.371 263.5H270.621C270.993 263.499 271.356 263.609 271.665 263.815C271.974 264.021 272.215 264.314 272.357 264.657C272.499 265 272.536 265.378 272.463 265.742C272.391 266.106 272.212 266.44 271.949 266.703ZM271.949 244.203C271.774 244.377 271.567 244.514 271.339 244.608C271.112 244.702 270.868 244.75 270.621 244.75H259.371C258.874 244.75 258.397 244.552 258.045 244.201C257.694 243.849 257.496 243.372 257.496 242.875C257.496 242.378 257.694 241.901 258.045 241.549C258.397 241.198 258.874 241 259.371 241H270.621C270.993 240.999 271.356 241.109 271.665 241.315C271.974 241.521 272.215 241.814 272.357 242.157C272.499 242.5 272.536 242.878 272.463 243.242C272.391 243.606 272.212 243.94 271.949 244.203Z" fill="#A020F0"/>
<path d="M337.802 231.947C336.396 230.541 334.489 229.75 332.5 229.75H317.5C315.511 229.75 313.603 230.54 312.197 231.947C310.79 233.353 310 235.261 310 237.25V274.75C310 276.739 310.79 278.647 312.197 280.053C313.603 281.46 315.511 282.25 317.5 282.25H332.5C334.489 282.25 336.397 281.46 337.803 280.053C339.21 278.647 340 276.739 340 274.75V237.25C340 235.261 339.209 233.354 337.802 231.947ZM331.949 274.203C331.774 274.377 331.567 274.514 331.339 274.608C331.112 274.702 330.868 274.75 330.621 274.75H319.371C318.874 274.75 318.397 274.552 318.045 274.201C317.694 273.849 317.496 273.372 317.496 272.875C317.496 272.378 317.694 271.901 318.045 271.549C318.397 271.198 318.874 271 319.371 271H330.621C330.993 270.999 331.356 271.109 331.665 271.315C331.974 271.521 332.215 271.814 332.357 272.157C332.499 272.5 332.536 272.878 332.463 273.242C332.391 273.606 332.212 273.94 331.949 274.203ZM331.949 266.703C331.774 266.877 331.567 267.014 331.339 267.108C331.112 267.202 330.868 267.25 330.621 267.25H319.371C318.874 267.25 318.397 267.052 318.045 266.701C317.694 266.349 317.496 265.872 317.496 265.375C317.496 264.878 317.694 264.401 318.045 264.049C318.397 263.698 318.874 263.5 319.371 263.5H330.621C330.993 263.499 331.356 263.609 331.665 263.815C331.974 264.021 332.215 264.314 332.357 264.657C332.499 265 332.536 265.378 332.463 265.742C332.391 266.106 332.212 266.44 331.949 266.703ZM331.949 244.203C331.774 244.377 331.567 244.514 331.339 244.608C331.112 244.702 330.868 244.75 330.621 244.75H319.371C318.874 244.75 318.397 244.552 318.045 244.201C317.694 243.849 317.496 243.372 317.496 242.875C317.496 242.378 317.694 241.901 318.045 241.549C318.397 241.198 318.874 241 319.371 241H330.621C330.993 240.999 331.356 241.109 331.665 241.315C331.974 241.521 332.215 241.814 332.357 242.157C332.499 242.5 332.536 242.878 332.463 243.242C332.391 243.606 332.212 243.94 331.949 244.203Z" fill="#A020F0"/>
<path d="M75.07 167.93C73.1951 166.055 70.6519 165.001 68 165H48C45.3478 165 42.8043 166.054 40.9289 167.929C39.0536 169.804 38 172.348 38 175V225C38 227.652 39.0536 230.196 40.9289 232.071C42.8043 233.946 45.3478 235 48 235H68C70.6522 235 73.1957 233.946 75.0711 232.071C76.9464 230.196 78 227.652 78 225V175C77.9994 172.348 76.9455 169.805 75.07 167.93ZM67.265 224.27C67.0324 224.502 66.7564 224.686 66.4527 224.811C66.1489 224.936 65.8235 225.001 65.495 225H50.495C49.832 225 49.1961 224.737 48.7272 224.268C48.2584 223.799 47.995 223.163 47.995 222.5C47.995 221.837 48.2584 221.201 48.7272 220.732C49.1961 220.263 49.832 220 50.495 220H65.495C65.9901 219.999 66.4743 220.145 66.8863 220.42C67.2982 220.695 67.6193 221.085 67.8089 221.543C67.9985 222 68.048 222.503 67.9512 222.989C67.8544 223.474 67.6155 223.92 67.265 224.27ZM67.265 214.27C67.0324 214.502 66.7564 214.686 66.4527 214.811C66.1489 214.936 65.8235 215.001 65.495 215H50.495C49.832 215 49.1961 214.737 48.7272 214.268C48.2584 213.799 47.995 213.163 47.995 212.5C47.995 211.837 48.2584 211.201 48.7272 210.732C49.1961 210.263 49.832 210 50.495 210H65.495C65.9901 209.999 66.4743 210.145 66.8863 210.42C67.2982 210.695 67.6193 211.085 67.8089 211.543C67.9985 212 68.048 212.503 67.9512 212.989C67.8544 213.474 67.6155 213.92 67.265 214.27ZM67.265 184.27C67.0324 184.502 66.7564 184.686 66.4527 184.811C66.1489 184.936 65.8235 185.001 65.495 185H50.495C49.832 185 49.1961 184.737 48.7272 184.268C48.2584 183.799 47.995 183.163 47.995 182.5C47.995 181.837 48.2584 181.201 48.7272 180.732C49.1961 180.263 49.832 180 50.495 180H65.495C65.9901 179.999 66.4743 180.145 66.8863 180.42C67.2982 180.695 67.6193 181.085 67.8089 181.543C67.9985 182 68.048 182.503 67.9512 182.989C67.8544 183.474 67.6155 183.92 67.265 184.27Z" fill="#A020F0"/>
<path d="M79.3375 69.9125C76.9938 67.5681 73.8149 66.2507 70.5 66.25H45.5C42.1848 66.25 39.0054 67.567 36.6612 69.9112C34.317 72.2554 33 75.4348 33 78.75V141.25C33 144.565 34.317 147.745 36.6612 150.089C39.0054 152.433 42.1848 153.75 45.5 153.75H70.5C73.8152 153.75 76.9946 152.433 79.3388 150.089C81.683 147.745 83 144.565 83 141.25V78.75C82.9993 75.4351 81.6819 72.2562 79.3375 69.9125ZM69.5812 140.338C69.2905 140.628 68.9455 140.857 68.5658 141.014C68.1862 141.171 67.7794 141.251 67.3687 141.25H48.6188C47.7899 141.25 46.9951 140.921 46.409 140.335C45.823 139.749 45.4938 138.954 45.4938 138.125C45.4938 137.296 45.823 136.501 46.409 135.915C46.9951 135.329 47.7899 135 48.6188 135H67.3687C67.9876 134.999 68.5929 135.182 69.1078 135.525C69.6228 135.868 70.0242 136.357 70.2612 136.928C70.4981 137.5 70.56 138.129 70.439 138.736C70.3179 139.343 70.0194 139.9 69.5812 140.338ZM69.5812 127.838C69.2905 128.128 68.9455 128.357 68.5658 128.514C68.1862 128.671 67.7794 128.751 67.3687 128.75H48.6188C47.7899 128.75 46.9951 128.421 46.409 127.835C45.823 127.249 45.4938 126.454 45.4938 125.625C45.4938 124.796 45.823 124.001 46.409 123.415C46.9951 122.829 47.7899 122.5 48.6188 122.5H67.3687C67.9876 122.499 68.5929 122.682 69.1078 123.025C69.6228 123.368 70.0242 123.857 70.2612 124.428C70.4981 125 70.56 125.629 70.439 126.236C70.3179 126.843 70.0194 127.4 69.5812 127.838ZM69.5812 90.3375C69.2905 90.6275 68.9455 90.8574 68.5658 91.0139C68.1862 91.1705 67.7794 91.2507 67.3687 91.25H48.6188C47.7899 91.25 46.9951 90.9208 46.409 90.3347C45.823 89.7487 45.4938 88.9538 45.4938 88.125C45.4938 87.2962 45.823 86.5013 46.409 85.9153C46.9951 85.3292 47.7899 85 48.6188 85H67.3687C67.9876 84.9989 68.5929 85.1816 69.1078 85.5249C69.6228 85.8682 70.0242 86.3566 70.2612 86.9284C70.4981 87.5001 70.56 88.1293 70.439 88.7362C70.3179 89.3431 70.0194 89.9004 69.5812 90.3375Z" fill="#A020F0"/>
<path d="M22.2371 28.684C22.6851 28.684 23.1371 28.688 23.5931 28.696C24.0491 28.696 24.4971 28.704 24.9371 28.72C25.3771 28.736 25.7891 28.764 26.1731 28.804L26.0891 30.136H22.9091C22.7091 30.136 22.5571 30.188 22.4531 30.292C22.3571 30.396 22.3091 30.548 22.3091 30.748V34.972C22.3091 35.172 22.3571 35.324 22.4531 35.428C22.5571 35.532 22.7091 35.584 22.9091 35.584H26.0891L26.1731 36.916C25.7891 36.948 25.3771 36.976 24.9371 37C24.4971 37.016 24.0491 37.024 23.5931 37.024C23.1371 37.032 22.6851 37.036 22.2371 37.036C21.7091 37.036 21.2811 36.884 20.9531 36.58C20.6331 36.268 20.4731 35.864 20.4731 35.368V30.352C20.4731 29.848 20.6331 29.444 20.9531 29.14C21.2811 28.836 21.7091 28.684 22.2371 28.684ZM20.6891 32.044H25.6451V33.34H20.6891V32.044ZM29.6186 30.916C29.9066 30.916 30.2186 30.928 30.5546 30.952C30.8906 30.968 31.2186 30.992 31.5386 31.024C31.8586 31.056 32.1426 31.096 32.3906 31.144L32.2706 32.248C31.8866 32.24 31.4986 32.236 31.1066 32.236C30.7226 32.228 30.3466 32.224 29.9786 32.224C29.6666 32.216 29.4266 32.22 29.2586 32.236C29.0906 32.252 28.9706 32.292 28.8986 32.356C28.8346 32.412 28.8026 32.516 28.8026 32.668C28.8026 32.844 28.8626 32.964 28.9826 33.028C29.1026 33.084 29.3026 33.148 29.5826 33.22L31.1306 33.592C31.6266 33.72 31.9946 33.912 32.2346 34.168C32.4746 34.416 32.5946 34.792 32.5946 35.296C32.5946 35.792 32.5026 36.172 32.3186 36.436C32.1346 36.7 31.8426 36.884 31.4426 36.988C31.0426 37.084 30.5266 37.132 29.8946 37.132C29.6466 37.132 29.2786 37.12 28.7906 37.096C28.3026 37.072 27.7666 37.012 27.1826 36.916L27.3026 35.812C27.4466 35.82 27.6306 35.828 27.8546 35.836C28.0786 35.836 28.3226 35.836 28.5866 35.836C28.8506 35.836 29.1146 35.836 29.3786 35.836C29.7866 35.836 30.0986 35.828 30.3146 35.812C30.5306 35.788 30.6786 35.74 30.7586 35.668C30.8386 35.596 30.8786 35.488 30.8786 35.344C30.8786 35.168 30.8106 35.048 30.6746 34.984C30.5386 34.92 30.3226 34.852 30.0266 34.78L28.5266 34.408C28.1506 34.304 27.8586 34.172 27.6506 34.012C27.4426 33.852 27.2946 33.656 27.2066 33.424C27.1266 33.192 27.0866 32.916 27.0866 32.596C27.0866 32.188 27.1666 31.864 27.3266 31.624C27.4946 31.376 27.7626 31.196 28.1306 31.084C28.5066 30.972 29.0026 30.916 29.6186 30.916ZM36.4976 30.916C36.7136 30.916 36.9496 30.928 37.2056 30.952C37.4616 30.968 37.7176 31.004 37.9736 31.06C38.2376 31.108 38.4776 31.18 38.6936 31.276L38.5016 32.392C38.1816 32.384 37.8736 32.376 37.5776 32.368C37.2896 32.36 37.0296 32.356 36.7976 32.356C36.4376 32.356 36.1536 32.404 35.9456 32.5C35.7376 32.596 35.5856 32.768 35.4896 33.016C35.4016 33.256 35.3576 33.592 35.3576 34.024C35.3576 34.464 35.4016 34.808 35.4896 35.056C35.5856 35.304 35.7376 35.476 35.9456 35.572C36.1536 35.668 36.4376 35.716 36.7976 35.716C36.9256 35.716 37.0896 35.712 37.2896 35.704C37.4896 35.696 37.7056 35.688 37.9376 35.68C38.1696 35.664 38.3976 35.64 38.6216 35.608L38.7896 36.736C38.4696 36.88 38.1056 36.984 37.6976 37.048C37.2896 37.112 36.8856 37.144 36.4856 37.144C35.7496 37.144 35.1616 37.044 34.7216 36.844C34.2896 36.636 33.9776 36.304 33.7856 35.848C33.5936 35.392 33.4976 34.784 33.4976 34.024C33.4976 33.264 33.5936 32.656 33.7856 32.2C33.9856 31.744 34.3056 31.416 34.7456 31.216C35.1856 31.016 35.7696 30.916 36.4976 30.916ZM42.975 30.916C43.471 30.916 43.891 30.984 44.235 31.12C44.579 31.248 44.839 31.472 45.015 31.792C45.199 32.104 45.291 32.536 45.291 33.088V37H43.875L43.623 35.716L43.503 35.536V33.076C43.503 32.796 43.435 32.592 43.299 32.464C43.171 32.336 42.923 32.272 42.555 32.272C42.251 32.272 41.871 32.284 41.415 32.308C40.959 32.324 40.491 32.348 40.011 32.38L39.843 31.204C40.131 31.148 40.463 31.1 40.839 31.06C41.215 31.02 41.591 30.988 41.967 30.964C42.343 30.932 42.679 30.916 42.975 30.916ZM44.559 33.352L44.547 34.348L41.907 34.36C41.691 34.36 41.535 34.412 41.439 34.516C41.351 34.62 41.307 34.76 41.307 34.936V35.224C41.307 35.424 41.363 35.58 41.475 35.692C41.587 35.796 41.767 35.848 42.015 35.848C42.223 35.848 42.447 35.804 42.687 35.716C42.935 35.628 43.179 35.504 43.419 35.344C43.659 35.184 43.871 34.996 44.055 34.78V35.548C43.983 35.668 43.875 35.82 43.731 36.004C43.595 36.18 43.419 36.356 43.203 36.532C42.987 36.7 42.735 36.844 42.447 36.964C42.159 37.084 41.831 37.144 41.463 37.144C41.103 37.144 40.779 37.08 40.491 36.952C40.203 36.824 39.975 36.636 39.807 36.388C39.639 36.14 39.555 35.832 39.555 35.464V34.852C39.555 34.38 39.715 34.012 40.035 33.748C40.355 33.484 40.795 33.352 41.355 33.352H44.559ZM48.4748 28.6L48.4628 35.104C48.4628 35.304 48.5228 35.456 48.6428 35.56C48.7628 35.656 48.9388 35.704 49.1708 35.704H49.6508L49.8548 36.904C49.7588 36.952 49.6228 36.992 49.4468 37.024C49.2708 37.064 49.0908 37.092 48.9068 37.108C48.7228 37.132 48.5668 37.144 48.4388 37.144C47.9028 37.144 47.4788 37.004 47.1668 36.724C46.8548 36.444 46.6988 36.052 46.6988 35.548V28.6H48.4748ZM53.7563 30.916C54.2523 30.916 54.6723 30.984 55.0163 31.12C55.3603 31.248 55.6203 31.472 55.7963 31.792C55.9803 32.104 56.0723 32.536 56.0723 33.088V37H54.6563L54.4043 35.716L54.2843 35.536V33.076C54.2843 32.796 54.2163 32.592 54.0803 32.464C53.9523 32.336 53.7043 32.272 53.3363 32.272C53.0323 32.272 52.6523 32.284 52.1963 32.308C51.7403 32.324 51.2723 32.348 50.7923 32.38L50.6243 31.204C50.9123 31.148 51.2443 31.1 51.6203 31.06C51.9963 31.02 52.3723 30.988 52.7483 30.964C53.1243 30.932 53.4603 30.916 53.7563 30.916ZM55.3403 33.352L55.3283 34.348L52.6883 34.36C52.4723 34.36 52.3163 34.412 52.2203 34.516C52.1323 34.62 52.0883 34.76 52.0883 34.936V35.224C52.0883 35.424 52.1443 35.58 52.2563 35.692C52.3683 35.796 52.5483 35.848 52.7963 35.848C53.0043 35.848 53.2283 35.804 53.4683 35.716C53.7163 35.628 53.9603 35.504 54.2003 35.344C54.4403 35.184 54.6523 34.996 54.8363 34.78V35.548C54.7643 35.668 54.6563 35.82 54.5123 36.004C54.3763 36.18 54.2003 36.356 53.9843 36.532C53.7683 36.7 53.5163 36.844 53.2283 36.964C52.9403 37.084 52.6123 37.144 52.2443 37.144C51.8843 37.144 51.5603 37.08 51.2723 36.952C50.9843 36.824 50.7563 36.636 50.5883 36.388C50.4203 36.14 50.3363 35.832 50.3363 35.464V34.852C50.3363 34.38 50.4963 34.012 50.8163 33.748C51.1363 33.484 51.5763 33.352 52.1363 33.352H55.3403ZM66.6406 28.72L64.3846 36.496C64.3446 36.64 64.2646 36.76 64.1446 36.856C64.0326 36.952 63.8966 37 63.7366 37H62.0566C61.8886 37 61.7446 36.952 61.6246 36.856C61.5126 36.76 61.4406 36.64 61.4086 36.496L59.1406 28.72H61.0366L62.5486 34.696C62.5806 34.848 62.6126 35.004 62.6446 35.164C62.6846 35.316 62.7166 35.468 62.7406 35.62H63.0526C63.0766 35.468 63.1046 35.312 63.1366 35.152C63.1766 34.992 63.2166 34.836 63.2566 34.684L64.7566 28.72H66.6406ZM69.8034 30.916C70.8034 30.916 71.5194 31.088 71.9514 31.432C72.3914 31.768 72.6114 32.272 72.6114 32.944C72.6194 33.488 72.4834 33.896 72.2034 34.168C71.9234 34.432 71.4394 34.564 70.7514 34.564H67.4394V33.568H70.2594C70.5314 33.568 70.7034 33.512 70.7754 33.4C70.8554 33.28 70.8954 33.116 70.8954 32.908C70.8874 32.628 70.8034 32.436 70.6434 32.332C70.4914 32.22 70.2314 32.164 69.8634 32.164C69.5354 32.164 69.2794 32.208 69.0954 32.296C68.9114 32.384 68.7834 32.552 68.7114 32.8C68.6394 33.048 68.6034 33.408 68.6034 33.88C68.6034 34.376 68.6474 34.76 68.7354 35.032C68.8234 35.296 68.9714 35.48 69.1794 35.584C69.3954 35.688 69.6914 35.74 70.0674 35.74C70.3394 35.74 70.6754 35.732 71.0754 35.716C71.4834 35.692 71.8914 35.656 72.2994 35.608L72.4674 36.7C72.2354 36.812 71.9714 36.9 71.6754 36.964C71.3794 37.028 71.0754 37.072 70.7634 37.096C70.4514 37.128 70.1514 37.144 69.8634 37.144C69.1114 37.144 68.5034 37.036 68.0394 36.82C67.5834 36.596 67.2514 36.256 67.0434 35.8C66.8434 35.344 66.7434 34.76 66.7434 34.048C66.7434 33.272 66.8474 32.656 67.0554 32.2C67.2634 31.744 67.5914 31.416 68.0394 31.216C68.4874 31.016 69.0754 30.916 69.8034 30.916ZM75.1608 31.072L75.3768 32.248L75.5448 32.404V37H73.7688V31.072H75.1608ZM78.0528 30.916L77.8848 32.56H77.3928C77.1128 32.56 76.8208 32.6 76.5168 32.68C76.2128 32.76 75.8288 32.88 75.3648 33.04L75.2448 32.044C75.6608 31.676 76.0808 31.396 76.5048 31.204C76.9288 31.012 77.3408 30.916 77.7408 30.916H78.0528ZM81.2059 29.428V35.104C81.2059 35.32 81.2539 35.476 81.3499 35.572C81.4539 35.66 81.6219 35.704 81.8539 35.704H82.6219L82.8139 36.904C82.6699 36.952 82.4939 36.992 82.2859 37.024C82.0779 37.064 81.8699 37.092 81.6619 37.108C81.4539 37.132 81.2779 37.144 81.1339 37.144C80.5979 37.144 80.1779 37 79.8739 36.712C79.5779 36.424 79.4299 36.02 79.4299 35.5L79.4179 29.428H81.2059ZM82.8619 31.072V32.236H78.3859V31.132L79.5379 31.072H82.8619ZM85.6238 31.072V37H83.8598V31.072H85.6238ZM85.1318 28.456C85.4838 28.456 85.6598 28.636 85.6598 28.996V29.632C85.6598 29.992 85.4838 30.172 85.1318 30.172H84.3638C84.0118 30.172 83.8358 29.992 83.8358 29.632V28.996C83.8358 28.636 84.0118 28.456 84.3638 28.456H85.1318ZM89.8882 30.916C90.1042 30.916 90.3402 30.928 90.5962 30.952C90.8522 30.968 91.1082 31.004 91.3642 31.06C91.6282 31.108 91.8682 31.18 92.0842 31.276L91.8922 32.392C91.5722 32.384 91.2642 32.376 90.9682 32.368C90.6802 32.36 90.4202 32.356 90.1882 32.356C89.8282 32.356 89.5442 32.404 89.3362 32.5C89.1282 32.596 88.9762 32.768 88.8802 33.016C88.7922 33.256 88.7482 33.592 88.7482 34.024C88.7482 34.464 88.7922 34.808 88.8802 35.056C88.9762 35.304 89.1282 35.476 89.3362 35.572C89.5442 35.668 89.8282 35.716 90.1882 35.716C90.3162 35.716 90.4802 35.712 90.6802 35.704C90.8802 35.696 91.0962 35.688 91.3282 35.68C91.5602 35.664 91.7882 35.64 92.0122 35.608L92.1802 36.736C91.8602 36.88 91.4962 36.984 91.0882 37.048C90.6802 37.112 90.2762 37.144 89.8762 37.144C89.1402 37.144 88.5522 37.044 88.1122 36.844C87.6802 36.636 87.3682 36.304 87.1762 35.848C86.9842 35.392 86.8882 34.784 86.8882 34.024C86.8882 33.264 86.9842 32.656 87.1762 32.2C87.3762 31.744 87.6962 31.416 88.1362 31.216C88.5762 31.016 89.1602 30.916 89.8882 30.916ZM96.3657 30.916C96.8617 30.916 97.2817 30.984 97.6257 31.12C97.9697 31.248 98.2297 31.472 98.4057 31.792C98.5897 32.104 98.6817 32.536 98.6817 33.088V37H97.2657L97.0137 35.716L96.8937 35.536V33.076C96.8937 32.796 96.8257 32.592 96.6897 32.464C96.5617 32.336 96.3137 32.272 95.9457 32.272C95.6417 32.272 95.2617 32.284 94.8057 32.308C94.3497 32.324 93.8817 32.348 93.4017 32.38L93.2337 31.204C93.5217 31.148 93.8537 31.1 94.2297 31.06C94.6057 31.02 94.9817 30.988 95.3577 30.964C95.7337 30.932 96.0697 30.916 96.3657 30.916ZM97.9497 33.352L97.9377 34.348L95.2977 34.36C95.0817 34.36 94.9257 34.412 94.8297 34.516C94.7417 34.62 94.6977 34.76 94.6977 34.936V35.224C94.6977 35.424 94.7537 35.58 94.8657 35.692C94.9777 35.796 95.1577 35.848 95.4057 35.848C95.6137 35.848 95.8377 35.804 96.0777 35.716C96.3257 35.628 96.5697 35.504 96.8097 35.344C97.0497 35.184 97.2617 34.996 97.4457 34.78V35.548C97.3737 35.668 97.2657 35.82 97.1217 36.004C96.9857 36.18 96.8097 36.356 96.5937 36.532C96.3777 36.7 96.1257 36.844 95.8377 36.964C95.5497 37.084 95.2217 37.144 94.8537 37.144C94.4937 37.144 94.1697 37.08 93.8817 36.952C93.5937 36.824 93.3657 36.636 93.1977 36.388C93.0297 36.14 92.9457 35.832 92.9457 35.464V34.852C92.9457 34.38 93.1057 34.012 93.4257 33.748C93.7457 33.484 94.1857 33.352 94.7457 33.352H97.9497ZM101.865 28.6L101.853 35.104C101.853 35.304 101.913 35.456 102.033 35.56C102.153 35.656 102.329 35.704 102.561 35.704H103.041L103.245 36.904C103.149 36.952 103.013 36.992 102.837 37.024C102.661 37.064 102.481 37.092 102.297 37.108C102.113 37.132 101.957 37.144 101.829 37.144C101.293 37.144 100.869 37.004 100.557 36.724C100.245 36.444 100.089 36.052 100.089 35.548V28.6H101.865Z" fill="#FF6A00"/>
<path d="M222.675 113.684C223.123 113.684 223.575 113.688 224.031 113.696C224.487 113.696 224.935 113.704 225.375 113.72C225.815 113.736 226.227 113.764 226.611 113.804L226.527 115.136H223.347C223.147 115.136 222.995 115.188 222.891 115.292C222.795 115.396 222.747 115.548 222.747 115.748V119.972C222.747 120.172 222.795 120.324 222.891 120.428C222.995 120.532 223.147 120.584 223.347 120.584H226.527L226.611 121.916C226.227 121.948 225.815 121.976 225.375 122C224.935 122.016 224.487 122.024 224.031 122.024C223.575 122.032 223.123 122.036 222.675 122.036C222.147 122.036 221.719 121.884 221.391 121.58C221.071 121.268 220.911 120.864 220.911 120.368V115.352C220.911 114.848 221.071 114.444 221.391 114.14C221.719 113.836 222.147 113.684 222.675 113.684ZM221.127 117.044H226.083V118.34H221.127V117.044ZM230.056 115.916C230.344 115.916 230.656 115.928 230.992 115.952C231.328 115.968 231.656 115.992 231.976 116.024C232.296 116.056 232.58 116.096 232.828 116.144L232.708 117.248C232.324 117.24 231.936 117.236 231.544 117.236C231.16 117.228 230.784 117.224 230.416 117.224C230.104 117.216 229.864 117.22 229.696 117.236C229.528 117.252 229.408 117.292 229.336 117.356C229.272 117.412 229.24 117.516 229.24 117.668C229.24 117.844 229.3 117.964 229.42 118.028C229.54 118.084 229.74 118.148 230.02 118.22L231.568 118.592C232.064 118.72 232.432 118.912 232.672 119.168C232.912 119.416 233.032 119.792 233.032 120.296C233.032 120.792 232.94 121.172 232.756 121.436C232.572 121.7 232.28 121.884 231.88 121.988C231.48 122.084 230.964 122.132 230.332 122.132C230.084 122.132 229.716 122.12 229.228 122.096C228.74 122.072 228.204 122.012 227.62 121.916L227.74 120.812C227.884 120.82 228.068 120.828 228.292 120.836C228.516 120.836 228.76 120.836 229.024 120.836C229.288 120.836 229.552 120.836 229.816 120.836C230.224 120.836 230.536 120.828 230.752 120.812C230.968 120.788 231.116 120.74 231.196 120.668C231.276 120.596 231.316 120.488 231.316 120.344C231.316 120.168 231.248 120.048 231.112 119.984C230.976 119.92 230.76 119.852 230.464 119.78L228.964 119.408C228.588 119.304 228.296 119.172 228.088 119.012C227.88 118.852 227.732 118.656 227.644 118.424C227.564 118.192 227.524 117.916 227.524 117.596C227.524 117.188 227.604 116.864 227.764 116.624C227.932 116.376 228.2 116.196 228.568 116.084C228.944 115.972 229.44 115.916 230.056 115.916ZM236.935 115.916C237.151 115.916 237.387 115.928 237.643 115.952C237.899 115.968 238.155 116.004 238.411 116.06C238.675 116.108 238.915 116.18 239.131 116.276L238.939 117.392C238.619 117.384 238.311 117.376 238.015 117.368C237.727 117.36 237.467 117.356 237.235 117.356C236.875 117.356 236.591 117.404 236.383 117.5C236.175 117.596 236.023 117.768 235.927 118.016C235.839 118.256 235.795 118.592 235.795 119.024C235.795 119.464 235.839 119.808 235.927 120.056C236.023 120.304 236.175 120.476 236.383 120.572C236.591 120.668 236.875 120.716 237.235 120.716C237.363 120.716 237.527 120.712 237.727 120.704C237.927 120.696 238.143 120.688 238.375 120.68C238.607 120.664 238.835 120.64 239.059 120.608L239.227 121.736C238.907 121.88 238.543 121.984 238.135 122.048C237.727 122.112 237.323 122.144 236.923 122.144C236.187 122.144 235.599 122.044 235.159 121.844C234.727 121.636 234.415 121.304 234.223 120.848C234.031 120.392 233.935 119.784 233.935 119.024C233.935 118.264 234.031 117.656 234.223 117.2C234.423 116.744 234.743 116.416 235.183 116.216C235.623 116.016 236.207 115.916 236.935 115.916ZM243.413 115.916C243.909 115.916 244.329 115.984 244.673 116.12C245.017 116.248 245.277 116.472 245.453 116.792C245.637 117.104 245.729 117.536 245.729 118.088V122H244.313L244.061 120.716L243.941 120.536V118.076C243.941 117.796 243.873 117.592 243.737 117.464C243.609 117.336 243.361 117.272 242.993 117.272C242.689 117.272 242.309 117.284 241.853 117.308C241.397 117.324 240.929 117.348 240.449 117.38L240.281 116.204C240.569 116.148 240.901 116.1 241.277 116.06C241.653 116.02 242.029 115.988 242.405 115.964C242.781 115.932 243.117 115.916 243.413 115.916ZM244.997 118.352L244.985 119.348L242.345 119.36C242.129 119.36 241.973 119.412 241.877 119.516C241.789 119.62 241.745 119.76 241.745 119.936V120.224C241.745 120.424 241.801 120.58 241.913 120.692C242.025 120.796 242.205 120.848 242.453 120.848C242.661 120.848 242.885 120.804 243.125 120.716C243.373 120.628 243.617 120.504 243.857 120.344C244.097 120.184 244.309 119.996 244.493 119.78V120.548C244.421 120.668 244.313 120.82 244.169 121.004C244.033 121.18 243.857 121.356 243.641 121.532C243.425 121.7 243.173 121.844 242.885 121.964C242.597 122.084 242.269 122.144 241.901 122.144C241.541 122.144 241.217 122.08 240.929 121.952C240.641 121.824 240.413 121.636 240.245 121.388C240.077 121.14 239.993 120.832 239.993 120.464V119.852C239.993 119.38 240.153 119.012 240.473 118.748C240.793 118.484 241.233 118.352 241.793 118.352H244.997ZM248.912 113.6L248.9 120.104C248.9 120.304 248.96 120.456 249.08 120.56C249.2 120.656 249.376 120.704 249.608 120.704H250.088L250.292 121.904C250.196 121.952 250.06 121.992 249.884 122.024C249.708 122.064 249.528 122.092 249.344 122.108C249.16 122.132 249.004 122.144 248.876 122.144C248.34 122.144 247.916 122.004 247.604 121.724C247.292 121.444 247.136 121.052 247.136 120.548V113.6H248.912ZM254.194 115.916C254.69 115.916 255.11 115.984 255.454 116.12C255.798 116.248 256.058 116.472 256.234 116.792C256.418 117.104 256.51 117.536 256.51 118.088V122H255.094L254.842 120.716L254.722 120.536V118.076C254.722 117.796 254.654 117.592 254.518 117.464C254.39 117.336 254.142 117.272 253.774 117.272C253.47 117.272 253.09 117.284 252.634 117.308C252.178 117.324 251.71 117.348 251.23 117.38L251.062 116.204C251.35 116.148 251.682 116.1 252.058 116.06C252.434 116.02 252.81 115.988 253.186 115.964C253.562 115.932 253.898 115.916 254.194 115.916ZM255.778 118.352L255.766 119.348L253.126 119.36C252.91 119.36 252.754 119.412 252.658 119.516C252.57 119.62 252.526 119.76 252.526 119.936V120.224C252.526 120.424 252.582 120.58 252.694 120.692C252.806 120.796 252.986 120.848 253.234 120.848C253.442 120.848 253.666 120.804 253.906 120.716C254.154 120.628 254.398 120.504 254.638 120.344C254.878 120.184 255.09 119.996 255.274 119.78V120.548C255.202 120.668 255.094 120.82 254.95 121.004C254.814 121.18 254.638 121.356 254.422 121.532C254.206 121.7 253.954 121.844 253.666 121.964C253.378 122.084 253.05 122.144 252.682 122.144C252.322 122.144 251.998 122.08 251.71 121.952C251.422 121.824 251.194 121.636 251.026 121.388C250.858 121.14 250.774 120.832 250.774 120.464V119.852C250.774 119.38 250.934 119.012 251.254 118.748C251.574 118.484 252.014 118.352 252.574 118.352H255.778ZM262.451 113.72V122H260.615V113.72H262.451ZM265.523 116.9V118.28H262.355V116.9H265.523ZM267.227 113.72V122H265.391V113.72H267.227ZM271.612 115.916C272.356 115.916 272.952 116.02 273.4 116.228C273.848 116.428 274.168 116.756 274.36 117.212C274.56 117.668 274.66 118.28 274.66 119.048C274.66 119.8 274.56 120.404 274.36 120.86C274.168 121.316 273.848 121.644 273.4 121.844C272.952 122.044 272.356 122.144 271.612 122.144C270.876 122.144 270.28 122.044 269.824 121.844C269.376 121.644 269.052 121.316 268.852 120.86C268.652 120.404 268.552 119.8 268.552 119.048C268.552 118.28 268.652 117.668 268.852 117.212C269.052 116.756 269.376 116.428 269.824 116.228C270.28 116.02 270.876 115.916 271.612 115.916ZM271.612 117.212C271.308 117.212 271.068 117.264 270.892 117.368C270.716 117.472 270.592 117.656 270.52 117.92C270.448 118.184 270.412 118.56 270.412 119.048C270.412 119.528 270.448 119.9 270.52 120.164C270.592 120.428 270.716 120.612 270.892 120.716C271.068 120.812 271.308 120.86 271.612 120.86C271.916 120.86 272.156 120.812 272.332 120.716C272.508 120.612 272.632 120.428 272.704 120.164C272.776 119.9 272.812 119.528 272.812 119.048C272.812 118.56 272.776 118.184 272.704 117.92C272.632 117.656 272.508 117.472 272.332 117.368C272.156 117.264 271.916 117.212 271.612 117.212ZM277.262 116.072L277.478 117.248L277.646 117.404V122H275.87V116.072H277.262ZM280.154 115.916L279.986 117.56H279.494C279.214 117.56 278.922 117.6 278.618 117.68C278.314 117.76 277.93 117.88 277.466 118.04L277.346 117.044C277.762 116.676 278.182 116.396 278.606 116.204C279.03 116.012 279.442 115.916 279.842 115.916H280.154ZM282.803 116.072V122H281.039V116.072H282.803ZM282.311 113.456C282.663 113.456 282.839 113.636 282.839 113.996V114.632C282.839 114.992 282.663 115.172 282.311 115.172H281.543C281.191 115.172 281.015 114.992 281.015 114.632V113.996C281.015 113.636 281.191 113.456 281.543 113.456H282.311ZM287.332 117.296L289.372 117.308L286.096 120.788L284.056 120.776L287.332 117.296ZM289.432 120.776V122H284.056V120.776H289.432ZM289.372 116.072V117.308H284.104V116.072H289.372ZM293.409 115.916C294.153 115.916 294.749 116.02 295.197 116.228C295.645 116.428 295.965 116.756 296.157 117.212C296.357 117.668 296.457 118.28 296.457 119.048C296.457 119.8 296.357 120.404 296.157 120.86C295.965 121.316 295.645 121.644 295.197 121.844C294.749 122.044 294.153 122.144 293.409 122.144C292.673 122.144 292.077 122.044 291.621 121.844C291.173 121.644 290.849 121.316 290.649 120.86C290.449 120.404 290.349 119.8 290.349 119.048C290.349 118.28 290.449 117.668 290.649 117.212C290.849 116.756 291.173 116.428 291.621 116.228C292.077 116.02 292.673 115.916 293.409 115.916ZM293.409 117.212C293.105 117.212 292.865 117.264 292.689 117.368C292.513 117.472 292.389 117.656 292.317 117.92C292.245 118.184 292.209 118.56 292.209 119.048C292.209 119.528 292.245 119.9 292.317 120.164C292.389 120.428 292.513 120.612 292.689 120.716C292.865 120.812 293.105 120.86 293.409 120.86C293.713 120.86 293.953 120.812 294.129 120.716C294.305 120.612 294.429 120.428 294.501 120.164C294.573 119.9 294.609 119.528 294.609 119.048C294.609 118.56 294.573 118.184 294.501 117.92C294.429 117.656 294.305 117.472 294.129 117.368C293.953 117.264 293.713 117.212 293.409 117.212ZM301.795 115.916C302.915 115.916 303.475 116.464 303.475 117.56V122H301.699V118.112C301.699 117.848 301.651 117.668 301.555 117.572C301.459 117.468 301.295 117.416 301.063 117.416C300.807 117.416 300.543 117.468 300.271 117.572C299.999 117.668 299.663 117.82 299.263 118.028L299.179 117.032C299.603 116.672 300.035 116.396 300.475 116.204C300.923 116.012 301.363 115.916 301.795 115.916ZM299.095 116.072L299.299 117.248L299.443 117.404V122H297.667V116.072H299.095ZM307.19 114.428V120.104C307.19 120.32 307.238 120.476 307.334 120.572C307.438 120.66 307.606 120.704 307.838 120.704H308.606L308.798 121.904C308.654 121.952 308.478 121.992 308.27 122.024C308.062 122.064 307.854 122.092 307.646 122.108C307.438 122.132 307.262 122.144 307.118 122.144C306.582 122.144 306.162 122 305.858 121.712C305.562 121.424 305.414 121.02 305.414 120.5L305.402 114.428H307.19ZM308.846 116.072V117.236H304.37V116.132L305.522 116.072H308.846ZM312.928 115.916C313.424 115.916 313.844 115.984 314.188 116.12C314.532 116.248 314.792 116.472 314.968 116.792C315.152 117.104 315.244 117.536 315.244 118.088V122H313.828L313.576 120.716L313.456 120.536V118.076C313.456 117.796 313.388 117.592 313.252 117.464C313.124 117.336 312.876 117.272 312.508 117.272C312.204 117.272 311.824 117.284 311.368 117.308C310.912 117.324 310.444 117.348 309.964 117.38L309.796 116.204C310.084 116.148 310.416 116.1 310.792 116.06C311.168 116.02 311.544 115.988 311.92 115.964C312.296 115.932 312.632 115.916 312.928 115.916ZM314.512 118.352L314.5 119.348L311.86 119.36C311.644 119.36 311.488 119.412 311.392 119.516C311.304 119.62 311.26 119.76 311.26 119.936V120.224C311.26 120.424 311.316 120.58 311.428 120.692C311.54 120.796 311.72 120.848 311.968 120.848C312.176 120.848 312.4 120.804 312.64 120.716C312.888 120.628 313.132 120.504 313.372 120.344C313.612 120.184 313.824 119.996 314.008 119.78V120.548C313.936 120.668 313.828 120.82 313.684 121.004C313.548 121.18 313.372 121.356 313.156 121.532C312.94 121.7 312.688 121.844 312.4 121.964C312.112 122.084 311.784 122.144 311.416 122.144C311.056 122.144 310.732 122.08 310.444 121.952C310.156 121.824 309.928 121.636 309.76 121.388C309.592 121.14 309.508 120.832 309.508 120.464V119.852C309.508 119.38 309.668 119.012 309.988 118.748C310.308 118.484 310.748 118.352 311.308 118.352H314.512ZM318.428 113.6L318.416 120.104C318.416 120.304 318.476 120.456 318.596 120.56C318.716 120.656 318.892 120.704 319.124 120.704H319.604L319.808 121.904C319.712 121.952 319.576 121.992 319.4 122.024C319.224 122.064 319.044 122.092 318.86 122.108C318.676 122.132 318.52 122.144 318.392 122.144C317.856 122.144 317.432 122.004 317.12 121.724C316.808 121.444 316.652 121.052 316.652 120.548V113.6H318.428Z" fill="#FF6A00"/>
<path d="M148.73 163.72L146.474 171.496C146.434 171.64 146.354 171.76 146.234 171.856C146.122 171.952 145.986 172 145.826 172H144.146C143.978 172 143.834 171.952 143.714 171.856C143.602 171.76 143.53 171.64 143.498 171.496L141.23 163.72H143.126L144.638 169.696C144.67 169.848 144.702 170.004 144.734 170.164C144.774 170.316 144.806 170.468 144.83 170.62H145.142C145.166 170.468 145.194 170.312 145.226 170.152C145.266 169.992 145.306 169.836 145.346 169.684L146.846 163.72H148.73ZM152.386 163.564C152.794 163.564 153.238 163.588 153.718 163.636C154.198 163.676 154.666 163.764 155.122 163.9L155.002 165.112C154.65 165.104 154.238 165.096 153.766 165.088C153.294 165.08 152.83 165.076 152.374 165.076C152.15 165.076 151.958 165.084 151.798 165.1C151.646 165.108 151.522 165.14 151.426 165.196C151.33 165.244 151.262 165.32 151.222 165.424C151.182 165.528 151.162 165.672 151.162 165.856C151.162 166.136 151.226 166.34 151.354 166.468C151.49 166.596 151.718 166.712 152.038 166.816L153.634 167.332C154.298 167.556 154.758 167.86 155.014 168.244C155.27 168.628 155.398 169.132 155.398 169.756C155.398 170.228 155.342 170.62 155.23 170.932C155.118 171.244 154.942 171.488 154.702 171.664C154.462 171.84 154.146 171.964 153.754 172.036C153.362 172.116 152.882 172.156 152.314 172.156C152.042 172.156 151.654 172.136 151.15 172.096C150.646 172.064 150.07 171.976 149.422 171.832L149.542 170.536C150.014 170.544 150.422 170.556 150.766 170.572C151.118 170.58 151.418 170.588 151.666 170.596C151.914 170.596 152.13 170.596 152.314 170.596C152.634 170.596 152.882 170.576 153.058 170.536C153.242 170.496 153.37 170.416 153.442 170.296C153.514 170.176 153.55 170.004 153.55 169.78C153.55 169.588 153.522 169.436 153.466 169.324C153.418 169.204 153.334 169.112 153.214 169.048C153.102 168.976 152.946 168.912 152.746 168.856L151.066 168.28C150.434 168.048 149.986 167.744 149.722 167.368C149.458 166.992 149.326 166.496 149.326 165.88C149.326 165.4 149.382 165.012 149.494 164.716C149.614 164.412 149.794 164.176 150.034 164.008C150.282 163.84 150.598 163.724 150.982 163.66C151.374 163.596 151.842 163.564 152.386 163.564Z" fill="#FF6A00"/>
<path d="M10.5773 46.008C10.8653 46.008 11.1079 46.048 11.3053 46.128C11.5079 46.2027 11.6599 46.3307 11.7613 46.512C11.8626 46.6933 11.9133 46.9413 11.9133 47.256V50H11.3773L11.2733 49.152L11.2253 49.064V47.256C11.2253 47.016 11.1693 46.8453 11.0573 46.744C10.9506 46.6373 10.7426 46.584 10.4333 46.584C10.2306 46.584 9.97461 46.5947 9.66528 46.616C9.36128 46.6373 9.05995 46.6613 8.76128 46.688L8.69728 46.184C8.87861 46.152 9.07595 46.1227 9.28928 46.096C9.50795 46.0693 9.72928 46.048 9.95328 46.032C10.1773 46.016 10.3853 46.008 10.5773 46.008ZM11.5933 47.6L11.5853 48.112L9.72128 48.12C9.53461 48.1253 9.40395 48.176 9.32928 48.272C9.25461 48.3627 9.21728 48.4907 9.21728 48.656V48.904C9.21728 49.1067 9.26528 49.256 9.36128 49.352C9.45728 49.4427 9.61195 49.488 9.82528 49.488C9.97461 49.488 10.1426 49.4613 10.3293 49.408C10.5213 49.3493 10.7133 49.2613 10.9053 49.144C11.0973 49.0267 11.2733 48.8773 11.4333 48.696V49.2C11.3746 49.2747 11.2893 49.3627 11.1773 49.464C11.0706 49.56 10.9399 49.656 10.7853 49.752C10.6359 49.8427 10.4679 49.92 10.2813 49.984C10.0999 50.0427 9.90261 50.072 9.68928 50.072C9.45995 50.072 9.25728 50.032 9.08128 49.952C8.90528 49.8667 8.76661 49.744 8.66528 49.584C8.56928 49.4187 8.52128 49.2187 8.52128 48.984V48.56C8.52128 48.256 8.61461 48.0213 8.80128 47.856C8.99328 47.6853 9.25995 47.6 9.60128 47.6H11.5933ZM13.7839 46.104V48.84C13.7786 49.0853 13.8239 49.2587 13.9199 49.36C14.0159 49.4613 14.1759 49.512 14.3999 49.512C14.6186 49.512 14.8346 49.4613 15.0479 49.36C15.2666 49.2533 15.5279 49.1013 15.8319 48.904L15.9199 49.376C15.6159 49.616 15.3199 49.7973 15.0319 49.92C14.7492 50.0427 14.4612 50.104 14.1679 50.104C13.4586 50.104 13.1039 49.7467 13.1039 49.032V46.104H13.7839ZM16.4399 46.104V50H15.8959L15.8319 49.264L15.7599 49.144V46.104H16.4399ZM22.4344 46.008C22.7704 46.008 23.0264 46.0987 23.2024 46.28C23.3837 46.4613 23.4744 46.728 23.4744 47.08V50H22.8024V47.272C22.7971 47.032 22.7491 46.8587 22.6584 46.752C22.5677 46.64 22.4131 46.584 22.1944 46.584C22.0557 46.584 21.9224 46.608 21.7944 46.656C21.6717 46.6987 21.5357 46.768 21.3864 46.864C21.2371 46.96 21.0557 47.0853 20.8424 47.24L20.8024 46.76C21.0851 46.5093 21.3597 46.3227 21.6264 46.2C21.8931 46.072 22.1624 46.008 22.4344 46.008ZM18.2504 46.104L18.2984 46.848L18.3704 46.968V50H17.6904V46.104H18.2504ZM19.8824 46.008C20.2131 46.008 20.4664 46.0987 20.6424 46.28C20.8184 46.456 20.9091 46.7227 20.9144 47.08V50H20.2584V47.272C20.2584 47.0213 20.2077 46.8453 20.1064 46.744C20.0051 46.6373 19.8531 46.584 19.6504 46.584C19.5171 46.584 19.3864 46.6053 19.2584 46.648C19.1357 46.6907 18.9971 46.76 18.8424 46.856C18.6931 46.952 18.5091 47.08 18.2904 47.24L18.2424 46.76C18.5251 46.5093 18.7997 46.3227 19.0664 46.2C19.3331 46.072 19.6051 46.008 19.8824 46.008ZM26.2982 46.008C26.8849 46.008 27.3089 46.1147 27.5702 46.328C27.8369 46.5413 27.9702 46.8587 27.9702 47.28C27.9756 47.6267 27.9036 47.8987 27.7542 48.096C27.6049 48.288 27.3676 48.384 27.0422 48.384H24.7702V47.856H26.8662C27.0422 47.856 27.1569 47.7973 27.2102 47.68C27.2636 47.5573 27.2902 47.424 27.2902 47.28C27.2849 47.0293 27.2102 46.8507 27.0662 46.744C26.9222 46.6373 26.6769 46.584 26.3302 46.584C26.0476 46.584 25.8236 46.6267 25.6582 46.712C25.4982 46.792 25.3836 46.936 25.3142 47.144C25.2502 47.3467 25.2182 47.632 25.2182 48C25.2182 48.416 25.2582 48.7333 25.3382 48.952C25.4236 49.1707 25.5569 49.32 25.7382 49.4C25.9196 49.48 26.1596 49.52 26.4582 49.52C26.6662 49.52 26.8929 49.512 27.1382 49.496C27.3889 49.4747 27.6129 49.4507 27.8102 49.424L27.8822 49.88C27.7596 49.928 27.6076 49.968 27.4262 50C27.2502 50.032 27.0662 50.056 26.8742 50.072C26.6876 50.088 26.5196 50.096 26.3702 50.096C25.9222 50.096 25.5622 50.0293 25.2902 49.896C25.0182 49.7573 24.8182 49.5387 24.6902 49.24C24.5676 48.936 24.5062 48.536 24.5062 48.04C24.5062 47.528 24.5676 47.1253 24.6902 46.832C24.8182 46.5333 25.0129 46.3227 25.2742 46.2C25.5409 46.072 25.8822 46.008 26.2982 46.008ZM31.3631 46.008C32.0671 46.008 32.4191 46.3653 32.4191 47.08V50H31.7391V47.272C31.7391 47.0107 31.6964 46.832 31.6111 46.736C31.5258 46.6347 31.3818 46.584 31.1791 46.584C30.9391 46.584 30.6991 46.6427 30.4591 46.76C30.2191 46.8773 29.9338 47.0373 29.6031 47.24L29.5711 46.752C29.8751 46.5173 30.1764 46.336 30.4751 46.208C30.7738 46.0747 31.0698 46.008 31.3631 46.008ZM29.5711 46.104L29.6271 46.848L29.6751 46.968V50H28.9951V46.104H29.5711ZM34.6195 44.952V48.928C34.6195 49.1147 34.6595 49.248 34.7395 49.328C34.8195 49.408 34.9555 49.448 35.1475 49.448H35.7395L35.8195 49.968C35.7342 49.9893 35.6355 50.008 35.5235 50.024C35.4115 50.04 35.3022 50.0507 35.1955 50.056C35.0889 50.0667 35.0035 50.072 34.9395 50.072C34.6142 50.072 34.3662 49.9813 34.1955 49.8C34.0249 49.6187 33.9395 49.3573 33.9395 49.016V44.952H34.6195ZM35.8595 46.104V46.64H33.2355V46.144L34.0035 46.104H35.8595ZM38.5304 46.008C38.8184 46.008 39.0611 46.048 39.2584 46.128C39.4611 46.2027 39.6131 46.3307 39.7144 46.512C39.8157 46.6933 39.8664 46.9413 39.8664 47.256V50H39.3304L39.2264 49.152L39.1784 49.064V47.256C39.1784 47.016 39.1224 46.8453 39.0104 46.744C38.9037 46.6373 38.6957 46.584 38.3864 46.584C38.1837 46.584 37.9277 46.5947 37.6184 46.616C37.3144 46.6373 37.0131 46.6613 36.7144 46.688L36.6504 46.184C36.8317 46.152 37.0291 46.1227 37.2424 46.096C37.4611 46.0693 37.6824 46.048 37.9064 46.032C38.1304 46.016 38.3384 46.008 38.5304 46.008ZM39.5464 47.6L39.5384 48.112L37.6744 48.12C37.4877 48.1253 37.3571 48.176 37.2824 48.272C37.2077 48.3627 37.1704 48.4907 37.1704 48.656V48.904C37.1704 49.1067 37.2184 49.256 37.3144 49.352C37.4104 49.4427 37.5651 49.488 37.7784 49.488C37.9277 49.488 38.0957 49.4613 38.2824 49.408C38.4744 49.3493 38.6664 49.2613 38.8584 49.144C39.0504 49.0267 39.2264 48.8773 39.3864 48.696V49.2C39.3277 49.2747 39.2424 49.3627 39.1304 49.464C39.0237 49.56 38.8931 49.656 38.7384 49.752C38.5891 49.8427 38.4211 49.92 38.2344 49.984C38.0531 50.0427 37.8557 50.072 37.6424 50.072C37.4131 50.072 37.2104 50.032 37.0344 49.952C36.8584 49.8667 36.7197 49.744 36.6184 49.584C36.5224 49.4187 36.4744 49.2187 36.4744 48.984V48.56C36.4744 48.256 36.5677 48.0213 36.7544 47.856C36.9464 47.6853 37.2131 47.6 37.5544 47.6H39.5464ZM44.8943 44.384C45.1289 44.384 45.3289 44.3893 45.4943 44.4C45.6649 44.4107 45.8196 44.4293 45.9583 44.456C46.1023 44.4773 46.2489 44.5067 46.3983 44.544L46.3263 45.08C46.1663 45.064 46.0169 45.0507 45.8783 45.04C45.7449 45.0293 45.6009 45.0213 45.4463 45.016C45.2916 45.0107 45.1076 45.008 44.8943 45.008C44.5369 45.008 44.2543 45.0773 44.0463 45.216C43.8383 45.3547 43.6889 45.5867 43.5983 45.912C43.5129 46.2373 43.4703 46.68 43.4703 47.24C43.4703 47.8 43.5129 48.2427 43.5983 48.568C43.6889 48.8933 43.8383 49.1253 44.0463 49.264C44.2543 49.4027 44.5369 49.472 44.8943 49.472C45.2356 49.472 45.5209 49.4667 45.7503 49.456C45.9849 49.44 46.2143 49.416 46.4383 49.384L46.5103 49.912C46.2809 49.976 46.0436 50.0213 45.7983 50.048C45.5583 50.08 45.2569 50.096 44.8943 50.096C44.3663 50.096 43.9423 50.0053 43.6223 49.824C43.3076 49.6373 43.0783 49.336 42.9343 48.92C42.7956 48.504 42.7263 47.944 42.7263 47.24C42.7263 46.536 42.7956 45.976 42.9343 45.56C43.0783 45.144 43.3076 44.8453 43.6223 44.664C43.9423 44.4773 44.3663 44.384 44.8943 44.384ZM49.3928 44.408C49.8354 44.408 50.1848 44.4587 50.4408 44.56C50.7021 44.6613 50.8888 44.8373 51.0008 45.088C51.1128 45.3333 51.1688 45.6827 51.1688 46.136C51.1688 46.5893 51.1128 46.9413 51.0008 47.192C50.8941 47.4427 50.7154 47.6187 50.4648 47.72C50.2194 47.816 49.8888 47.864 49.4728 47.864C49.2488 47.864 49.0328 47.8587 48.8248 47.848C48.6221 47.8373 48.4354 47.824 48.2648 47.808C48.0941 47.7867 47.9474 47.7653 47.8248 47.744C47.7074 47.7227 47.6248 47.704 47.5768 47.688L47.6008 47.256C47.8834 47.256 48.1768 47.256 48.4808 47.256C48.7848 47.256 49.0861 47.256 49.3848 47.256C49.6514 47.2507 49.8621 47.2187 50.0168 47.16C50.1768 47.096 50.2888 46.984 50.3528 46.824C50.4221 46.6587 50.4568 46.4293 50.4568 46.136C50.4568 45.8373 50.4221 45.608 50.3528 45.448C50.2888 45.288 50.1768 45.176 50.0168 45.112C49.8621 45.048 49.6514 45.016 49.3848 45.016C48.9474 45.016 48.5688 45.0187 48.2488 45.024C47.9341 45.0293 47.7208 45.0373 47.6088 45.048L47.4968 44.48C47.6994 44.4587 47.8888 44.4427 48.0648 44.432C48.2408 44.4213 48.4328 44.416 48.6408 44.416C48.8488 44.4107 49.0994 44.408 49.3928 44.408ZM48.2008 44.48V50H47.4968V44.48H48.2008ZM56.1915 44.48V47.888C56.1915 48.4213 56.1275 48.8507 55.9995 49.176C55.8715 49.5013 55.6635 49.7387 55.3755 49.888C55.0875 50.032 54.7009 50.104 54.2155 50.104C53.7195 50.104 53.3222 50.032 53.0235 49.888C52.7249 49.7387 52.5089 49.5013 52.3755 49.176C52.2422 48.8507 52.1755 48.4213 52.1755 47.888V44.48H52.8795V47.888C52.8795 48.2827 52.9195 48.5973 52.9995 48.832C53.0849 49.0613 53.2235 49.2267 53.4155 49.328C53.6075 49.424 53.8635 49.472 54.1835 49.472C54.5035 49.472 54.7569 49.424 54.9435 49.328C55.1355 49.2267 55.2742 49.0613 55.3595 48.832C55.4449 48.5973 55.4875 48.2827 55.4875 47.888V44.48H56.1915ZM57.8012 49.056C57.8972 49.056 57.9612 49.0747 57.9932 49.112C58.0305 49.1493 58.0492 49.216 58.0492 49.312V49.824C58.0492 49.9733 58.0358 50.12 58.0092 50.264C57.9878 50.408 57.9558 50.544 57.9132 50.672C57.8758 50.8053 57.8278 50.9333 57.7692 51.056L57.4492 50.96C57.4758 50.7947 57.4945 50.6427 57.5052 50.504C57.5212 50.3653 57.5292 50.1973 57.5292 50C57.4012 50 57.3372 49.9253 57.3372 49.776V49.312C57.3425 49.216 57.3665 49.1493 57.4092 49.112C57.4518 49.0747 57.5158 49.056 57.6012 49.056H57.8012ZM62.9867 44.408C63.4134 44.408 63.7574 44.456 64.0187 44.552C64.2801 44.6427 64.4694 44.8027 64.5867 45.032C64.7094 45.2613 64.7707 45.584 64.7707 46C64.7707 46.2987 64.7361 46.5493 64.6667 46.752C64.5974 46.9493 64.4881 47.104 64.3387 47.216C64.1947 47.3227 64.0001 47.392 63.7547 47.424V47.464C63.8454 47.4853 63.9334 47.5307 64.0187 47.6C64.1094 47.664 64.1921 47.752 64.2667 47.864C64.3414 47.9707 64.3974 48.1013 64.4347 48.256L64.9707 50H64.2187L63.7307 48.272C63.6614 48.064 63.5681 47.9173 63.4507 47.832C63.3334 47.7413 63.1814 47.696 62.9947 47.696C62.6694 47.696 62.3867 47.696 62.1467 47.696C61.9067 47.6907 61.7067 47.6853 61.5467 47.68C61.3867 47.6747 61.2587 47.672 61.1627 47.672L61.1867 47.088H62.9707C63.2427 47.0827 63.4561 47.0507 63.6107 46.992C63.7707 46.9333 63.8854 46.8293 63.9547 46.68C64.0241 46.5253 64.0587 46.312 64.0587 46.04C64.0587 45.768 64.0241 45.56 63.9547 45.416C63.8854 45.2667 63.7707 45.1627 63.6107 45.104C63.4561 45.0453 63.2427 45.016 62.9707 45.016C62.5334 45.016 62.1547 45.0187 61.8347 45.024C61.5201 45.0293 61.3067 45.032 61.1947 45.032L61.0827 44.48C61.2854 44.4587 61.4747 44.4427 61.6507 44.432C61.8267 44.4213 62.0187 44.416 62.2267 44.416C62.4401 44.4107 62.6934 44.408 62.9867 44.408ZM61.7787 44.48V50H61.0827V44.48H61.7787ZM68.188 44.48C68.252 44.48 68.308 44.4987 68.356 44.536C68.404 44.568 68.436 44.6133 68.452 44.672L70.228 50H69.5L68.068 45.472C68.0467 45.3973 68.0227 45.3227 67.996 45.248C67.9747 45.168 67.9534 45.0933 67.932 45.024H67.708C67.6867 45.0933 67.6654 45.168 67.644 45.248C67.6227 45.3227 67.5987 45.3973 67.572 45.472L66.14 50H65.412L67.188 44.672C67.204 44.6133 67.236 44.568 67.284 44.536C67.332 44.4987 67.388 44.48 67.452 44.48H68.188ZM69.212 47.664V48.272H66.412V47.664H69.212ZM76.2206 44.48C76.4126 44.48 76.5086 44.5787 76.5086 44.776L76.7406 50H76.0366L75.8366 45.064H75.6686L74.4366 49.136C74.3939 49.296 74.2926 49.376 74.1326 49.376H73.5006C73.3353 49.376 73.2286 49.296 73.1806 49.136L71.9486 45.064H71.7886L71.5966 50H70.8926L71.1086 44.776C71.1193 44.5787 71.2179 44.48 71.4046 44.48H72.2046C72.3539 44.48 72.4526 44.56 72.5006 44.72L73.5326 48.088C73.5753 48.2107 73.6099 48.3333 73.6366 48.456C73.6686 48.5787 73.7033 48.704 73.7406 48.832H73.8846C73.9219 48.704 73.9566 48.5787 73.9886 48.456C74.0206 48.3333 74.0553 48.2053 74.0926 48.072L75.1246 44.72C75.1673 44.56 75.2686 44.48 75.4286 44.48H76.2206ZM78.3402 49.056C78.4362 49.056 78.5002 49.0747 78.5322 49.112C78.5696 49.1493 78.5882 49.216 78.5882 49.312V49.824C78.5882 49.9733 78.5749 50.12 78.5482 50.264C78.5269 50.408 78.4949 50.544 78.4522 50.672C78.4149 50.8053 78.3669 50.9333 78.3082 51.056L77.9882 50.96C78.0149 50.7947 78.0336 50.6427 78.0442 50.504C78.0602 50.3653 78.0682 50.1973 78.0682 50C77.9402 50 77.8762 49.9253 77.8762 49.776V49.312C77.8816 49.216 77.9056 49.1493 77.9482 49.112C77.9909 49.0747 78.0549 49.056 78.1402 49.056H78.3402ZM83.5898 44.408C83.9844 44.408 84.3178 44.456 84.5898 44.552C84.8671 44.648 85.0884 44.8053 85.2538 45.024C85.4244 45.2427 85.5471 45.5333 85.6218 45.896C85.7018 46.2587 85.7418 46.7067 85.7418 47.24C85.7418 47.7733 85.7018 48.2213 85.6218 48.584C85.5471 48.9467 85.4244 49.2373 85.2538 49.456C85.0884 49.6747 84.8671 49.832 84.5898 49.928C84.3178 50.024 83.9844 50.072 83.5898 50.072C83.2111 50.072 82.8591 50.064 82.5338 50.048C82.2138 50.0373 81.9098 50.0213 81.6218 50L81.9258 49.424C82.1498 49.4293 82.3978 49.4373 82.6698 49.448C82.9471 49.4533 83.2538 49.456 83.5898 49.456C83.9418 49.456 84.2218 49.3893 84.4298 49.256C84.6378 49.1173 84.7844 48.888 84.8698 48.568C84.9604 48.2427 85.0058 47.8 85.0058 47.24C85.0058 46.68 84.9604 46.24 84.8698 45.92C84.7844 45.5947 84.6378 45.3627 84.4298 45.224C84.2218 45.0853 83.9418 45.016 83.5898 45.016C83.2591 45.016 82.9604 45.0187 82.6938 45.024C82.4324 45.0293 82.1764 45.0347 81.9258 45.04L81.6218 44.48C81.9098 44.4587 82.2138 44.4427 82.5338 44.432C82.8591 44.416 83.2111 44.408 83.5898 44.408ZM82.3258 44.48V50H81.6218V44.48H82.3258ZM87.6383 44.48V50H86.9343V44.48H87.6383ZM90.564 44.384C90.8254 44.3893 91.0947 44.4027 91.372 44.424C91.6494 44.4453 91.9267 44.4853 92.204 44.544L92.156 45.056C91.9267 45.0453 91.6734 45.0373 91.396 45.032C91.1187 45.0213 90.852 45.016 90.596 45.016C90.3987 45.016 90.228 45.024 90.084 45.04C89.9454 45.0507 89.8307 45.0827 89.74 45.136C89.6494 45.184 89.5827 45.2667 89.54 45.384C89.5027 45.496 89.484 45.6533 89.484 45.856C89.484 46.16 89.5374 46.3733 89.644 46.496C89.756 46.6133 89.9347 46.7013 90.18 46.76L91.3 47.04C91.7267 47.1413 92.0174 47.32 92.172 47.576C92.332 47.8267 92.412 48.1653 92.412 48.592C92.412 48.912 92.3747 49.1707 92.3 49.368C92.2307 49.5653 92.1214 49.7173 91.972 49.824C91.8227 49.9253 91.6307 49.9947 91.396 50.032C91.1614 50.0747 90.884 50.096 90.564 50.096C90.3827 50.096 90.1454 50.088 89.852 50.072C89.564 50.056 89.2307 50.0133 88.852 49.944L88.9 49.424C89.2147 49.4347 89.468 49.4453 89.66 49.456C89.852 49.4613 90.0174 49.464 90.156 49.464C90.2947 49.464 90.4387 49.464 90.588 49.464C90.8707 49.464 91.092 49.4427 91.252 49.4C91.4174 49.3573 91.532 49.272 91.596 49.144C91.6654 49.016 91.7 48.8267 91.7 48.576C91.7 48.3627 91.676 48.1973 91.628 48.08C91.58 47.9627 91.5027 47.8747 91.396 47.816C91.2947 47.752 91.164 47.7013 91.004 47.664L89.86 47.376C89.46 47.2747 89.1774 47.0987 89.012 46.848C88.852 46.5973 88.772 46.2613 88.772 45.84C88.772 45.52 88.8067 45.264 88.876 45.072C88.9507 44.8747 89.06 44.728 89.204 44.632C89.3534 44.5307 89.54 44.464 89.764 44.432C89.988 44.4 90.2547 44.384 90.564 44.384ZM97.2804 44.48L95.6724 46.768C95.6244 46.8373 95.5764 46.8987 95.5284 46.952C95.4857 47 95.4324 47.056 95.3684 47.12V47.136C95.4377 47.2 95.5017 47.264 95.5604 47.328C95.6191 47.392 95.6697 47.456 95.7124 47.52L97.3924 50H96.6004L94.6404 47.112L96.5124 44.48H97.2804ZM94.2084 44.48V46.208C94.2084 46.368 94.2004 46.52 94.1844 46.664C94.1684 46.808 94.1444 46.9573 94.1124 47.112C94.1391 47.2613 94.1604 47.4107 94.1764 47.56C94.1977 47.7093 94.2084 47.8533 94.2084 47.992V50H93.5124V44.48H94.2084ZM95.0244 46.84V47.408H93.9604V46.84H95.0244ZM98.559 49.056C98.655 49.056 98.719 49.0747 98.751 49.112C98.7883 49.1493 98.807 49.216 98.807 49.312V49.824C98.807 49.9733 98.7936 50.12 98.767 50.264C98.7456 50.408 98.7136 50.544 98.671 50.672C98.6336 50.8053 98.5856 50.9333 98.527 51.056L98.207 50.96C98.2336 50.7947 98.2523 50.6427 98.263 50.504C98.279 50.3653 98.287 50.1973 98.287 50C98.159 50 98.095 49.9253 98.095 49.776V49.312C98.1003 49.216 98.1243 49.1493 98.167 49.112C98.2096 49.0747 98.2736 49.056 98.359 49.056H98.559ZM103.369 46.008C103.955 46.008 104.379 46.1147 104.641 46.328C104.907 46.5413 105.041 46.8587 105.041 47.28C105.046 47.6267 104.974 47.8987 104.825 48.096C104.675 48.288 104.438 48.384 104.113 48.384H101.841V47.856H103.937C104.113 47.856 104.227 47.7973 104.281 47.68C104.334 47.5573 104.361 47.424 104.361 47.28C104.355 47.0293 104.281 46.8507 104.137 46.744C103.993 46.6373 103.747 46.584 103.401 46.584C103.118 46.584 102.894 46.6267 102.729 46.712C102.569 46.792 102.454 46.936 102.385 47.144C102.321 47.3467 102.289 47.632 102.289 48C102.289 48.416 102.329 48.7333 102.409 48.952C102.494 49.1707 102.627 49.32 102.809 49.4C102.99 49.48 103.23 49.52 103.529 49.52C103.737 49.52 103.963 49.512 104.209 49.496C104.459 49.4747 104.683 49.4507 104.881 49.424L104.953 49.88C104.83 49.928 104.678 49.968 104.497 50C104.321 50.032 104.137 50.056 103.945 50.072C103.758 50.088 103.59 50.096 103.441 50.096C102.993 50.096 102.633 50.0293 102.361 49.896C102.089 49.7573 101.889 49.5387 101.761 49.24C101.638 48.936 101.577 48.536 101.577 48.04C101.577 47.528 101.638 47.1253 101.761 46.832C101.889 46.5333 102.083 46.3227 102.345 46.2C102.611 46.072 102.953 46.008 103.369 46.008ZM107.041 44.952V48.928C107.041 49.1147 107.081 49.248 107.161 49.328C107.241 49.408 107.377 49.448 107.569 49.448H108.161L108.241 49.968C108.156 49.9893 108.057 50.008 107.945 50.024C107.833 50.04 107.724 50.0507 107.617 50.056C107.511 50.0667 107.425 50.072 107.361 50.072C107.036 50.072 106.788 49.9813 106.617 49.8C106.447 49.6187 106.361 49.3573 106.361 49.016V44.952H107.041ZM108.281 46.104V46.64H105.657V46.144L106.425 46.104H108.281ZM110.776 46.008C110.894 46.008 111.024 46.0133 111.168 46.024C111.312 46.0347 111.459 46.0533 111.608 46.08C111.763 46.1067 111.904 46.144 112.032 46.192L111.944 46.632C111.768 46.616 111.582 46.6053 111.384 46.6C111.192 46.5893 111.027 46.584 110.888 46.584C110.579 46.584 110.334 46.6267 110.152 46.712C109.971 46.7973 109.84 46.9467 109.76 47.16C109.68 47.3733 109.64 47.6693 109.64 48.048C109.64 48.4267 109.68 48.7253 109.76 48.944C109.84 49.1573 109.971 49.3067 110.152 49.392C110.334 49.4773 110.579 49.52 110.888 49.52C110.968 49.52 111.072 49.5173 111.2 49.512C111.328 49.5067 111.464 49.4987 111.608 49.488C111.758 49.4773 111.899 49.4613 112.032 49.44L112.104 49.896C111.907 49.9653 111.691 50.016 111.456 50.048C111.227 50.08 110.998 50.096 110.768 50.096C110.32 50.096 109.96 50.0293 109.688 49.896C109.416 49.7627 109.219 49.5467 109.096 49.248C108.979 48.9493 108.92 48.5493 108.92 48.048C108.92 47.5467 108.982 47.1467 109.104 46.848C109.227 46.5493 109.424 46.336 109.696 46.208C109.968 46.0747 110.328 46.008 110.776 46.008ZM113.426 49.056C113.522 49.056 113.589 49.0747 113.626 49.112C113.664 49.1493 113.682 49.216 113.682 49.312V49.744C113.682 49.84 113.664 49.9067 113.626 49.944C113.589 49.9813 113.522 50 113.426 50H113.202C113.112 50 113.045 49.9813 113.002 49.944C112.965 49.9067 112.946 49.84 112.946 49.744V49.312C112.946 49.216 112.965 49.1493 113.002 49.112C113.045 49.0747 113.112 49.056 113.202 49.056H113.426ZM115.254 49.056C115.35 49.056 115.417 49.0747 115.454 49.112C115.492 49.1493 115.51 49.216 115.51 49.312V49.744C115.51 49.84 115.492 49.9067 115.454 49.944C115.417 49.9813 115.35 50 115.254 50H115.03C114.94 50 114.873 49.9813 114.83 49.944C114.793 49.9067 114.774 49.84 114.774 49.744V49.312C114.774 49.216 114.793 49.1493 114.83 49.112C114.873 49.0747 114.94 49.056 115.03 49.056H115.254ZM117.083 49.056C117.179 49.056 117.245 49.0747 117.283 49.112C117.32 49.1493 117.339 49.216 117.339 49.312V49.744C117.339 49.84 117.32 49.9067 117.283 49.944C117.245 49.9813 117.179 50 117.083 50H116.859C116.768 50 116.701 49.9813 116.659 49.944C116.621 49.9067 116.603 49.84 116.603 49.744V49.312C116.603 49.216 116.621 49.1493 116.659 49.112C116.701 49.0747 116.768 49.056 116.859 49.056H117.083Z" fill="black"/>
<path d="M222.637 132.48C222.701 132.48 222.757 132.499 222.805 132.536C222.853 132.568 222.885 132.613 222.901 132.672L224.677 138H223.949L222.517 133.472C222.496 133.397 222.472 133.323 222.445 133.248C222.424 133.168 222.403 133.093 222.381 133.024H222.157C222.136 133.093 222.115 133.168 222.093 133.248C222.072 133.323 222.048 133.397 222.021 133.472L220.589 138H219.861L221.637 132.672C221.653 132.613 221.685 132.568 221.733 132.536C221.781 132.499 221.837 132.48 221.901 132.48H222.637ZM223.661 135.664V136.272H220.861V135.664H223.661ZM226.678 134.008C226.934 134.008 227.187 134.043 227.438 134.112C227.688 134.176 227.928 134.277 228.158 134.416L228.118 134.84C227.867 134.765 227.646 134.707 227.454 134.664C227.262 134.621 227.056 134.6 226.838 134.6C226.614 134.6 226.432 134.64 226.294 134.72C226.16 134.795 226.062 134.936 225.998 135.144C225.934 135.352 225.902 135.648 225.902 136.032C225.902 136.416 225.931 136.715 225.99 136.928C226.054 137.141 226.152 137.291 226.286 137.376C226.419 137.461 226.59 137.504 226.798 137.504C226.952 137.504 227.091 137.485 227.214 137.448C227.342 137.405 227.475 137.339 227.614 137.248C227.758 137.157 227.926 137.043 228.118 136.904L228.182 137.384C227.968 137.581 227.726 137.749 227.454 137.888C227.182 138.027 226.888 138.096 226.574 138.096C226.083 138.096 225.731 137.923 225.518 137.576C225.31 137.229 225.206 136.717 225.206 136.04C225.206 135.533 225.259 135.133 225.366 134.84C225.472 134.541 225.635 134.328 225.854 134.2C226.072 134.072 226.347 134.008 226.678 134.008ZM228.71 132.4V138H228.182L228.102 137.32L228.03 137.264V134.592L228.078 134.472C228.056 134.323 228.043 134.179 228.038 134.04C228.032 133.901 228.03 133.755 228.03 133.6V132.4H228.71ZM230.672 134.104V138H230V134.104H230.672ZM230.496 132.448C230.634 132.448 230.704 132.517 230.704 132.656V133.112C230.704 133.251 230.634 133.32 230.496 133.32H230.176C230.037 133.32 229.968 133.251 229.968 133.112V132.656C229.968 132.517 230.037 132.448 230.176 132.448H230.496ZM233.616 134.008C233.733 134.008 233.864 134.013 234.008 134.024C234.152 134.035 234.299 134.053 234.448 134.08C234.603 134.107 234.744 134.144 234.872 134.192L234.784 134.632C234.608 134.616 234.421 134.605 234.224 134.6C234.032 134.589 233.867 134.584 233.728 134.584C233.419 134.584 233.173 134.627 232.992 134.712C232.811 134.797 232.68 134.947 232.6 135.16C232.52 135.373 232.48 135.669 232.48 136.048C232.48 136.427 232.52 136.725 232.6 136.944C232.68 137.157 232.811 137.307 232.992 137.392C233.173 137.477 233.419 137.52 233.728 137.52C233.808 137.52 233.912 137.517 234.04 137.512C234.168 137.507 234.304 137.499 234.448 137.488C234.597 137.477 234.739 137.461 234.872 137.44L234.944 137.896C234.747 137.965 234.531 138.016 234.296 138.048C234.067 138.08 233.837 138.096 233.608 138.096C233.16 138.096 232.8 138.029 232.528 137.896C232.256 137.763 232.059 137.547 231.936 137.248C231.819 136.949 231.76 136.549 231.76 136.048C231.76 135.547 231.821 135.147 231.944 134.848C232.067 134.549 232.264 134.336 232.536 134.208C232.808 134.075 233.168 134.008 233.616 134.008ZM236.57 134.104V138H235.898V134.104H236.57ZM236.394 132.448C236.533 132.448 236.602 132.517 236.602 132.656V133.112C236.602 133.251 236.533 133.32 236.394 133.32H236.074C235.936 133.32 235.866 133.251 235.866 133.112V132.656C235.866 132.517 235.936 132.448 236.074 132.448H236.394ZM239.499 134.008C239.947 134.008 240.304 134.075 240.571 134.208C240.843 134.341 241.037 134.56 241.155 134.864C241.272 135.163 241.331 135.56 241.331 136.056C241.331 136.552 241.272 136.952 241.155 137.256C241.037 137.555 240.843 137.771 240.571 137.904C240.304 138.037 239.947 138.104 239.499 138.104C239.056 138.104 238.699 138.037 238.427 137.904C238.16 137.771 237.965 137.555 237.843 137.256C237.725 136.952 237.667 136.552 237.667 136.056C237.667 135.56 237.725 135.163 237.843 134.864C237.965 134.56 238.16 134.341 238.427 134.208C238.699 134.075 239.056 134.008 239.499 134.008ZM239.499 134.584C239.216 134.584 238.992 134.629 238.827 134.72C238.667 134.805 238.552 134.955 238.483 135.168C238.413 135.381 238.379 135.677 238.379 136.056C238.379 136.435 238.413 136.731 238.483 136.944C238.552 137.157 238.667 137.309 238.827 137.4C238.992 137.485 239.216 137.528 239.499 137.528C239.781 137.528 240.005 137.485 240.171 137.4C240.336 137.309 240.453 137.157 240.523 136.944C240.592 136.731 240.627 136.435 240.627 136.056C240.627 135.677 240.592 135.381 240.523 135.168C240.453 134.955 240.336 134.805 240.171 134.72C240.005 134.629 239.781 134.584 239.499 134.584ZM244.765 134.008C245.469 134.008 245.821 134.365 245.821 135.08V138H245.141V135.272C245.141 135.011 245.099 134.832 245.013 134.736C244.928 134.635 244.784 134.584 244.581 134.584C244.341 134.584 244.101 134.643 243.861 134.76C243.621 134.877 243.336 135.037 243.005 135.24L242.973 134.752C243.277 134.517 243.579 134.336 243.877 134.208C244.176 134.075 244.472 134.008 244.765 134.008ZM242.973 134.104L243.029 134.848L243.077 134.968V138H242.397V134.104H242.973ZM248.886 134.008C249.174 134.008 249.417 134.048 249.614 134.128C249.817 134.203 249.969 134.331 250.07 134.512C250.171 134.693 250.222 134.941 250.222 135.256V138H249.686L249.582 137.152L249.534 137.064V135.256C249.534 135.016 249.478 134.845 249.366 134.744C249.259 134.637 249.051 134.584 248.742 134.584C248.539 134.584 248.283 134.595 247.974 134.616C247.67 134.637 247.369 134.661 247.07 134.688L247.006 134.184C247.187 134.152 247.385 134.123 247.598 134.096C247.817 134.069 248.038 134.048 248.262 134.032C248.486 134.016 248.694 134.008 248.886 134.008ZM249.902 135.6L249.894 136.112L248.03 136.12C247.843 136.125 247.713 136.176 247.638 136.272C247.563 136.363 247.526 136.491 247.526 136.656V136.904C247.526 137.107 247.574 137.256 247.67 137.352C247.766 137.443 247.921 137.488 248.134 137.488C248.283 137.488 248.451 137.461 248.638 137.408C248.83 137.349 249.022 137.261 249.214 137.144C249.406 137.027 249.582 136.877 249.742 136.696V137.2C249.683 137.275 249.598 137.363 249.486 137.464C249.379 137.56 249.249 137.656 249.094 137.752C248.945 137.843 248.777 137.92 248.59 137.984C248.409 138.043 248.211 138.072 247.998 138.072C247.769 138.072 247.566 138.032 247.39 137.952C247.214 137.867 247.075 137.744 246.974 137.584C246.878 137.419 246.83 137.219 246.83 136.984V136.56C246.83 136.256 246.923 136.021 247.11 135.856C247.302 135.685 247.569 135.6 247.91 135.6H249.902ZM257.962 134.008C258.298 134.008 258.554 134.099 258.73 134.28C258.911 134.461 259.002 134.728 259.002 135.08V138H258.33V135.272C258.324 135.032 258.276 134.859 258.186 134.752C258.095 134.64 257.94 134.584 257.722 134.584C257.583 134.584 257.45 134.608 257.322 134.656C257.199 134.699 257.063 134.768 256.914 134.864C256.764 134.96 256.583 135.085 256.37 135.24L256.33 134.76C256.612 134.509 256.887 134.323 257.154 134.2C257.42 134.072 257.69 134.008 257.962 134.008ZM253.778 134.104L253.826 134.848L253.898 134.968V138H253.218V134.104H253.778ZM255.41 134.008C255.74 134.008 255.994 134.099 256.17 134.28C256.346 134.456 256.436 134.723 256.442 135.08V138H255.786V135.272C255.786 135.021 255.735 134.845 255.634 134.744C255.532 134.637 255.38 134.584 255.178 134.584C255.044 134.584 254.914 134.605 254.786 134.648C254.663 134.691 254.524 134.76 254.37 134.856C254.22 134.952 254.036 135.08 253.818 135.24L253.77 134.76C254.052 134.509 254.327 134.323 254.594 134.2C254.86 134.072 255.132 134.008 255.41 134.008ZM262.066 134.008C262.354 134.008 262.596 134.048 262.794 134.128C262.996 134.203 263.148 134.331 263.25 134.512C263.351 134.693 263.402 134.941 263.402 135.256V138H262.866L262.762 137.152L262.714 137.064V135.256C262.714 135.016 262.658 134.845 262.546 134.744C262.439 134.637 262.231 134.584 261.922 134.584C261.719 134.584 261.463 134.595 261.154 134.616C260.85 134.637 260.548 134.661 260.25 134.688L260.186 134.184C260.367 134.152 260.564 134.123 260.778 134.096C260.996 134.069 261.218 134.048 261.442 134.032C261.666 134.016 261.874 134.008 262.066 134.008ZM263.082 135.6L263.074 136.112L261.21 136.12C261.023 136.125 260.892 136.176 260.818 136.272C260.743 136.363 260.706 136.491 260.706 136.656V136.904C260.706 137.107 260.754 137.256 260.85 137.352C260.946 137.443 261.1 137.488 261.314 137.488C261.463 137.488 261.631 137.461 261.818 137.408C262.01 137.349 262.202 137.261 262.394 137.144C262.586 137.027 262.762 136.877 262.922 136.696V137.2C262.863 137.275 262.778 137.363 262.666 137.464C262.559 137.56 262.428 137.656 262.274 137.752C262.124 137.843 261.956 137.92 261.77 137.984C261.588 138.043 261.391 138.072 261.178 138.072C260.948 138.072 260.746 138.032 260.57 137.952C260.394 137.867 260.255 137.744 260.154 137.584C260.058 137.419 260.01 137.219 260.01 136.984V136.56C260.01 136.256 260.103 136.021 260.29 135.856C260.482 135.685 260.748 135.6 261.09 135.6H263.082ZM265.32 134.104V138H264.648V134.104H265.32ZM265.144 132.448C265.283 132.448 265.352 132.517 265.352 132.656V133.112C265.352 133.251 265.283 133.32 265.144 133.32H264.824C264.686 133.32 264.616 133.251 264.616 133.112V132.656C264.616 132.517 264.686 132.448 264.824 132.448H265.144ZM267.897 134.008C268.067 134.008 268.249 134.013 268.441 134.024C268.633 134.035 268.822 134.048 269.009 134.064C269.201 134.08 269.377 134.101 269.537 134.128L269.481 134.624C269.235 134.613 268.987 134.605 268.737 134.6C268.491 134.589 268.246 134.584 268.001 134.584C267.761 134.579 267.571 134.584 267.433 134.6C267.294 134.616 267.193 134.659 267.129 134.728C267.07 134.797 267.041 134.915 267.041 135.08C267.041 135.283 267.089 135.416 267.185 135.48C267.281 135.544 267.422 135.597 267.609 135.64L268.745 135.896C269.054 135.971 269.281 136.085 269.425 136.24C269.574 136.395 269.649 136.637 269.649 136.968C269.649 137.288 269.587 137.528 269.465 137.688C269.347 137.848 269.166 137.955 268.921 138.008C268.675 138.061 268.363 138.088 267.985 138.088C267.846 138.088 267.638 138.083 267.361 138.072C267.089 138.061 266.787 138.029 266.457 137.976L266.505 137.48C266.633 137.485 266.769 137.493 266.913 137.504C267.057 137.509 267.206 137.512 267.361 137.512C267.521 137.512 267.683 137.512 267.849 137.512C268.142 137.512 268.371 137.499 268.537 137.472C268.702 137.445 268.819 137.395 268.889 137.32C268.958 137.24 268.993 137.123 268.993 136.968C268.993 136.776 268.937 136.648 268.825 136.584C268.713 136.52 268.563 136.467 268.377 136.424L267.257 136.168C267.043 136.115 266.873 136.045 266.745 135.96C266.617 135.869 266.523 135.755 266.465 135.616C266.406 135.472 266.377 135.293 266.377 135.08C266.377 134.776 266.43 134.547 266.537 134.392C266.643 134.237 266.809 134.133 267.033 134.08C267.257 134.027 267.545 134.003 267.897 134.008ZM273.74 134.008C273.911 134.008 274.092 134.013 274.284 134.024C274.476 134.035 274.666 134.048 274.852 134.064C275.044 134.08 275.22 134.101 275.38 134.128L275.324 134.624C275.079 134.613 274.831 134.605 274.58 134.6C274.335 134.589 274.09 134.584 273.844 134.584C273.604 134.579 273.415 134.584 273.276 134.6C273.138 134.616 273.036 134.659 272.972 134.728C272.914 134.797 272.884 134.915 272.884 135.08C272.884 135.283 272.932 135.416 273.028 135.48C273.124 135.544 273.266 135.597 273.452 135.64L274.588 135.896C274.898 135.971 275.124 136.085 275.268 136.24C275.418 136.395 275.492 136.637 275.492 136.968C275.492 137.288 275.431 137.528 275.308 137.688C275.191 137.848 275.01 137.955 274.764 138.008C274.519 138.061 274.207 138.088 273.828 138.088C273.69 138.088 273.482 138.083 273.204 138.072C272.932 138.061 272.631 138.029 272.3 137.976L272.348 137.48C272.476 137.485 272.612 137.493 272.756 137.504C272.9 137.509 273.05 137.512 273.204 137.512C273.364 137.512 273.527 137.512 273.692 137.512C273.986 137.512 274.215 137.499 274.38 137.472C274.546 137.445 274.663 137.395 274.732 137.32C274.802 137.24 274.836 137.123 274.836 136.968C274.836 136.776 274.78 136.648 274.668 136.584C274.556 136.52 274.407 136.467 274.22 136.424L273.1 136.168C272.887 136.115 272.716 136.045 272.588 135.96C272.46 135.869 272.367 135.755 272.308 135.616C272.25 135.472 272.22 135.293 272.22 135.08C272.22 134.776 272.274 134.547 272.38 134.392C272.487 134.237 272.652 134.133 272.876 134.08C273.1 134.027 273.388 134.003 273.74 134.008ZM278.107 134.008C278.693 134.008 279.117 134.115 279.379 134.328C279.645 134.541 279.779 134.859 279.779 135.28C279.784 135.627 279.712 135.899 279.563 136.096C279.413 136.288 279.176 136.384 278.851 136.384H276.579V135.856H278.675C278.851 135.856 278.965 135.797 279.019 135.68C279.072 135.557 279.099 135.424 279.099 135.28C279.093 135.029 279.019 134.851 278.875 134.744C278.731 134.637 278.485 134.584 278.139 134.584C277.856 134.584 277.632 134.627 277.467 134.712C277.307 134.792 277.192 134.936 277.123 135.144C277.059 135.347 277.027 135.632 277.027 136C277.027 136.416 277.067 136.733 277.147 136.952C277.232 137.171 277.365 137.32 277.547 137.4C277.728 137.48 277.968 137.52 278.267 137.52C278.475 137.52 278.701 137.512 278.947 137.496C279.197 137.475 279.421 137.451 279.619 137.424L279.691 137.88C279.568 137.928 279.416 137.968 279.235 138C279.059 138.032 278.875 138.056 278.683 138.072C278.496 138.088 278.328 138.096 278.179 138.096C277.731 138.096 277.371 138.029 277.099 137.896C276.827 137.757 276.627 137.539 276.499 137.24C276.376 136.936 276.315 136.536 276.315 136.04C276.315 135.528 276.376 135.125 276.499 134.832C276.627 134.533 276.821 134.323 277.083 134.2C277.349 134.072 277.691 134.008 278.107 134.008ZM281.332 134.104L281.42 134.848L281.484 134.968V138H280.804V134.104H281.332ZM283.244 134.008L283.164 134.648H282.94C282.71 134.648 282.481 134.696 282.252 134.792C282.022 134.883 281.742 135.013 281.412 135.184L281.356 134.76C281.644 134.525 281.932 134.341 282.22 134.208C282.513 134.075 282.796 134.008 283.068 134.008H283.244ZM287.479 134.104L286.055 137.832C286.033 137.885 286.001 137.928 285.959 137.96C285.921 137.987 285.873 138 285.815 138H285.199C285.145 138 285.097 137.987 285.055 137.96C285.012 137.928 284.98 137.885 284.959 137.832L283.535 134.104H284.263L285.223 136.832C285.265 136.944 285.305 137.059 285.343 137.176C285.38 137.293 285.417 137.405 285.455 137.512H285.559C285.601 137.4 285.641 137.288 285.679 137.176C285.721 137.059 285.761 136.944 285.799 136.832L286.759 134.104H287.479ZM288.961 134.104V138H288.289V134.104H288.961ZM288.785 132.448C288.923 132.448 288.993 132.517 288.993 132.656V133.112C288.993 133.251 288.923 133.32 288.785 133.32H288.465C288.326 133.32 288.257 133.251 288.257 133.112V132.656C288.257 132.517 288.326 132.448 288.465 132.448H288.785ZM291.537 134.008C291.793 134.008 292.047 134.043 292.297 134.112C292.548 134.176 292.788 134.277 293.017 134.416L292.977 134.84C292.727 134.765 292.505 134.707 292.313 134.664C292.121 134.621 291.916 134.6 291.697 134.6C291.473 134.6 291.292 134.64 291.153 134.72C291.02 134.795 290.921 134.936 290.857 135.144C290.793 135.352 290.761 135.648 290.761 136.032C290.761 136.416 290.791 136.715 290.849 136.928C290.913 137.141 291.012 137.291 291.145 137.376C291.279 137.461 291.449 137.504 291.657 137.504C291.812 137.504 291.951 137.485 292.073 137.448C292.201 137.405 292.335 137.339 292.473 137.248C292.617 137.157 292.785 137.043 292.977 136.904L293.041 137.384C292.828 137.581 292.585 137.749 292.313 137.888C292.041 138.027 291.748 138.096 291.433 138.096C290.943 138.096 290.591 137.923 290.377 137.576C290.169 137.229 290.065 136.717 290.065 136.04C290.065 135.533 290.119 135.133 290.225 134.84C290.332 134.541 290.495 134.328 290.713 134.2C290.932 134.072 291.207 134.008 291.537 134.008ZM293.569 132.4V138H293.041L292.961 137.32L292.889 137.264V134.592L292.937 134.472C292.916 134.323 292.903 134.179 292.897 134.04C292.892 133.901 292.889 133.755 292.889 133.6V132.4H293.569ZM296.475 134.008C296.923 134.008 297.28 134.075 297.547 134.208C297.819 134.341 298.014 134.56 298.131 134.864C298.248 135.163 298.307 135.56 298.307 136.056C298.307 136.552 298.248 136.952 298.131 137.256C298.014 137.555 297.819 137.771 297.547 137.904C297.28 138.037 296.923 138.104 296.475 138.104C296.032 138.104 295.675 138.037 295.403 137.904C295.136 137.771 294.942 137.555 294.819 137.256C294.702 136.952 294.643 136.552 294.643 136.056C294.643 135.56 294.702 135.163 294.819 134.864C294.942 134.56 295.136 134.341 295.403 134.208C295.675 134.075 296.032 134.008 296.475 134.008ZM296.475 134.584C296.192 134.584 295.968 134.629 295.803 134.72C295.643 134.805 295.528 134.955 295.459 135.168C295.39 135.381 295.355 135.677 295.355 136.056C295.355 136.435 295.39 136.731 295.459 136.944C295.528 137.157 295.643 137.309 295.803 137.4C295.968 137.485 296.192 137.528 296.475 137.528C296.758 137.528 296.982 137.485 297.147 137.4C297.312 137.309 297.43 137.157 297.499 136.944C297.568 136.731 297.603 136.435 297.603 136.056C297.603 135.677 297.568 135.381 297.499 135.168C297.43 134.955 297.312 134.805 297.147 134.72C296.982 134.629 296.758 134.584 296.475 134.584ZM299.902 134.104L299.99 134.848L300.054 134.968V138H299.374V134.104H299.902ZM301.814 134.008L301.734 134.648H301.51C301.281 134.648 301.051 134.696 300.822 134.792C300.593 134.883 300.313 135.013 299.982 135.184L299.926 134.76C300.214 134.525 300.502 134.341 300.79 134.208C301.083 134.075 301.366 134.008 301.638 134.008H301.814ZM304.083 134.008C304.67 134.008 305.094 134.115 305.355 134.328C305.622 134.541 305.755 134.859 305.755 135.28C305.761 135.627 305.689 135.899 305.539 136.096C305.39 136.288 305.153 136.384 304.827 136.384H302.555V135.856H304.651C304.827 135.856 304.942 135.797 304.995 135.68C305.049 135.557 305.075 135.424 305.075 135.28C305.07 135.029 304.995 134.851 304.851 134.744C304.707 134.637 304.462 134.584 304.115 134.584C303.833 134.584 303.609 134.627 303.443 134.712C303.283 134.792 303.169 134.936 303.099 135.144C303.035 135.347 303.003 135.632 303.003 136C303.003 136.416 303.043 136.733 303.123 136.952C303.209 137.171 303.342 137.32 303.523 137.4C303.705 137.48 303.945 137.52 304.243 137.52C304.451 137.52 304.678 137.512 304.923 137.496C305.174 137.475 305.398 137.451 305.595 137.424L305.667 137.88C305.545 137.928 305.393 137.968 305.211 138C305.035 138.032 304.851 138.056 304.659 138.072C304.473 138.088 304.305 138.096 304.155 138.096C303.707 138.096 303.347 138.029 303.075 137.896C302.803 137.757 302.603 137.539 302.475 137.24C302.353 136.936 302.291 136.536 302.291 136.04C302.291 135.528 302.353 135.125 302.475 134.832C302.603 134.533 302.798 134.323 303.059 134.2C303.326 134.072 303.667 134.008 304.083 134.008ZM308.076 134.008C308.247 134.008 308.428 134.013 308.62 134.024C308.812 134.035 309.002 134.048 309.188 134.064C309.38 134.08 309.556 134.101 309.716 134.128L309.66 134.624C309.415 134.613 309.167 134.605 308.916 134.6C308.671 134.589 308.426 134.584 308.18 134.584C307.94 134.579 307.751 134.584 307.612 134.6C307.474 134.616 307.372 134.659 307.308 134.728C307.25 134.797 307.22 134.915 307.22 135.08C307.22 135.283 307.268 135.416 307.364 135.48C307.46 135.544 307.602 135.597 307.788 135.64L308.924 135.896C309.234 135.971 309.46 136.085 309.604 136.24C309.754 136.395 309.828 136.637 309.828 136.968C309.828 137.288 309.767 137.528 309.644 137.688C309.527 137.848 309.346 137.955 309.1 138.008C308.855 138.061 308.543 138.088 308.164 138.088C308.026 138.088 307.818 138.083 307.54 138.072C307.268 138.061 306.967 138.029 306.636 137.976L306.684 137.48C306.812 137.485 306.948 137.493 307.092 137.504C307.236 137.509 307.386 137.512 307.54 137.512C307.7 137.512 307.863 137.512 308.028 137.512C308.322 137.512 308.551 137.499 308.716 137.472C308.882 137.445 308.999 137.395 309.068 137.32C309.138 137.24 309.172 137.123 309.172 136.968C309.172 136.776 309.116 136.648 309.004 136.584C308.892 136.52 308.743 136.467 308.556 136.424L307.436 136.168C307.223 136.115 307.052 136.045 306.924 135.96C306.796 135.869 306.703 135.755 306.644 135.616C306.586 135.472 306.556 135.293 306.556 135.08C306.556 134.776 306.61 134.547 306.716 134.392C306.823 134.237 306.988 134.133 307.212 134.08C307.436 134.027 307.724 134.003 308.076 134.008Z" fill="black"/>
<path d="M118 56L112.226 66H123.774L118 56ZM118 306H119V65H118H117V306H118Z" fill="#A020F0"/>
<path d="M355 306L345 311.774V300.226L355 306ZM175 306V305H346V306V307H175V306Z" fill="#A020F0"/>
</svg>
