<svg width="425" height="111" viewBox="0 0 425 111" fill="none" xmlns="http://www.w3.org/2000/svg">
<rect width="425" height="111" fill="white"/>
<rect x="16.5" y="33.5" width="88" height="44" rx="11.5" fill="#A020F0" stroke="black"/>
<rect x="322.5" y="33.5" width="88" height="44" rx="11.5" fill="#A020F0" stroke="black"/>
<path d="M38.6447 49.6C39.4207 49.6 40.0287 49.68 40.4687 49.84C40.9087 50 41.2207 50.276 41.4047 50.668C41.5967 51.06 41.6927 51.608 41.6927 52.312C41.6927 53.016 41.6007 53.564 41.4167 53.956C41.2407 54.348 40.9487 54.624 40.5407 54.784C40.1327 54.936 39.5807 55.012 38.8847 55.012C38.5167 55.012 38.1567 54.996 37.8047 54.964C37.4527 54.932 37.1247 54.892 36.8207 54.844C36.5167 54.796 36.2567 54.748 36.0407 54.7C35.8247 54.644 35.6767 54.592 35.5967 54.544L35.6327 53.632C36.1047 53.632 36.5927 53.632 37.0967 53.632C37.6087 53.632 38.1127 53.632 38.6087 53.632C38.9287 53.624 39.1767 53.584 39.3527 53.512C39.5367 53.44 39.6647 53.308 39.7367 53.116C39.8167 52.924 39.8567 52.656 39.8567 52.312C39.8567 51.96 39.8167 51.688 39.7367 51.496C39.6647 51.304 39.5367 51.172 39.3527 51.1C39.1767 51.02 38.9287 50.98 38.6087 50.98C37.8727 50.98 37.2407 50.984 36.7127 50.992C36.1847 51 35.8287 51.016 35.6447 51.04L35.4647 49.72C35.8007 49.68 36.1167 49.652 36.4127 49.636C36.7087 49.62 37.0287 49.612 37.3727 49.612C37.7247 49.604 38.1487 49.6 38.6447 49.6ZM37.3007 49.72V58H35.4647V49.72H37.3007ZM44.1667 52.072L44.3827 53.248L44.5507 53.404V58H42.7747V52.072H44.1667ZM47.0587 51.916L46.8907 53.56H46.3987C46.1187 53.56 45.8267 53.6 45.5227 53.68C45.2187 53.76 44.8347 53.88 44.3707 54.04L44.2507 53.044C44.6667 52.676 45.0867 52.396 45.5107 52.204C45.9347 52.012 46.3467 51.916 46.7467 51.916H47.0587ZM50.622 51.916C51.366 51.916 51.962 52.02 52.41 52.228C52.858 52.428 53.178 52.756 53.37 53.212C53.57 53.668 53.67 54.28 53.67 55.048C53.67 55.8 53.57 56.404 53.37 56.86C53.178 57.316 52.858 57.644 52.41 57.844C51.962 58.044 51.366 58.144 50.622 58.144C49.886 58.144 49.29 58.044 48.834 57.844C48.386 57.644 48.062 57.316 47.862 56.86C47.662 56.404 47.562 55.8 47.562 55.048C47.562 54.28 47.662 53.668 47.862 53.212C48.062 52.756 48.386 52.428 48.834 52.228C49.29 52.02 49.886 51.916 50.622 51.916ZM50.622 53.212C50.318 53.212 50.078 53.264 49.902 53.368C49.726 53.472 49.602 53.656 49.53 53.92C49.458 54.184 49.422 54.56 49.422 55.048C49.422 55.528 49.458 55.9 49.53 56.164C49.602 56.428 49.726 56.612 49.902 56.716C50.078 56.812 50.318 56.86 50.622 56.86C50.926 56.86 51.166 56.812 51.342 56.716C51.518 56.612 51.642 56.428 51.714 56.164C51.786 55.9 51.822 55.528 51.822 55.048C51.822 54.56 51.786 54.184 51.714 53.92C51.642 53.656 51.518 53.472 51.342 53.368C51.166 53.264 50.926 53.212 50.622 53.212ZM56.9082 51.916C57.3242 51.916 57.7242 51.976 58.1082 52.096C58.5002 52.216 58.8442 52.412 59.1402 52.684L59.0202 53.5C58.7482 53.42 58.5042 53.348 58.2882 53.284C58.0722 53.22 57.8202 53.188 57.5322 53.188C57.2842 53.188 57.0842 53.232 56.9322 53.32C56.7802 53.408 56.6682 53.58 56.5962 53.836C56.5242 54.092 56.4882 54.472 56.4882 54.976C56.4882 55.448 56.5202 55.808 56.5842 56.056C56.6562 56.296 56.7642 56.464 56.9082 56.56C57.0602 56.648 57.2522 56.692 57.4842 56.692C57.6922 56.692 57.8722 56.672 58.0242 56.632C58.1762 56.584 58.3282 56.516 58.4802 56.428C58.6322 56.332 58.8042 56.216 58.9962 56.08L59.1282 56.956C58.8882 57.292 58.5762 57.576 58.1922 57.808C57.8082 58.032 57.3362 58.144 56.7762 58.144C56.0162 58.144 55.4722 57.872 55.1442 57.328C54.8242 56.784 54.6642 56.004 54.6642 54.988C54.6642 54.196 54.7442 53.58 54.9042 53.14C55.0722 52.692 55.3242 52.376 55.6602 52.192C55.9962 52.008 56.4122 51.916 56.9082 51.916ZM60.5922 49.6V58H59.1882L59.0082 56.908L58.8162 56.776V52.888L58.8882 52.732C58.8642 52.484 58.8442 52.236 58.8282 51.988C58.8202 51.732 58.8162 51.472 58.8162 51.208V49.6H60.5922ZM63.7803 52.072V55.972C63.7803 56.22 63.8323 56.396 63.9363 56.5C64.0483 56.604 64.2243 56.656 64.4643 56.656C64.7123 56.656 64.9563 56.612 65.1963 56.524C65.4443 56.428 65.7483 56.28 66.1083 56.08L66.2523 57.052C65.8203 57.428 65.3963 57.708 64.9803 57.892C64.5643 58.076 64.1363 58.168 63.6963 58.168C62.5683 58.168 62.0043 57.616 62.0043 56.512V52.072H63.7803ZM67.7043 52.072V58H66.3003L66.0963 56.836L65.9283 56.668V52.072H67.7043ZM71.9136 51.916C72.1296 51.916 72.3656 51.928 72.6216 51.952C72.8776 51.968 73.1336 52.004 73.3896 52.06C73.6536 52.108 73.8936 52.18 74.1096 52.276L73.9176 53.392C73.5976 53.384 73.2896 53.376 72.9936 53.368C72.7056 53.36 72.4456 53.356 72.2136 53.356C71.8536 53.356 71.5696 53.404 71.3616 53.5C71.1536 53.596 71.0016 53.768 70.9056 54.016C70.8176 54.256 70.7736 54.592 70.7736 55.024C70.7736 55.464 70.8176 55.808 70.9056 56.056C71.0016 56.304 71.1536 56.476 71.3616 56.572C71.5696 56.668 71.8536 56.716 72.2136 56.716C72.3416 56.716 72.5056 56.712 72.7056 56.704C72.9056 56.696 73.1216 56.688 73.3536 56.68C73.5856 56.664 73.8136 56.64 74.0376 56.608L74.2056 57.736C73.8856 57.88 73.5216 57.984 73.1136 58.048C72.7056 58.112 72.3016 58.144 71.9016 58.144C71.1656 58.144 70.5776 58.044 70.1376 57.844C69.7056 57.636 69.3936 57.304 69.2016 56.848C69.0096 56.392 68.9136 55.784 68.9136 55.024C68.9136 54.264 69.0096 53.656 69.2016 53.2C69.4016 52.744 69.7216 52.416 70.1616 52.216C70.6016 52.016 71.1856 51.916 71.9136 51.916ZM77.9967 51.916C78.9968 51.916 79.7128 52.088 80.1448 52.432C80.5848 52.768 80.8047 53.272 80.8047 53.944C80.8128 54.488 80.6768 54.896 80.3968 55.168C80.1168 55.432 79.6328 55.564 78.9448 55.564H75.6328V54.568H78.4528C78.7248 54.568 78.8968 54.512 78.9688 54.4C79.0488 54.28 79.0888 54.116 79.0888 53.908C79.0808 53.628 78.9968 53.436 78.8368 53.332C78.6848 53.22 78.4248 53.164 78.0568 53.164C77.7288 53.164 77.4728 53.208 77.2888 53.296C77.1048 53.384 76.9768 53.552 76.9048 53.8C76.8328 54.048 76.7968 54.408 76.7968 54.88C76.7968 55.376 76.8408 55.76 76.9288 56.032C77.0168 56.296 77.1648 56.48 77.3728 56.584C77.5888 56.688 77.8848 56.74 78.2608 56.74C78.5328 56.74 78.8688 56.732 79.2688 56.716C79.6768 56.692 80.0848 56.656 80.4928 56.608L80.6608 57.7C80.4288 57.812 80.1648 57.9 79.8688 57.964C79.5728 58.028 79.2688 58.072 78.9568 58.096C78.6448 58.128 78.3448 58.144 78.0568 58.144C77.3048 58.144 76.6968 58.036 76.2327 57.82C75.7768 57.596 75.4448 57.256 75.2368 56.8C75.0368 56.344 74.9368 55.76 74.9368 55.048C74.9368 54.272 75.0408 53.656 75.2488 53.2C75.4568 52.744 75.7848 52.416 76.2327 52.216C76.6808 52.016 77.2688 51.916 77.9967 51.916ZM83.3542 52.072L83.5702 53.248L83.7382 53.404V58H81.9622V52.072H83.3542ZM86.2462 51.916L86.0782 53.56H85.5862C85.3062 53.56 85.0142 53.6 84.7102 53.68C84.4062 53.76 84.0222 53.88 83.5582 54.04L83.4382 53.044C83.8542 52.676 84.2742 52.396 84.6982 52.204C85.1222 52.012 85.5342 51.916 85.9342 51.916H86.2462Z" fill="white"/>
<path d="M341.922 49.576C342.314 49.576 342.646 49.588 342.918 49.612C343.198 49.628 343.454 49.656 343.686 49.696C343.918 49.736 344.158 49.792 344.406 49.864L344.262 51.208C343.998 51.192 343.754 51.18 343.53 51.172C343.314 51.164 343.078 51.16 342.822 51.16C342.574 51.152 342.274 51.148 341.922 51.148C341.514 51.148 341.194 51.228 340.962 51.388C340.738 51.548 340.578 51.828 340.482 52.228C340.386 52.62 340.338 53.164 340.338 53.86C340.338 54.556 340.386 55.104 340.482 55.504C340.578 55.896 340.738 56.172 340.962 56.332C341.194 56.492 341.514 56.572 341.922 56.572C342.474 56.572 342.938 56.564 343.314 56.548C343.69 56.532 344.062 56.504 344.43 56.464L344.586 57.808C344.202 57.928 343.81 58.012 343.41 58.06C343.01 58.116 342.514 58.144 341.922 58.144C341.066 58.144 340.378 58.008 339.858 57.736C339.346 57.456 338.974 57.004 338.742 56.38C338.518 55.756 338.406 54.916 338.406 53.86C338.406 52.804 338.518 51.964 338.742 51.34C338.974 50.716 339.346 50.268 339.858 49.996C340.378 49.716 341.066 49.576 341.922 49.576ZM348.448 51.916C349.192 51.916 349.788 52.02 350.236 52.228C350.684 52.428 351.004 52.756 351.196 53.212C351.396 53.668 351.496 54.28 351.496 55.048C351.496 55.8 351.396 56.404 351.196 56.86C351.004 57.316 350.684 57.644 350.236 57.844C349.788 58.044 349.192 58.144 348.448 58.144C347.712 58.144 347.116 58.044 346.66 57.844C346.212 57.644 345.888 57.316 345.688 56.86C345.488 56.404 345.388 55.8 345.388 55.048C345.388 54.28 345.488 53.668 345.688 53.212C345.888 52.756 346.212 52.428 346.66 52.228C347.116 52.02 347.712 51.916 348.448 51.916ZM348.448 53.212C348.144 53.212 347.904 53.264 347.728 53.368C347.552 53.472 347.428 53.656 347.356 53.92C347.284 54.184 347.248 54.56 347.248 55.048C347.248 55.528 347.284 55.9 347.356 56.164C347.428 56.428 347.552 56.612 347.728 56.716C347.904 56.812 348.144 56.86 348.448 56.86C348.752 56.86 348.992 56.812 349.168 56.716C349.344 56.612 349.468 56.428 349.54 56.164C349.612 55.9 349.648 55.528 349.648 55.048C349.648 54.56 349.612 54.184 349.54 53.92C349.468 53.656 349.344 53.472 349.168 53.368C348.992 53.264 348.752 53.212 348.448 53.212ZM356.834 51.916C357.954 51.916 358.514 52.464 358.514 53.56V58H356.738V54.112C356.738 53.848 356.69 53.668 356.594 53.572C356.498 53.468 356.334 53.416 356.102 53.416C355.846 53.416 355.582 53.468 355.31 53.572C355.038 53.668 354.702 53.82 354.302 54.028L354.218 53.032C354.642 52.672 355.074 52.396 355.514 52.204C355.962 52.012 356.402 51.916 356.834 51.916ZM354.134 52.072L354.338 53.248L354.482 53.404V58H352.706V52.072H354.134ZM362.169 51.916C362.457 51.916 362.769 51.928 363.105 51.952C363.441 51.968 363.769 51.992 364.089 52.024C364.409 52.056 364.693 52.096 364.941 52.144L364.821 53.248C364.437 53.24 364.049 53.236 363.657 53.236C363.273 53.228 362.897 53.224 362.529 53.224C362.217 53.216 361.977 53.22 361.809 53.236C361.641 53.252 361.521 53.292 361.449 53.356C361.385 53.412 361.353 53.516 361.353 53.668C361.353 53.844 361.413 53.964 361.533 54.028C361.653 54.084 361.853 54.148 362.133 54.22L363.681 54.592C364.177 54.72 364.545 54.912 364.785 55.168C365.025 55.416 365.145 55.792 365.145 56.296C365.145 56.792 365.053 57.172 364.869 57.436C364.685 57.7 364.393 57.884 363.993 57.988C363.593 58.084 363.077 58.132 362.445 58.132C362.197 58.132 361.829 58.12 361.341 58.096C360.853 58.072 360.317 58.012 359.733 57.916L359.853 56.812C359.997 56.82 360.181 56.828 360.405 56.836C360.629 56.836 360.873 56.836 361.137 56.836C361.401 56.836 361.665 56.836 361.929 56.836C362.337 56.836 362.649 56.828 362.865 56.812C363.081 56.788 363.229 56.74 363.309 56.668C363.389 56.596 363.429 56.488 363.429 56.344C363.429 56.168 363.361 56.048 363.225 55.984C363.089 55.92 362.873 55.852 362.577 55.78L361.077 55.408C360.701 55.304 360.409 55.172 360.201 55.012C359.993 54.852 359.845 54.656 359.757 54.424C359.677 54.192 359.637 53.916 359.637 53.596C359.637 53.188 359.717 52.864 359.877 52.624C360.045 52.376 360.313 52.196 360.681 52.084C361.057 51.972 361.553 51.916 362.169 51.916ZM368.028 52.072V55.972C368.028 56.22 368.08 56.396 368.184 56.5C368.296 56.604 368.472 56.656 368.712 56.656C368.96 56.656 369.204 56.612 369.444 56.524C369.692 56.428 369.996 56.28 370.356 56.08L370.5 57.052C370.068 57.428 369.644 57.708 369.228 57.892C368.812 58.076 368.384 58.168 367.944 58.168C366.816 58.168 366.252 57.616 366.252 56.512V52.072H368.028ZM371.952 52.072V58H370.548L370.344 56.836L370.176 56.668V52.072H371.952ZM380.914 51.916C381.45 51.916 381.858 52.056 382.138 52.336C382.418 52.616 382.558 53.024 382.558 53.56V58H380.794V54.112C380.794 53.864 380.746 53.688 380.65 53.584C380.554 53.472 380.386 53.416 380.146 53.416C380.002 53.416 379.866 53.436 379.738 53.476C379.61 53.516 379.462 53.58 379.294 53.668C379.126 53.756 378.922 53.876 378.682 54.028L378.586 53.044C378.97 52.668 379.346 52.388 379.714 52.204C380.09 52.012 380.49 51.916 380.914 51.916ZM374.818 52.072L374.998 53.248L375.178 53.404V58H373.402V52.072H374.818ZM377.218 51.916C377.746 51.916 378.146 52.056 378.418 52.336C378.698 52.608 378.838 53.016 378.838 53.56V58H377.134V54.112C377.134 53.856 377.078 53.676 376.966 53.572C376.862 53.468 376.698 53.416 376.474 53.416C376.338 53.416 376.202 53.436 376.066 53.476C375.938 53.508 375.786 53.568 375.61 53.656C375.442 53.744 375.234 53.868 374.986 54.028L374.878 53.044C375.27 52.668 375.65 52.388 376.018 52.204C376.386 52.012 376.786 51.916 377.218 51.916ZM386.78 51.916C387.78 51.916 388.496 52.088 388.928 52.432C389.368 52.768 389.588 53.272 389.588 53.944C389.596 54.488 389.46 54.896 389.18 55.168C388.9 55.432 388.416 55.564 387.728 55.564H384.416V54.568H387.236C387.508 54.568 387.68 54.512 387.752 54.4C387.832 54.28 387.872 54.116 387.872 53.908C387.864 53.628 387.78 53.436 387.62 53.332C387.468 53.22 387.208 53.164 386.84 53.164C386.512 53.164 386.256 53.208 386.072 53.296C385.888 53.384 385.76 53.552 385.688 53.8C385.616 54.048 385.58 54.408 385.58 54.88C385.58 55.376 385.624 55.76 385.712 56.032C385.8 56.296 385.948 56.48 386.156 56.584C386.372 56.688 386.668 56.74 387.044 56.74C387.316 56.74 387.652 56.732 388.052 56.716C388.46 56.692 388.868 56.656 389.276 56.608L389.444 57.7C389.212 57.812 388.948 57.9 388.652 57.964C388.356 58.028 388.052 58.072 387.74 58.096C387.428 58.128 387.128 58.144 386.84 58.144C386.088 58.144 385.48 58.036 385.016 57.82C384.56 57.596 384.228 57.256 384.02 56.8C383.82 56.344 383.72 55.76 383.72 55.048C383.72 54.272 383.824 53.656 384.032 53.2C384.24 52.744 384.568 52.416 385.016 52.216C385.464 52.016 386.052 51.916 386.78 51.916ZM392.137 52.072L392.353 53.248L392.521 53.404V58H390.745V52.072H392.137ZM395.029 51.916L394.861 53.56H394.369C394.089 53.56 393.797 53.6 393.493 53.68C393.189 53.76 392.805 53.88 392.341 54.04L392.221 53.044C392.637 52.676 393.057 52.396 393.481 52.204C393.905 52.012 394.317 51.916 394.717 51.916H395.029Z" fill="white"/>
<path d="M165 56L160 58.8868V53.1132L165 56ZM160.5 56V56.5L105 56.5V56V55.5L160.5 55.5V56Z" fill="#A020F0"/>
<path d="M322 46L317 43.1132V48.8868L322 46ZM317.5 46V45.5L256 45.5V46V46.5L317.5 46.5V46Z" fill="#A020F0"/>
<path d="M256 66L261 63.1132V68.8868L256 66ZM258.912 66V65.5H260.853V66V66.5H258.912V66ZM262.794 66V65.5H264.735V66V66.5H262.794V66ZM266.676 66V65.5H268.618V66V66.5H266.676V66ZM270.559 66V65.5H272.5V66V66.5H270.559V66ZM274.441 66V65.5H276.382V66V66.5H274.441V66ZM278.324 66V65.5H280.265V66V66.5H278.324V66ZM282.206 66V65.5H284.147V66V66.5H282.206V66ZM286.088 66V65.5H288.029V66V66.5H286.088V66ZM289.971 66V65.5H291.912V66V66.5H289.971V66ZM293.853 66V65.5H295.794V66V66.5H293.853V66ZM297.735 66V65.5H299.676V66V66.5H297.735V66ZM301.618 66V65.5H303.559V66V66.5H301.618V66ZM305.5 66V65.5H307.441V66V66.5H305.5V66ZM309.382 66V65.5H311.324V66V66.5H309.382V66ZM313.265 66V65.5L315.206 65.5V66V66.5L313.265 66.5V66ZM317.147 66V65.5H319.088V66V66.5H317.147V66ZM321.029 66V65.5H322V66V66.5H321.029V66Z" fill="#A020F0"/>
<path d="M250.07 41.5L165.5 41.5V70.5L250.08 70.5L268.2 56.4873L250.07 41.5Z" stroke="#A020F0"/>
<path d="M196 48.5C196 47.125 195.1 46 194 46H178C176.9 46 176 47.125 176 48.5V63.5C176 64.875 176.9 66 178 66H194C195.1 66 196 64.875 196 63.5V48.5ZM194 48.5L186 54.75L178 48.5H194ZM194 63.5H178V51L186 57.25L194 51V63.5Z" fill="#A020F0"/>
<path d="M224 48.5C224 47.125 223.1 46 222 46H206C204.9 46 204 47.125 204 48.5V63.5C204 64.875 204.9 66 206 66H222C223.1 66 224 64.875 224 63.5V48.5ZM222 48.5L214 54.75L206 48.5H222ZM222 63.5H206V51L214 57.25L222 51V63.5Z" fill="#A020F0"/>
<path d="M249 48.5C249 47.125 248.1 46 247 46H231C229.9 46 229 47.125 229 48.5V63.5C229 64.875 229.9 66 231 66H247C248.1 66 249 64.875 249 63.5V48.5ZM247 48.5L239 54.75L231 48.5H247ZM247 63.5H231V51L239 57.25L247 51V63.5Z" fill="#A020F0"/>
<path d="M118.1 47.4803C118.543 47.4811 118.892 47.5325 119.148 47.6344C119.409 47.7362 119.595 47.9126 119.707 48.1635C119.818 48.409 119.874 48.7585 119.873 49.2118C119.872 49.6651 119.815 50.017 119.703 50.2675C119.596 50.5179 119.417 50.6936 119.166 50.7944C118.92 50.8899 118.589 50.9372 118.173 50.9364C117.949 50.936 117.733 50.9302 117.525 50.9191C117.323 50.908 117.136 50.8943 116.966 50.878C116.795 50.8563 116.648 50.8347 116.526 50.8131C116.408 50.7915 116.326 50.7727 116.278 50.7566L116.303 50.3247C116.585 50.3252 116.879 50.3258 117.183 50.3264C117.487 50.327 117.788 50.3276 118.087 50.3282C118.353 50.3234 118.564 50.2919 118.719 50.2335C118.879 50.1698 118.991 50.058 119.056 49.8982C119.125 49.733 119.16 49.5037 119.161 49.2104C119.161 48.9117 119.127 48.6823 119.058 48.5222C118.995 48.362 118.883 48.2498 118.723 48.1855C118.568 48.1212 118.358 48.0888 118.091 48.0882C117.654 48.0874 117.275 48.0893 116.955 48.094C116.64 48.0987 116.427 48.1062 116.315 48.1167L116.204 47.5485C116.407 47.5275 116.596 47.5119 116.772 47.5016C116.948 47.4913 117.14 47.4863 117.348 47.4867C117.556 47.4818 117.807 47.4797 118.1 47.4803ZM116.908 47.5499L116.897 53.0699L116.193 53.0684L116.204 47.5485L116.908 47.5499ZM121.504 49.1831L121.498 51.9191C121.492 52.1644 121.537 52.3378 121.633 52.4393C121.729 52.5409 121.889 52.5919 122.113 52.5923C122.332 52.5927 122.548 52.5425 122.761 52.4416C122.98 52.3354 123.242 52.1839 123.546 51.9872L123.633 52.4593C123.329 52.6987 123.032 52.8795 122.744 53.0016C122.461 53.1237 122.173 53.1844 121.88 53.1838C121.17 53.1824 120.816 52.8244 120.818 52.1097L120.824 49.1817L121.504 49.1831ZM124.16 49.1884L124.152 53.0844L123.608 53.0833L123.545 52.3472L123.474 52.227L123.48 49.187L124.16 49.1884ZM123.316 47.1307L123.707 47.6595L122.169 48.6164L121.937 48.3039L123.316 47.1307ZM127.506 49.0991C127.986 49.1001 128.341 49.2581 128.569 49.5732C128.798 49.883 128.912 50.4032 128.91 51.1339C128.91 51.4699 128.88 51.7658 128.821 52.0217C128.767 52.2776 128.673 52.4934 128.539 52.6692C128.411 52.8396 128.235 52.9699 128.01 53.0601C127.792 53.145 127.514 53.1871 127.178 53.1864C127.045 53.1862 126.901 53.1806 126.746 53.1696C126.592 53.1586 126.434 53.1396 126.274 53.1126C126.114 53.091 125.957 53.064 125.802 53.0317C125.653 52.9941 125.515 52.9511 125.387 52.9029L125.932 52.4399C126.076 52.4829 126.217 52.5179 126.355 52.5448C126.499 52.5718 126.638 52.5907 126.771 52.6016C126.91 52.6072 127.041 52.6102 127.163 52.6104C127.414 52.6056 127.614 52.558 127.764 52.4676C127.918 52.3773 128.031 52.2255 128.101 52.0123C128.17 51.7938 128.206 51.5005 128.206 51.1325C128.207 50.7752 128.181 50.4924 128.128 50.2843C128.075 50.0709 127.979 49.9187 127.841 49.8278C127.708 49.7368 127.516 49.6911 127.265 49.6906C127.052 49.6902 126.849 49.7484 126.657 49.8654C126.465 49.977 126.243 50.1312 125.992 50.3281L125.945 49.872C126.105 49.7016 126.268 49.5606 126.434 49.4489C126.605 49.332 126.781 49.2443 126.962 49.186C127.144 49.1277 127.325 49.0987 127.506 49.0991ZM126.078 47.4882L126.075 48.9442C126.074 49.1096 126.069 49.2615 126.058 49.4002C126.052 49.5388 126.033 49.6801 126.001 49.8241L126.065 49.9362L126.067 52.9362L125.387 52.9029L125.398 47.4869L126.078 47.4882ZM130.664 47.4974L130.647 52.0254C130.647 52.1961 130.692 52.3268 130.782 52.4177C130.878 52.5032 131.011 52.5461 131.182 52.5465L131.558 52.5472L131.637 53.0674C131.589 53.0886 131.52 53.1071 131.429 53.123C131.343 53.1388 131.253 53.1493 131.157 53.1544C131.066 53.1649 130.989 53.1701 130.925 53.1699C130.637 53.1694 130.405 53.0836 130.229 52.9126C130.059 52.7415 129.974 52.496 129.975 52.176L129.984 47.4961L130.664 47.4974ZM133.052 49.2062L133.044 53.1022L132.372 53.1008L132.38 49.2049L133.052 49.2062ZM132.879 47.5498C133.018 47.5501 133.087 47.6196 133.087 47.7583L133.086 48.2143C133.085 48.3529 133.016 48.4221 132.877 48.4218L132.557 48.4212C132.419 48.4209 132.349 48.3515 132.35 48.2128L132.351 47.7568C132.351 47.6181 132.42 47.5489 132.559 47.5492L132.879 47.5498ZM135.996 49.1161C136.114 49.1163 136.244 49.1219 136.388 49.1329C136.532 49.1438 136.679 49.1628 136.828 49.1898C136.983 49.2167 137.124 49.2544 137.252 49.3026L137.163 49.7424C136.987 49.7261 136.8 49.715 136.603 49.7093C136.411 49.6983 136.246 49.6926 136.107 49.6923C135.798 49.6917 135.552 49.7339 135.371 49.8188C135.189 49.9038 135.058 50.0529 134.978 50.2661C134.898 50.4792 134.857 50.7751 134.856 51.1538C134.855 51.5325 134.895 51.8312 134.974 52.0501C135.054 52.2635 135.184 52.4131 135.365 52.4988C135.547 52.5845 135.792 52.6277 136.101 52.6283C136.181 52.6285 136.285 52.626 136.413 52.6209C136.541 52.6159 136.677 52.6081 136.821 52.5978C136.971 52.5874 137.112 52.5717 137.245 52.5506L137.316 53.0067C137.119 53.0757 136.903 53.1259 136.668 53.1574C136.439 53.189 136.209 53.2045 135.98 53.2041C135.532 53.2032 135.172 53.1358 134.9 53.0019C134.629 52.868 134.432 52.6516 134.31 52.3527C134.193 52.0538 134.135 51.6537 134.136 51.1524C134.137 50.651 134.199 50.2512 134.323 49.9527C134.446 49.6543 134.644 49.4414 134.916 49.3139C135.188 49.1811 135.548 49.1152 135.996 49.1161ZM140.086 49.1243C140.374 49.1249 140.617 49.1653 140.814 49.2457C141.017 49.3208 141.168 49.4491 141.269 49.6307C141.37 49.8122 141.42 50.0603 141.42 50.375L141.414 53.119L140.878 53.1179L140.776 52.2697L140.728 52.1816L140.732 50.3736C140.732 50.1336 140.677 49.9628 140.565 49.8612C140.458 49.7544 140.25 49.7006 139.941 49.7C139.738 49.6996 139.482 49.7097 139.173 49.7305C138.869 49.7512 138.568 49.7746 138.269 49.8006L138.206 49.2965C138.387 49.2649 138.585 49.2359 138.798 49.2097C139.017 49.1835 139.238 49.1626 139.462 49.147C139.686 49.1315 139.894 49.1239 140.086 49.1243ZM141.099 50.7183L141.09 51.2303L139.226 51.2346C139.039 51.2395 138.909 51.2899 138.834 51.3858C138.759 51.4763 138.721 51.6042 138.721 51.7696L138.72 52.0176C138.72 52.2202 138.768 52.3697 138.864 52.4658C138.959 52.5567 139.114 52.6023 139.327 52.6028C139.477 52.6031 139.645 52.5767 139.831 52.5238C140.024 52.4655 140.216 52.3779 140.408 52.2609C140.6 52.144 140.777 51.995 140.937 51.814L140.936 52.318C140.877 52.3925 140.792 52.4804 140.679 52.5815C140.573 52.6773 140.442 52.773 140.287 52.8687C140.137 52.9591 139.969 53.0361 139.782 53.0997C139.601 53.158 139.403 53.1869 139.19 53.1865C138.961 53.186 138.758 53.1456 138.582 53.0653C138.407 52.9796 138.268 52.8567 138.167 52.6964C138.071 52.5309 138.024 52.3308 138.024 52.0962L138.025 51.6722C138.026 51.3682 138.12 51.1337 138.307 50.9687C138.499 50.7984 138.766 50.7136 139.107 50.7143L141.099 50.7183Z" fill="black"/>
<path d="M271.567 37.0732C271.684 37.0734 271.815 37.079 271.959 37.09C272.103 37.1009 272.249 37.1199 272.398 37.1468C272.553 37.1738 272.694 37.2114 272.822 37.2597L272.733 37.6995C272.557 37.6832 272.371 37.6721 272.173 37.6664C271.981 37.6553 271.816 37.6497 271.677 37.6494C271.368 37.6488 271.123 37.691 270.941 37.7759C270.76 37.8609 270.629 38.01 270.548 38.2231C270.468 38.4363 270.427 38.7322 270.427 39.1109C270.426 39.4896 270.465 39.7883 270.545 40.0071C270.624 40.2206 270.755 40.3702 270.936 40.4559C271.117 40.5416 271.362 40.5848 271.672 40.5854C271.752 40.5856 271.856 40.5831 271.984 40.578C272.112 40.5729 272.248 40.5652 272.392 40.5548C272.541 40.5445 272.682 40.5288 272.816 40.5077L272.887 40.9638C272.689 41.0328 272.473 41.083 272.238 41.1145C272.009 41.1461 271.78 41.1616 271.55 41.1612C271.102 41.1603 270.743 41.0929 270.471 40.959C270.199 40.8251 270.002 40.6087 269.88 40.3098C269.763 40.0109 269.706 39.6108 269.707 39.1095C269.708 38.6081 269.77 38.2083 269.893 37.9098C270.016 37.6114 270.214 37.3985 270.486 37.271C270.758 37.1382 271.119 37.0723 271.567 37.0732ZM275.402 37.0809C275.85 37.0818 276.207 37.1491 276.474 37.283C276.745 37.4169 276.94 37.6359 277.056 37.9402C277.173 38.2391 277.231 38.6365 277.23 39.1325C277.229 39.6285 277.17 40.0284 277.052 40.3322C276.934 40.6306 276.739 40.8462 276.466 40.979C276.199 41.1118 275.842 41.1778 275.394 41.1769C274.951 41.176 274.594 41.1086 274.322 40.9747C274.056 40.8408 273.862 40.6245 273.74 40.3255C273.623 40.0213 273.565 39.6212 273.566 39.1252C273.567 38.6292 273.627 38.232 273.744 37.9335C273.868 37.6298 274.063 37.4115 274.33 37.2787C274.602 37.1459 274.959 37.08 275.402 37.0809ZM275.401 37.6569C275.118 37.6563 274.894 37.7012 274.729 37.7915C274.569 37.8765 274.454 38.0256 274.384 38.2388C274.314 38.452 274.279 38.7479 274.278 39.1266C274.277 39.5053 274.311 39.8013 274.38 40.0148C274.449 40.2283 274.564 40.3805 274.723 40.4715C274.889 40.5572 275.112 40.6003 275.395 40.6009C275.678 40.6014 275.902 40.5592 276.067 40.4742C276.233 40.3839 276.351 40.2321 276.42 40.0189C276.49 39.8057 276.525 39.5098 276.526 39.1311C276.527 38.7525 276.493 38.4564 276.424 38.2429C276.355 38.0294 276.238 37.8799 276.073 37.7942C275.908 37.7032 275.684 37.6574 275.401 37.6569ZM280.669 37.0914C281.373 37.0928 281.724 37.4509 281.723 38.1655L281.717 41.0855L281.037 41.0842L281.042 38.3562C281.043 38.0948 281.001 37.9161 280.916 37.8199C280.83 37.7184 280.687 37.6674 280.484 37.667C280.244 37.6666 280.004 37.7247 279.764 37.8416C279.523 37.9584 279.238 38.1179 278.907 38.3199L278.876 37.8318C279.18 37.5978 279.482 37.417 279.781 37.2896C280.08 37.1569 280.376 37.0908 280.669 37.0914ZM278.877 37.1838L278.931 37.9279L278.979 38.048L278.973 41.08L278.293 41.0787L278.301 37.1827L278.877 37.1838ZM284.245 37.0986C284.416 37.0989 284.597 37.1046 284.789 37.1157C284.981 37.1267 285.171 37.1404 285.357 37.1568C285.549 37.1732 285.725 37.1949 285.885 37.2219L285.828 37.7177C285.583 37.7066 285.335 37.6981 285.084 37.6923C284.839 37.6811 284.594 37.6753 284.348 37.6748C284.108 37.669 283.919 37.6739 283.78 37.6896C283.642 37.7054 283.54 37.7478 283.476 37.817C283.417 37.8862 283.388 38.0035 283.387 38.1689C283.387 38.3715 283.435 38.5049 283.53 38.5691C283.626 38.6333 283.768 38.687 283.954 38.73L285.09 38.9883C285.399 39.0636 285.625 39.1787 285.769 39.3336C285.918 39.4886 285.992 39.7314 285.992 40.0621C285.991 40.3821 285.929 40.6219 285.806 40.7817C285.688 40.9415 285.507 41.0478 285.261 41.1006C285.016 41.1535 284.704 41.1795 284.325 41.1787C284.187 41.1785 283.979 41.1727 283.701 41.1615C283.429 41.1503 283.128 41.1177 282.797 41.0637L282.846 40.5678C282.974 40.5734 283.11 40.5816 283.254 40.5926C283.398 40.5982 283.548 40.6012 283.702 40.6015C283.862 40.6018 284.025 40.6021 284.19 40.6025C284.484 40.6031 284.713 40.5902 284.879 40.5638C285.044 40.5375 285.161 40.4871 285.231 40.4126C285.3 40.3327 285.335 40.2154 285.336 40.0608C285.336 39.8688 285.28 39.7406 285.168 39.6764C285.056 39.6122 284.907 39.5586 284.721 39.5155L283.601 39.2573C283.388 39.2035 283.217 39.1338 283.09 39.0483C282.962 38.9573 282.869 38.8425 282.81 38.7037C282.752 38.5596 282.723 38.3809 282.723 38.1675C282.724 37.8635 282.778 37.6343 282.885 37.4798C282.992 37.3254 283.157 37.2217 283.381 37.1688C283.605 37.116 283.893 37.0925 284.245 37.0986ZM288.66 37.1074C289.108 37.1083 289.465 37.1757 289.732 37.3096C290.003 37.4434 290.197 37.6625 290.314 37.9667C290.431 38.2656 290.489 38.6631 290.488 39.1591C290.487 39.6551 290.427 40.055 290.309 40.3587C290.191 40.6572 289.996 40.8728 289.724 41.0056C289.457 41.1383 289.1 41.2043 288.652 41.2034C288.209 41.2025 287.852 41.1351 287.58 41.0013C287.314 40.8674 287.119 40.651 286.997 40.3521C286.881 40.0479 286.823 39.6477 286.824 39.1517C286.825 38.6557 286.884 38.2585 287.002 37.9601C287.125 37.6563 287.321 37.4381 287.588 37.3053C287.86 37.1725 288.217 37.1065 288.66 37.1074ZM288.659 37.6834C288.376 37.6828 288.152 37.7277 287.987 37.8181C287.826 37.9031 287.711 38.0522 287.642 38.2654C287.572 38.4786 287.537 38.7745 287.536 39.1532C287.535 39.5318 287.569 39.8279 287.638 40.0414C287.707 40.2548 287.821 40.4071 287.981 40.4981C288.146 40.5837 288.37 40.6268 288.653 40.6274C288.936 40.628 289.16 40.5858 289.325 40.5008C289.491 40.4104 289.608 40.2586 289.678 40.0455C289.748 39.8323 289.783 39.5363 289.784 39.1577C289.785 38.779 289.751 38.4829 289.682 38.2695C289.613 38.056 289.496 37.9064 289.331 37.8208C289.165 37.7298 288.941 37.684 288.659 37.6834ZM296.303 37.1227C296.639 37.1234 296.895 37.2146 297.07 37.3963C297.251 37.5779 297.341 37.8448 297.341 38.1968L297.335 41.1168L296.663 41.1154L296.668 38.3875C296.663 38.1474 296.616 37.974 296.525 37.8672C296.435 37.755 296.28 37.6987 296.062 37.6982C295.923 37.698 295.79 37.7217 295.661 37.7694C295.539 37.8119 295.403 37.8809 295.253 37.9766C295.104 38.0723 294.922 38.1973 294.708 38.3515L294.669 37.8714C294.952 37.6213 295.227 37.4352 295.494 37.3131C295.761 37.1856 296.031 37.1222 296.303 37.1227ZM292.119 37.2103L292.165 37.9544L292.237 38.0746L292.231 41.1066L291.551 41.1052L291.559 37.2092L292.119 37.2103ZM293.751 37.1176C294.081 37.1183 294.335 37.2094 294.51 37.3911C294.686 37.5675 294.776 37.8343 294.781 38.1917L294.775 41.1117L294.119 41.1104L294.124 38.3824C294.125 38.1317 294.074 37.9556 293.973 37.8541C293.872 37.7472 293.72 37.6935 293.518 37.6931C293.384 37.6929 293.254 37.7139 293.126 37.7564C293.003 37.7988 292.864 37.8678 292.709 37.9635C292.56 38.0592 292.375 38.1869 292.156 38.3464L292.109 37.8663C292.392 37.6162 292.667 37.4301 292.934 37.308C293.201 37.1805 293.473 37.1171 293.751 37.1176ZM300.167 37.1305C300.753 37.1316 301.177 37.2391 301.438 37.453C301.704 37.6669 301.837 37.9845 301.836 38.4058C301.841 38.7525 301.768 39.0243 301.618 39.2214C301.469 39.4131 301.231 39.5086 300.906 39.5079L298.634 39.5034L298.635 38.9754L300.731 38.9796C300.907 38.9799 301.022 38.9215 301.075 38.8043C301.129 38.6817 301.156 38.5484 301.156 38.4044C301.151 38.1538 301.077 37.9749 300.933 37.868C300.789 37.761 300.544 37.7072 300.197 37.7065C299.915 37.706 299.691 37.7482 299.525 37.8332C299.365 37.9129 299.25 38.0566 299.18 38.2645C299.116 38.467 299.083 38.7523 299.083 39.1203C299.082 39.5363 299.121 39.8537 299.201 40.0725C299.286 40.2914 299.419 40.441 299.6 40.5213C299.781 40.6017 300.021 40.6422 300.32 40.6428C300.528 40.6432 300.754 40.6356 301 40.6201C301.25 40.5993 301.474 40.5757 301.672 40.5495L301.743 41.0056C301.62 41.0534 301.468 41.0931 301.287 41.1247C301.111 41.1564 300.926 41.18 300.734 41.1956C300.548 41.2112 300.38 41.2189 300.23 41.2186C299.782 41.2177 299.423 41.1503 299.151 41.0164C298.879 40.8772 298.68 40.6581 298.552 40.3592C298.43 40.055 298.37 39.6549 298.371 39.1589C298.372 38.6469 298.434 38.2443 298.557 37.9512C298.686 37.6528 298.881 37.4425 299.142 37.3204C299.409 37.1929 299.751 37.1296 300.167 37.1305Z" fill="black"/>
<path d="M273.239 59.1665L273.231 63.0625L272.559 63.0612L272.567 59.1652L273.239 59.1665ZM273.067 57.5102C273.205 57.5105 273.274 57.5799 273.274 57.7186L273.273 58.1746C273.273 58.3133 273.203 58.3824 273.065 58.3822L272.745 58.3815C272.606 58.3813 272.537 58.3118 272.537 58.1731L272.538 57.7171C272.538 57.5784 272.608 57.5093 272.747 57.5095L273.067 57.5102ZM276.888 59.0778C277.592 59.0792 277.943 59.4373 277.942 60.1519L277.936 63.0719L277.256 63.0706L277.261 60.3426C277.262 60.0812 277.219 59.9025 277.134 59.8063C277.049 59.7048 276.905 59.6539 276.703 59.6535C276.463 59.653 276.223 59.7112 275.982 59.828C275.742 59.9449 275.456 60.1043 275.125 60.3063L275.094 59.8182C275.399 59.5842 275.7 59.4035 275.999 59.276C276.298 59.1433 276.594 59.0772 276.888 59.0778ZM275.096 59.1702L275.15 59.9144L275.198 60.0344L275.192 63.0664L274.512 63.0651L274.52 59.1691L275.096 59.1702ZM280.464 59.085C280.635 59.0853 280.816 59.091 281.008 59.1021C281.2 59.1131 281.389 59.1268 281.576 59.1432C281.768 59.1596 281.944 59.1813 282.104 59.2083L282.047 59.7042C281.802 59.693 281.554 59.6845 281.303 59.6787C281.058 59.6675 280.812 59.6617 280.567 59.6612C280.327 59.6554 280.138 59.6603 279.999 59.6761C279.86 59.6918 279.759 59.7342 279.695 59.8035C279.636 59.8727 279.606 59.9899 279.606 60.1553C279.606 60.3579 279.653 60.4914 279.749 60.5556C279.845 60.6198 279.986 60.6734 280.173 60.7164L281.308 60.9747C281.618 61.05 281.844 61.1651 281.988 61.32C282.137 61.475 282.211 61.7178 282.21 62.0485C282.21 62.3685 282.148 62.6084 282.025 62.7681C281.907 62.9279 281.726 63.0342 281.48 63.087C281.235 63.1399 280.923 63.1659 280.544 63.1652C280.405 63.1649 280.197 63.1591 279.92 63.1479C279.648 63.1367 279.347 63.1041 279.016 63.0501L279.065 62.5542C279.193 62.5598 279.329 62.5681 279.473 62.579C279.617 62.5846 279.767 62.5876 279.921 62.5879C280.081 62.5882 280.244 62.5886 280.409 62.5889C280.703 62.5895 280.932 62.5766 281.097 62.5503C281.263 62.5239 281.38 62.4735 281.45 62.399C281.519 62.3191 281.554 62.2018 281.554 62.0472C281.555 61.8552 281.499 61.7271 281.387 61.6628C281.275 61.5986 281.126 61.545 280.939 61.5019L279.82 61.2437C279.607 61.1899 279.436 61.1203 279.308 61.0347C279.18 60.9438 279.087 60.8289 279.029 60.6901C278.971 60.546 278.942 60.3673 278.942 60.1539C278.943 59.8499 278.996 59.6207 279.103 59.4663C279.21 59.3118 279.376 59.2081 279.6 59.1553C279.824 59.1024 280.112 59.079 280.464 59.085ZM284.895 59.0939C285.012 59.0941 285.143 59.0997 285.287 59.1106C285.431 59.1216 285.577 59.1406 285.727 59.1675C285.881 59.1945 286.022 59.2321 286.15 59.2804L286.061 59.7202C285.885 59.7038 285.699 59.6928 285.502 59.6871C285.31 59.676 285.144 59.6704 285.006 59.6701C284.696 59.6695 284.451 59.7116 284.269 59.7966C284.088 59.8816 283.957 60.0307 283.876 60.2438C283.796 60.457 283.755 60.7529 283.755 61.1316C283.754 61.5103 283.793 61.809 283.873 62.0278C283.952 62.2413 284.083 62.3909 284.264 62.4766C284.445 62.5623 284.69 62.6055 285 62.6061C285.08 62.6062 285.184 62.6038 285.312 62.5987C285.44 62.5936 285.576 62.5859 285.72 62.5755C285.869 62.5652 286.01 62.5494 286.144 62.5284L286.215 62.9845C286.017 63.0535 285.801 63.1037 285.567 63.1352C285.337 63.1668 285.108 63.1823 284.879 63.1818C284.431 63.1809 284.071 63.1136 283.799 62.9797C283.527 62.8458 283.33 62.6294 283.208 62.3305C283.091 62.0316 283.034 61.6315 283.035 61.1301C283.036 60.6288 283.098 60.2289 283.221 59.9305C283.344 59.6321 283.542 59.4192 283.814 59.2917C284.087 59.1589 284.447 59.093 284.895 59.0939ZM287.673 59.1954L287.759 59.9396L287.823 60.0597L287.817 63.0917L287.137 63.0904L287.145 59.1944L287.673 59.1954ZM289.585 59.1033L289.503 59.7431L289.279 59.7426C289.05 59.7422 288.821 59.7897 288.591 59.8853C288.362 59.9755 288.081 60.1056 287.75 60.2756L287.695 59.8515C287.984 59.6174 288.272 59.434 288.56 59.3012C288.854 59.1685 289.137 59.1024 289.409 59.1029L289.585 59.1033ZM291.854 59.1078C292.441 59.109 292.865 59.2165 293.125 59.4303C293.392 59.6442 293.524 59.9618 293.524 60.3831C293.528 60.7298 293.456 61.0017 293.306 61.1987C293.156 61.3904 292.919 61.4859 292.593 61.4853L290.321 61.4807L290.322 60.9527L292.418 60.9569C292.594 60.9573 292.709 60.8988 292.763 60.7816C292.816 60.6591 292.843 60.5258 292.844 60.3818C292.839 60.1311 292.764 59.9523 292.621 59.8453C292.477 59.7384 292.232 59.6846 291.885 59.6839C291.602 59.6833 291.378 59.7255 291.213 59.8105C291.053 59.8902 290.938 60.034 290.868 60.2418C290.803 60.4444 290.771 60.7296 290.77 61.0976C290.769 61.5136 290.809 61.831 290.888 62.0499C290.973 62.2687 291.106 62.4183 291.287 62.4987C291.468 62.579 291.708 62.6195 292.007 62.6201C292.215 62.6205 292.442 62.613 292.687 62.5975C292.938 62.5766 293.162 62.5531 293.359 62.5268L293.43 62.983C293.308 63.0307 293.156 63.0704 292.974 63.1021C292.798 63.1337 292.614 63.1573 292.422 63.1729C292.235 63.1886 292.067 63.1962 291.918 63.1959C291.47 63.195 291.11 63.1277 290.838 62.9938C290.567 62.8546 290.367 62.6355 290.24 62.3366C290.118 62.0323 290.057 61.6322 290.058 61.1362C290.059 60.6242 290.121 60.2217 290.244 59.9286C290.373 59.6302 290.568 59.4199 290.83 59.2977C291.097 59.1703 291.438 59.107 291.854 59.1078ZM297.991 59.2161L296.56 62.9412C296.538 62.9945 296.506 63.0371 296.464 63.069C296.426 63.0956 296.378 63.1089 296.32 63.1088L295.704 63.1075C295.65 63.1074 295.602 63.094 295.56 63.0672C295.517 63.0351 295.485 62.9924 295.464 62.939L294.047 59.2082L294.775 59.2096L295.73 61.9396C295.772 62.0517 295.812 62.1664 295.849 62.2838C295.886 62.4012 295.923 62.5133 295.961 62.62L296.065 62.6202C296.107 62.5083 296.148 62.3964 296.185 62.2845C296.228 62.1672 296.268 62.0526 296.306 61.9407L297.271 59.2146L297.991 59.2161ZM300.323 59.1248C300.91 59.1259 301.333 59.2334 301.594 59.4473C301.86 59.6612 301.993 59.9788 301.992 60.4001C301.997 60.7468 301.924 61.0186 301.775 61.2157C301.625 61.4074 301.387 61.5029 301.062 61.5022L298.79 61.4977L298.791 60.9697L300.887 60.9739C301.063 60.9742 301.178 60.9158 301.231 60.7986C301.285 60.676 301.312 60.5427 301.312 60.3987C301.307 60.1481 301.233 59.9693 301.089 59.8623C300.946 59.7553 300.7 59.7015 300.354 59.7008C300.071 59.7003 299.847 59.7425 299.681 59.8275C299.521 59.9072 299.406 60.0509 299.337 60.2588C299.272 60.4613 299.24 60.7466 299.239 61.1146C299.238 61.5306 299.277 61.848 299.357 62.0668C299.442 62.2857 299.575 62.4353 299.756 62.5156C299.937 62.596 300.177 62.6365 300.476 62.6371C300.684 62.6375 300.91 62.6299 301.156 62.6144C301.407 62.5936 301.631 62.5701 301.828 62.5438L301.899 62.9999C301.776 63.0477 301.624 63.0874 301.443 63.119C301.267 63.1507 301.083 63.1743 300.891 63.1899C300.704 63.2055 300.536 63.2132 300.387 63.2129C299.939 63.212 299.579 63.1446 299.307 63.0107C299.035 62.8715 298.836 62.6525 298.708 62.3535C298.586 62.0493 298.526 61.6492 298.527 61.1532C298.528 60.6412 298.59 60.2386 298.713 59.9455C298.842 59.6471 299.037 59.4369 299.298 59.3147C299.565 59.1872 299.907 59.1239 300.323 59.1248ZM303.548 59.2272L303.634 59.9714L303.698 60.0915L303.692 63.1235L303.012 63.1222L303.02 59.2262L303.548 59.2272ZM305.46 59.135L305.378 59.7749L305.154 59.7744C304.925 59.774 304.696 59.8215 304.466 59.9171C304.237 60.0073 303.956 60.1374 303.625 60.3074L303.57 59.8833C303.859 59.6492 304.147 59.4658 304.435 59.333C304.729 59.2002 305.012 59.1341 305.284 59.1347L305.46 59.135Z" fill="black"/>
<path d="M189.713 77.0575C190.049 77.0581 190.305 77.1493 190.48 77.331C190.661 77.5127 190.752 77.7795 190.751 78.1315L190.745 81.0515L190.073 81.0502L190.078 78.3222C190.074 78.0822 190.026 77.9087 189.936 77.8019C189.845 77.6897 189.691 77.6334 189.472 77.633C189.333 77.6327 189.2 77.6564 189.072 77.7042C188.949 77.7466 188.813 77.8157 188.663 77.9114C188.514 78.0071 188.332 78.132 188.119 78.2863L188.08 77.8062C188.363 77.5561 188.638 77.37 188.905 77.2478C189.172 77.1204 189.441 77.0569 189.713 77.0575ZM185.529 77.1451L185.575 77.8892L185.647 78.0093L185.641 81.0413L184.961 81.0399L184.969 77.144L185.529 77.1451ZM187.161 77.0523C187.492 77.053 187.745 77.1442 187.92 77.3259C188.096 77.5022 188.186 77.7691 188.191 78.1264L188.185 81.0464L187.529 81.0451L187.534 78.3171C187.535 78.0664 187.485 77.8903 187.384 77.7888C187.282 77.6819 187.131 77.6283 186.928 77.6279C186.795 77.6276 186.664 77.6487 186.536 77.6911C186.413 77.7335 186.274 77.8026 186.119 77.8983C185.97 77.994 185.786 78.1216 185.567 78.2812L185.52 77.8011C185.803 77.551 186.078 77.3648 186.345 77.2427C186.612 77.1152 186.884 77.0518 187.161 77.0523ZM193.577 77.0652C194.163 77.0664 194.587 77.1739 194.848 77.3877C195.114 77.6016 195.247 77.9192 195.246 78.3405C195.251 78.6872 195.178 78.9591 195.029 79.1561C194.879 79.3478 194.641 79.4433 194.316 79.4427L192.044 79.4381L192.045 78.9101L194.141 78.9143C194.317 78.9147 194.432 78.8562 194.485 78.739C194.539 78.6165 194.566 78.4832 194.566 78.3392C194.561 78.0885 194.487 77.9097 194.343 77.8027C194.2 77.6958 193.954 77.6419 193.608 77.6413C193.325 77.6407 193.101 77.6829 192.935 77.7679C192.775 77.8476 192.66 77.9914 192.591 78.1992C192.526 78.4018 192.494 78.687 192.493 79.055C192.492 79.471 192.531 79.7884 192.611 80.0073C192.696 80.2261 192.829 80.3757 193.01 80.4561C193.191 80.5364 193.431 80.5769 193.73 80.5775C193.938 80.5779 194.164 80.5704 194.41 80.5549C194.661 80.534 194.885 80.5105 195.082 80.4842L195.153 80.9404C195.03 80.9881 194.878 81.0278 194.697 81.0594C194.521 81.0911 194.337 81.1147 194.145 81.1303C193.958 81.146 193.79 81.1536 193.641 81.1533C193.193 81.1524 192.833 81.085 192.561 80.9512C192.289 80.812 192.09 80.5929 191.962 80.294C191.84 79.9897 191.78 79.5896 191.781 79.0936C191.782 78.5816 191.844 78.1791 191.967 77.886C192.096 77.5876 192.291 77.3773 192.552 77.2551C192.819 77.1277 193.161 77.0644 193.577 77.0652ZM197.57 77.0732C197.74 77.0735 197.922 77.0792 198.114 77.0903C198.306 77.1013 198.495 77.115 198.682 77.1314C198.874 77.1478 199.049 77.1695 199.209 77.1965L199.152 77.6924C198.907 77.6812 198.659 77.6727 198.408 77.6669C198.163 77.6557 197.918 77.6499 197.673 77.6494C197.433 77.6436 197.243 77.6485 197.104 77.6643C196.966 77.68 196.864 77.7224 196.8 77.7916C196.741 77.8609 196.712 77.9781 196.712 78.1435C196.711 78.3461 196.759 78.4796 196.855 78.5438C196.951 78.608 197.092 78.6616 197.278 78.7046L198.414 78.9629C198.723 79.0382 198.95 79.1533 199.093 79.3082C199.242 79.4632 199.316 79.706 199.316 80.0367C199.315 80.3567 199.253 80.5966 199.13 80.7563C199.013 80.9161 198.831 81.0224 198.586 81.0752C198.34 81.1281 198.028 81.1541 197.65 81.1534C197.511 81.1531 197.303 81.1473 197.026 81.1361C196.754 81.1249 196.452 81.0923 196.122 81.0383L196.171 80.5424C196.299 80.548 196.435 80.5563 196.579 80.5672C196.723 80.5728 196.872 80.5758 197.027 80.5761C197.187 80.5764 197.349 80.5768 197.515 80.5771C197.808 80.5777 198.037 80.5648 198.203 80.5385C198.368 80.5121 198.486 80.4617 198.555 80.3872C198.625 80.3073 198.659 80.19 198.66 80.0354C198.66 79.8434 198.604 79.7153 198.493 79.651C198.381 79.5868 198.231 79.5332 198.045 79.4901L196.925 79.2319C196.712 79.1781 196.542 79.1085 196.414 79.0229C196.286 78.932 196.193 78.8171 196.134 78.6783C196.076 78.5342 196.047 78.3555 196.048 78.1421C196.048 77.8381 196.102 77.6089 196.209 77.4545C196.316 77.3 196.481 77.1963 196.706 77.1435C196.93 77.0906 197.218 77.0671 197.57 77.0732ZM201.632 77.0813C201.803 77.0817 201.984 77.0874 202.176 77.0984C202.368 77.1095 202.557 77.1232 202.744 77.1395C202.936 77.1559 203.112 77.1776 203.272 77.2046L203.215 77.7005C202.97 77.6893 202.722 77.6808 202.471 77.675C202.226 77.6638 201.98 77.658 201.735 77.6575C201.495 77.6517 201.306 77.6567 201.167 77.6724C201.028 77.6881 200.927 77.7306 200.863 77.7998C200.804 77.869 200.774 77.9863 200.774 78.1516C200.774 78.3543 200.821 78.4877 200.917 78.5519C201.013 78.6161 201.154 78.6697 201.341 78.7127L202.476 78.971C202.786 79.0463 203.012 79.1614 203.156 79.3164C203.305 79.4713 203.379 79.7142 203.378 80.0448C203.378 80.3648 203.316 80.6047 203.193 80.7645C203.075 80.9242 202.894 81.0305 202.648 81.0834C202.403 81.1362 202.091 81.1622 201.712 81.1615C201.573 81.1612 201.365 81.1555 201.088 81.1442C200.816 81.133 200.515 81.1004 200.184 81.0464L200.233 80.5505C200.361 80.5561 200.497 80.5644 200.641 80.5753C200.785 80.581 200.934 80.5839 201.089 80.5842C201.249 80.5846 201.412 80.5849 201.577 80.5852C201.87 80.5858 202.1 80.5729 202.265 80.5466C202.431 80.5203 202.548 80.4698 202.618 80.3953C202.687 80.3154 202.722 80.1982 202.722 80.0435C202.723 79.8515 202.667 79.7234 202.555 79.6592C202.443 79.595 202.294 79.5413 202.107 79.4983L200.988 79.24C200.775 79.1863 200.604 79.1166 200.476 79.031C200.348 78.9401 200.255 78.8252 200.197 78.6865C200.139 78.5423 200.11 78.3636 200.11 78.1503C200.111 77.8463 200.164 77.6171 200.271 77.4626C200.378 77.3081 200.544 77.2045 200.768 77.1516C200.992 77.0987 201.28 77.0753 201.632 77.0813ZM206.239 77.0905C206.527 77.0911 206.769 77.1316 206.966 77.212C207.169 77.2871 207.321 77.4154 207.422 77.5969C207.523 77.7785 207.573 78.0266 207.572 78.3412L207.567 81.0852L207.031 81.0841L206.928 80.2359L206.881 80.1478L206.884 78.3398C206.885 78.0998 206.829 77.9291 206.717 77.8275C206.611 77.7206 206.403 77.6669 206.094 77.6663C205.891 77.6659 205.635 77.676 205.325 77.6967C205.021 77.7174 204.72 77.7408 204.421 77.7669L204.358 77.2628C204.54 77.2311 204.737 77.2022 204.95 77.176C205.169 77.1497 205.391 77.1288 205.615 77.1133C205.839 77.0977 206.047 77.0902 206.239 77.0905ZM207.251 78.6846L207.242 79.1966L205.378 79.2008C205.192 79.2058 205.061 79.2562 204.986 79.352C204.911 79.4426 204.874 79.5705 204.873 79.7358L204.873 79.9838C204.872 80.1865 204.92 80.3359 205.016 80.4321C205.112 80.523 205.266 80.5686 205.48 80.569C205.629 80.5693 205.797 80.543 205.984 80.49C206.176 80.4318 206.368 80.3441 206.56 80.2272C206.753 80.1102 206.929 79.9613 207.089 79.7803L207.088 80.2843C207.029 80.3588 206.944 80.4466 206.832 80.5477C206.725 80.6435 206.594 80.7393 206.439 80.835C206.29 80.9253 206.121 81.0023 205.935 81.0659C205.753 81.1242 205.556 81.1532 205.343 81.1528C205.113 81.1523 204.911 81.1119 204.735 81.0315C204.559 80.9459 204.421 80.8229 204.32 80.6627C204.224 80.4972 204.176 80.2971 204.177 80.0624L204.178 79.6384C204.178 79.3344 204.272 79.0999 204.459 78.935C204.651 78.7647 204.918 78.6799 205.259 78.6806L207.251 78.6846ZM210.333 77.0987C210.749 77.0996 211.077 77.1429 211.317 77.2287C211.562 77.3145 211.735 77.4482 211.836 77.6298C211.943 77.8113 211.995 78.0487 211.995 78.3421C211.994 78.6247 211.94 78.8593 211.833 79.0458C211.732 79.2269 211.558 79.3625 211.313 79.4527C211.067 79.5376 210.736 79.5796 210.32 79.5787C209.904 79.5779 209.574 79.5346 209.329 79.4487C209.089 79.3576 208.916 79.2212 208.809 79.0397C208.708 78.8582 208.658 78.6261 208.659 78.3434C208.659 78.0501 208.711 77.8128 208.812 77.6317C208.919 77.4452 209.096 77.3096 209.341 77.2248C209.587 77.1399 209.917 77.0979 210.333 77.0987ZM210.324 77.6187C209.935 77.6179 209.663 77.6734 209.508 77.7851C209.358 77.8915 209.283 78.0753 209.283 78.3366C209.282 78.5926 209.357 78.7768 209.506 78.8891C209.66 79.0014 209.932 79.0579 210.321 79.0587C210.716 79.0595 210.988 79.0041 211.138 78.8924C211.287 78.7807 211.362 78.5968 211.363 78.3408C211.363 78.0795 211.289 77.8953 211.14 77.7884C210.991 77.6761 210.719 77.6195 210.324 77.6187ZM212.453 77.199L212.412 77.5749L211.42 77.6529L211.141 77.1964L212.453 77.199ZM209.225 79.3205L209.617 79.3773C209.526 79.4571 209.464 79.5557 209.432 79.6729C209.4 79.7849 209.408 79.8889 209.456 79.985C209.509 80.0811 209.618 80.1427 209.783 80.1697L211.239 80.4046C211.607 80.4586 211.862 80.5738 212.006 80.7501C212.15 80.9264 212.221 81.1772 212.22 81.5025C212.22 81.8065 212.161 82.0464 212.043 82.2222C211.931 82.398 211.738 82.5229 211.466 82.597C211.194 82.6711 210.826 82.7077 210.362 82.7068C210.01 82.7061 209.714 82.6842 209.474 82.641C209.234 82.6032 209.04 82.5362 208.891 82.4399C208.747 82.3489 208.643 82.2287 208.579 82.0792C208.516 81.9298 208.484 81.7431 208.484 81.5191C208.485 81.3484 208.509 81.2044 208.557 81.0872C208.611 80.9753 208.691 80.8741 208.798 80.7837C208.91 80.6932 209.054 80.6055 209.23 80.5205L209.711 80.2575L210.023 80.3701L209.63 80.6653C209.523 80.7451 209.432 80.825 209.358 80.9048C209.288 80.9793 209.235 81.0592 209.197 81.1445C209.165 81.2351 209.149 81.3417 209.149 81.4644C209.148 81.6457 209.183 81.7845 209.252 81.8806C209.321 81.9767 209.443 82.041 209.619 82.0733C209.795 82.111 210.041 82.1302 210.355 82.1308C210.67 82.1314 210.913 82.1133 211.083 82.0763C211.259 82.0393 211.382 81.9729 211.452 81.877C211.521 81.7811 211.556 81.6452 211.557 81.4692C211.557 81.3359 211.538 81.2345 211.501 81.1651C211.469 81.0957 211.405 81.0422 211.309 81.0047C211.214 80.9672 211.072 80.9349 210.886 80.9079L209.486 80.7131C209.321 80.6914 209.188 80.6378 209.086 80.5523C208.991 80.4667 208.924 80.3653 208.887 80.2479C208.85 80.1304 208.839 80.0131 208.856 79.8958C208.872 79.7732 208.912 79.6612 208.976 79.56C209.041 79.4535 209.123 79.3737 209.225 79.3205ZM214.819 77.1077C215.406 77.1089 215.829 77.2164 216.09 77.4303C216.357 77.6441 216.489 77.9617 216.488 78.3831C216.493 78.7298 216.421 79.0016 216.271 79.1986C216.121 79.3903 215.884 79.4859 215.558 79.4852L213.286 79.4807L213.287 78.9527L215.383 78.9569C215.559 78.9572 215.674 78.8988 215.728 78.7816C215.781 78.659 215.808 78.5257 215.808 78.3817C215.804 78.131 215.729 77.9522 215.585 77.8453C215.442 77.7383 215.196 77.6845 214.85 77.6838C214.567 77.6832 214.343 77.7254 214.178 77.8104C214.017 77.8901 213.902 78.0339 213.833 78.2418C213.768 78.4443 213.736 78.7296 213.735 79.0976C213.734 79.5136 213.774 79.831 213.853 80.0498C213.938 80.2686 214.071 80.4182 214.252 80.4986C214.433 80.579 214.673 80.6194 214.972 80.62C215.18 80.6205 215.407 80.6129 215.652 80.5974C215.903 80.5766 216.127 80.553 216.324 80.5268L216.395 80.9829C216.272 81.0306 216.12 81.0703 215.939 81.102C215.763 81.1336 215.579 81.1573 215.387 81.1729C215.2 81.1885 215.032 81.1962 214.883 81.1959C214.435 81.195 214.075 81.1276 213.803 80.9937C213.531 80.8545 213.332 80.6354 213.204 80.3365C213.082 80.0323 213.022 79.6321 213.023 79.1361C213.024 78.6241 213.086 78.2216 213.209 77.9285C213.338 77.6301 213.533 77.4198 213.795 77.2977C214.062 77.1702 214.403 77.1069 214.819 77.1077ZM220.865 77.1198C220.988 77.1201 221.124 77.1257 221.273 77.1367C221.422 77.1476 221.577 77.1666 221.737 77.1936C221.897 77.2152 222.051 77.2449 222.201 77.2825C222.355 77.3148 222.497 77.3524 222.625 77.3954L222.072 77.8663C221.933 77.8233 221.792 77.7884 221.648 77.7614C221.504 77.7345 221.365 77.7155 221.232 77.7046C221.099 77.6936 220.973 77.6907 220.856 77.6958C220.6 77.7006 220.394 77.7482 220.24 77.8386C220.085 77.9236 219.972 78.0754 219.903 78.2939C219.838 78.5125 219.806 78.8217 219.805 79.2217C219.804 79.6964 219.862 80.0485 219.979 80.2781C220.096 80.5023 220.325 80.6148 220.666 80.6154C220.911 80.6159 221.133 80.5657 221.33 80.4648C221.533 80.3585 221.763 80.2176 222.019 80.0422L222.106 80.4903C221.941 80.6393 221.767 80.7697 221.586 80.8813C221.404 80.9876 221.217 81.0699 221.025 81.1282C220.838 81.1865 220.644 81.2154 220.441 81.215C219.988 81.2141 219.652 81.0507 219.434 80.725C219.216 80.3992 219.108 79.8817 219.109 79.1723C219.11 78.8363 219.137 78.5404 219.191 78.2845C219.25 78.0286 219.346 77.8155 219.48 77.6451C219.614 77.4693 219.793 77.339 220.017 77.2541C220.241 77.1639 220.524 77.1192 220.865 77.1198ZM221.945 77.37L222.625 77.3954L222.614 82.7234L221.934 82.722L221.929 81.386C221.929 81.2153 221.935 81.0633 221.945 80.93C221.956 80.7914 221.978 80.6501 222.01 80.5061L221.939 80.394L221.945 77.37ZM224.515 77.2231L224.51 79.9591C224.504 80.2045 224.549 80.3779 224.645 80.4794C224.741 80.5809 224.901 80.6319 225.125 80.6324C225.343 80.6328 225.559 80.5826 225.773 80.4817C225.992 80.3754 226.253 80.224 226.558 80.0272L226.645 80.4994C226.34 80.7388 226.044 80.9195 225.756 81.0416C225.473 81.1637 225.185 81.2245 224.891 81.2239C224.182 81.2225 223.828 80.8644 223.83 80.1498L223.835 77.2218L224.515 77.2231ZM227.171 77.2285L227.164 81.1245L226.62 81.1234L226.557 80.3872L226.485 80.2671L226.491 77.2271L227.171 77.2285ZM230.022 77.1382C230.609 77.1393 231.033 77.2469 231.293 77.4607C231.56 77.6746 231.692 77.9922 231.692 78.4135C231.696 78.7602 231.624 79.0321 231.474 79.2291C231.324 79.4208 231.087 79.5163 230.761 79.5157L228.489 79.5111L228.49 78.9831L230.586 78.9873C230.762 78.9877 230.877 78.9292 230.931 78.812C230.984 78.6894 231.011 78.5562 231.012 78.4122C231.007 78.1615 230.932 77.9827 230.789 77.8757C230.645 77.7688 230.4 77.7149 230.053 77.7142C229.77 77.7137 229.546 77.7559 229.381 77.8409C229.22 77.9206 229.106 78.0643 229.036 78.2722C228.971 78.4747 228.939 78.76 228.938 79.128C228.937 79.544 228.977 79.8614 229.056 80.0802C229.141 80.2991 229.274 80.4487 229.455 80.529C229.636 80.6094 229.876 80.6499 230.175 80.6505C230.383 80.6509 230.61 80.6434 230.855 80.6278C231.106 80.607 231.33 80.5835 231.527 80.5572L231.598 81.0133C231.476 81.0611 231.323 81.1008 231.142 81.1324C230.966 81.1641 230.782 81.1877 230.59 81.2033C230.403 81.2189 230.235 81.2266 230.086 81.2263C229.638 81.2254 229.278 81.158 229.006 81.0241C228.735 80.8849 228.535 80.6659 228.408 80.3669C228.286 80.0627 228.225 79.6626 228.226 79.1666C228.227 78.6546 228.289 78.252 228.412 77.959C228.541 77.6605 228.736 77.4503 228.998 77.3281C229.265 77.2007 229.606 77.1373 230.022 77.1382ZM233.375 77.2409L233.369 79.9769C233.363 80.2222 233.408 80.3956 233.504 80.4972C233.6 80.5987 233.76 80.6497 233.984 80.6501C234.203 80.6506 234.419 80.6003 234.632 80.4994C234.851 80.3932 235.113 80.2417 235.417 80.045L235.504 80.5172C235.2 80.7566 234.903 80.9373 234.615 81.0594C234.332 81.1815 234.044 81.2422 233.751 81.2416C233.041 81.2402 232.687 80.8822 232.689 80.1675L232.695 77.2395L233.375 77.2409ZM236.031 77.2462L236.023 81.1422L235.479 81.1411L235.416 80.405L235.345 80.2848L235.351 77.2448L236.031 77.2462ZM238.881 77.1559C239.468 77.1571 239.892 77.2646 240.153 77.4785C240.419 77.6923 240.552 78.0099 240.551 78.4313C240.556 78.7779 240.483 79.0498 240.333 79.2468C240.184 79.4385 239.946 79.5341 239.621 79.5334L237.349 79.5289L237.35 79.0009L239.446 79.005C239.622 79.0054 239.736 78.947 239.79 78.8297C239.844 78.7072 239.871 78.5739 239.871 78.4299C239.866 78.1792 239.792 78.0004 239.648 77.8935C239.504 77.7865 239.259 77.7327 238.912 77.732C238.63 77.7314 238.406 77.7736 238.24 77.8586C238.08 77.9383 237.965 78.0821 237.895 78.2899C237.831 78.4925 237.798 78.7778 237.797 79.1457C237.797 79.5617 237.836 79.8792 237.916 80.098C238 80.3168 238.133 80.4664 238.315 80.5468C238.496 80.6272 238.736 80.6676 239.034 80.6682C239.242 80.6686 239.469 80.6611 239.714 80.6456C239.965 80.6248 240.189 80.6012 240.387 80.5749L240.458 81.0311C240.335 81.0788 240.183 81.1185 240.001 81.1502C239.825 81.1818 239.641 81.2054 239.449 81.2211C239.263 81.2367 239.095 81.2444 238.945 81.2441C238.497 81.2432 238.137 81.1758 237.866 81.0419C237.594 80.9027 237.394 80.6836 237.267 80.3847C237.145 80.0804 237.084 79.6803 237.085 79.1843C237.086 78.6723 237.149 78.2698 237.272 77.9767C237.4 77.6783 237.595 77.468 237.857 77.3459C238.124 77.2184 238.465 77.1551 238.881 77.1559ZM179.663 84.7093L179.75 85.0375C179.216 85.2978 178.826 85.7183 178.579 86.2992C178.338 86.8747 178.217 87.6158 178.215 88.5225C178.214 89.1144 178.266 89.6399 178.372 90.0988C178.477 90.5576 178.642 90.9446 178.865 91.2598C179.089 91.5802 179.379 91.8341 179.736 92.0215L179.647 92.3493C178.922 92.0652 178.39 91.6161 178.05 91.0021C177.715 90.3828 177.549 89.5585 177.551 88.5291C177.553 87.4945 177.723 86.6681 178.06 86.0501C178.402 85.4322 178.937 84.9852 179.663 84.7093ZM181.721 85.2975C181.833 85.2977 181.979 85.3033 182.161 85.3143C182.342 85.32 182.499 85.3337 182.633 85.3553L182.631 85.8593L181.959 85.8579C181.703 85.8574 181.522 85.9131 181.415 86.0249C181.314 86.1313 181.263 86.3205 181.262 86.5925L181.253 91.0325L180.573 91.0312L180.582 86.5192C180.583 86.2579 180.62 86.0366 180.695 85.8554C180.771 85.6742 180.891 85.5358 181.056 85.4401C181.222 85.3445 181.443 85.2969 181.721 85.2975ZM183.253 87.1405L183.252 87.6765L179.876 87.6698L179.877 87.1738L180.621 87.1353L183.253 87.1405ZM183.845 87.1417L183.837 91.0377L183.165 91.0364L183.173 87.1404L183.845 87.1417ZM183.664 85.4854C183.803 85.4856 183.872 85.5551 183.872 85.6938L183.871 86.1498C183.871 86.2884 183.801 86.3576 183.662 86.3574L183.342 86.3567C183.209 86.3564 183.143 86.287 183.143 86.1483L183.144 85.6923C183.144 85.5536 183.211 85.4844 183.344 85.4847L183.664 85.4854ZM185.82 85.4417L185.803 89.9696C185.802 90.1403 185.848 90.2711 185.938 90.3619C186.034 90.4474 186.167 90.4904 186.338 90.4907L186.714 90.4915L186.793 91.0116C186.745 91.0329 186.675 91.0514 186.585 91.0672C186.499 91.083 186.409 91.0935 186.313 91.0987C186.222 91.1092 186.145 91.1143 186.081 91.1142C185.793 91.1136 185.561 91.0278 185.385 90.8568C185.215 90.6858 185.13 90.4403 185.131 90.1203L185.14 85.4403L185.82 85.4417ZM189.344 87.0567C189.632 87.0573 189.874 87.0978 190.071 87.1782C190.274 87.2533 190.426 87.3816 190.527 87.5631C190.628 87.7446 190.678 87.9927 190.677 88.3074L190.672 91.0514L190.136 91.0503L190.033 90.2021L189.986 90.114L189.989 88.306C189.99 88.066 189.934 87.8953 189.822 87.7937C189.716 87.6868 189.508 87.6331 189.199 87.6324C188.996 87.632 188.74 87.6422 188.43 87.6629C188.126 87.6836 187.825 87.707 187.526 87.7331L187.463 87.229C187.645 87.1973 187.842 87.1684 188.055 87.1422C188.274 87.1159 188.496 87.095 188.72 87.0795C188.944 87.0639 189.152 87.0563 189.344 87.0567ZM190.356 88.6508L190.347 89.1627L188.483 89.167C188.297 89.172 188.166 89.2224 188.091 89.3182C188.016 89.4087 187.979 89.5367 187.978 89.702L187.978 89.95C187.977 90.1527 188.025 90.3021 188.121 90.3983C188.217 90.4892 188.371 90.5348 188.585 90.5352C188.734 90.5355 188.902 90.5092 189.089 90.4562C189.281 90.3979 189.473 90.3103 189.665 90.1934C189.858 90.0764 190.034 89.9275 190.194 89.7464L190.193 90.2504C190.134 90.325 190.049 90.4128 189.937 90.5139C189.83 90.6097 189.699 90.7055 189.544 90.8011C189.395 90.8915 189.227 90.9685 189.04 91.0321C188.858 91.0904 188.661 91.1194 188.448 91.1189C188.218 91.1185 188.016 91.0781 187.84 90.9977C187.664 90.912 187.526 90.7891 187.425 90.6289C187.329 90.4634 187.281 90.2633 187.282 90.0286L187.283 89.6046C187.283 89.3006 187.377 89.0661 187.564 88.9012C187.756 88.7309 188.023 88.6461 188.364 88.6468L190.356 88.6508ZM194.972 87.068C195.228 87.0685 195.481 87.1037 195.731 87.1735C195.982 87.238 196.222 87.3398 196.451 87.479L196.41 87.9029C196.159 87.8277 195.938 87.7686 195.746 87.7256C195.554 87.6825 195.349 87.6608 195.13 87.6603C194.906 87.6599 194.725 87.6995 194.586 87.7792C194.453 87.8536 194.354 87.9948 194.289 88.2026C194.225 88.4105 194.192 88.7064 194.191 89.0904C194.191 89.4744 194.219 89.7732 194.278 89.9866C194.341 90.2001 194.44 90.3496 194.573 90.4352C194.706 90.5208 194.877 90.5638 195.085 90.5642C195.239 90.5645 195.378 90.5462 195.501 90.5091C195.629 90.4667 195.762 90.4003 195.901 90.3099C196.045 90.2195 196.213 90.1052 196.406 89.9669L196.469 90.447C196.255 90.6439 196.012 90.8114 195.74 90.9496C195.467 91.0877 195.174 91.1564 194.859 91.1558C194.369 91.1548 194.017 90.9808 193.804 90.6337C193.597 90.2866 193.494 89.7744 193.495 89.0971C193.496 88.5904 193.551 88.1905 193.658 87.8974C193.765 87.5989 193.928 87.3859 194.147 87.2584C194.366 87.1308 194.641 87.0673 194.972 87.068ZM197.007 85.4641L196.996 91.0641L196.468 91.063L196.389 90.3828L196.317 90.3267L196.322 87.6547L196.371 87.5348C196.35 87.3854 196.337 87.2414 196.331 87.1027C196.326 86.9641 196.324 86.8174 196.324 86.6627L196.327 85.4627L197.007 85.4641ZM199.861 87.0778C200.448 87.079 200.872 87.1865 201.133 87.4003C201.399 87.6142 201.532 87.9318 201.531 88.3531C201.536 88.6998 201.463 88.9717 201.313 89.1687C201.164 89.3604 200.926 89.4559 200.601 89.4553L198.329 89.4507L198.33 88.9227L200.426 88.9269C200.602 88.9273 200.717 88.8688 200.77 88.7516C200.824 88.6291 200.851 88.4958 200.851 88.3518C200.846 88.1011 200.772 87.9223 200.628 87.8153C200.484 87.7084 200.239 87.6546 199.892 87.6539C199.61 87.6533 199.386 87.6955 199.22 87.7805C199.06 87.8602 198.945 88.004 198.875 88.2118C198.811 88.4144 198.778 88.6996 198.777 89.0676C198.777 89.4836 198.816 89.801 198.896 90.0199C198.98 90.2387 199.113 90.3883 199.295 90.4687C199.476 90.549 199.716 90.5895 200.014 90.5901C200.222 90.5905 200.449 90.583 200.694 90.5675C200.945 90.5466 201.169 90.5231 201.367 90.4968L201.438 90.953C201.315 91.0007 201.163 91.0404 200.981 91.072C200.805 91.1037 200.621 91.1273 200.429 91.1429C200.243 91.1586 200.075 91.1662 199.925 91.1659C199.477 91.165 199.117 91.0976 198.846 90.9638C198.574 90.8246 198.374 90.6055 198.247 90.3066C198.125 90.0023 198.064 89.6022 198.065 89.1062C198.066 88.5942 198.129 88.1917 198.252 87.8986C198.38 87.6002 198.576 87.3899 198.837 87.2677C199.104 87.1403 199.445 87.077 199.861 87.0778ZM209.084 87.0963C209.42 87.0969 209.675 87.1881 209.851 87.3698C210.032 87.5515 210.122 87.8183 210.121 88.1703L210.116 91.0903L209.444 91.089L209.449 88.361C209.444 88.121 209.397 87.9476 209.306 87.8407C209.216 87.7285 209.061 87.6722 208.842 87.6718C208.704 87.6715 208.57 87.6952 208.442 87.743C208.32 87.7854 208.183 87.8545 208.034 87.9502C207.884 88.0459 207.703 88.1708 207.489 88.3251L207.45 87.845C207.733 87.5949 208.008 87.4088 208.275 87.2866C208.542 87.1592 208.812 87.0957 209.084 87.0963ZM204.899 87.1839L204.946 87.928L205.018 88.0481L205.012 91.0801L204.332 91.0788L204.339 87.1828L204.899 87.1839ZM206.532 87.0912C206.862 87.0918 207.115 87.183 207.291 87.3647C207.467 87.541 207.557 87.8079 207.561 88.1652L207.556 91.0852L206.9 91.0839L206.905 88.3559C206.906 88.1052 206.855 87.9291 206.754 87.8276C206.653 87.7207 206.501 87.6671 206.298 87.6667C206.165 87.6664 206.034 87.6875 205.906 87.7299C205.784 87.7723 205.645 87.8414 205.49 87.9371C205.34 88.0328 205.156 88.1604 204.937 88.32L204.89 87.8399C205.173 87.5898 205.448 87.4037 205.715 87.2815C205.982 87.1541 206.254 87.0906 206.532 87.0912ZM212.947 87.104C213.534 87.1052 213.958 87.2127 214.219 87.4265C214.485 87.6404 214.618 87.958 214.617 88.3793C214.621 88.726 214.549 88.9979 214.399 89.1949C214.249 89.3866 214.012 89.4821 213.687 89.4815L211.415 89.4769L211.416 88.9489L213.512 88.9531C213.688 88.9535 213.802 88.8951 213.856 88.7778C213.91 88.6553 213.937 88.522 213.937 88.378C213.932 88.1273 213.858 87.9485 213.714 87.8415C213.57 87.7346 213.325 87.6808 212.978 87.6801C212.696 87.6795 212.471 87.7217 212.306 87.8067C212.146 87.8864 212.031 88.0302 211.961 88.238C211.897 88.4406 211.864 88.7258 211.863 89.0938C211.863 89.5098 211.902 89.8272 211.981 90.0461C212.066 90.2649 212.199 90.4145 212.381 90.4949C212.562 90.5752 212.802 90.6157 213.1 90.6163C213.308 90.6167 213.535 90.6092 213.78 90.5937C214.031 90.5728 214.255 90.5493 214.453 90.523L214.524 90.9792C214.401 91.0269 214.249 91.0666 214.067 91.0983C213.891 91.1299 213.707 91.1535 213.515 91.1691C213.329 91.1848 213.161 91.1924 213.011 91.1921C212.563 91.1912 212.203 91.1239 211.932 90.99C211.66 90.8508 211.46 90.6317 211.333 90.3328C211.211 90.0285 211.15 89.6284 211.151 89.1324C211.152 88.6204 211.214 88.2179 211.338 87.9248C211.466 87.6264 211.661 87.4161 211.923 87.294C212.19 87.1665 212.531 87.1032 212.947 87.104ZM218.012 87.1141C218.716 87.1156 219.068 87.4736 219.066 88.1883L219.06 91.1083L218.38 91.1069L218.386 88.3789C218.386 88.1176 218.344 87.9388 218.259 87.8426C218.174 87.7411 218.03 87.6902 217.827 87.6898C217.587 87.6893 217.347 87.7475 217.107 87.8643C216.867 87.9812 216.581 88.1406 216.25 88.3426L216.219 87.8546C216.523 87.6205 216.825 87.4398 217.124 87.3124C217.423 87.1796 217.719 87.1136 218.012 87.1141ZM216.22 87.2066L216.275 87.9507L216.322 88.0708L216.316 91.1028L215.636 91.1014L215.644 87.2054L216.22 87.2066ZM221.589 87.1213C221.759 87.1216 221.941 87.1273 222.133 87.1384C222.325 87.1494 222.514 87.1632 222.701 87.1795C222.893 87.1959 223.068 87.2176 223.228 87.2446L223.171 87.7405C222.926 87.7293 222.678 87.7208 222.427 87.715C222.182 87.7038 221.937 87.698 221.692 87.6975C221.452 87.6917 221.262 87.6967 221.123 87.7124C220.985 87.7281 220.883 87.7706 220.819 87.8398C220.76 87.909 220.731 88.0263 220.731 88.1916C220.73 88.3943 220.778 88.5277 220.874 88.5919C220.97 88.6561 221.111 88.7097 221.297 88.7527L222.433 89.011C222.742 89.0863 222.969 89.2014 223.112 89.3564C223.261 89.5113 223.335 89.7541 223.335 90.0848C223.334 90.4048 223.272 90.6447 223.149 90.8044C223.032 90.9642 222.85 91.0705 222.605 91.1233C222.359 91.1762 222.047 91.2022 221.669 91.2015C221.53 91.2012 221.322 91.1954 221.045 91.1842C220.773 91.173 220.471 91.1404 220.141 91.0864L220.19 90.5905C220.318 90.5961 220.454 90.6044 220.598 90.6153C220.742 90.621 220.891 90.6239 221.046 90.6242C221.206 90.6245 221.368 90.6249 221.534 90.6252C221.827 90.6258 222.056 90.6129 222.222 90.5866C222.387 90.5602 222.505 90.5098 222.574 90.4353C222.644 90.3554 222.678 90.2382 222.679 90.0835C222.679 89.8915 222.623 89.7634 222.512 89.6992C222.4 89.6349 222.25 89.5813 222.064 89.5383L220.944 89.28C220.731 89.2263 220.561 89.1566 220.433 89.071C220.305 88.9801 220.212 88.8652 220.153 88.7264C220.095 88.5823 220.066 88.4036 220.067 88.1903C220.067 87.8863 220.121 87.657 220.228 87.5026C220.335 87.3481 220.5 87.2445 220.725 87.1916C220.949 87.1387 221.237 87.1153 221.589 87.1213ZM226.195 87.1305C226.483 87.1311 226.726 87.1716 226.923 87.252C227.125 87.3271 227.277 87.4554 227.378 87.6369C227.479 87.8184 227.529 88.0665 227.529 88.3812L227.523 91.1252L226.987 91.1241L226.885 90.2759L226.837 90.1878L226.841 88.3798C226.841 88.1398 226.785 87.969 226.674 87.8675C226.567 87.7606 226.359 87.7069 226.05 87.7062C225.847 87.7058 225.591 87.716 225.282 87.7367C224.978 87.7574 224.677 87.7808 224.378 87.8069L224.315 87.3028C224.496 87.2711 224.694 87.2422 224.907 87.216C225.126 87.1897 225.347 87.1688 225.571 87.1533C225.795 87.1377 226.003 87.1301 226.195 87.1305ZM227.208 88.7246L227.199 89.2365L225.335 89.2408C225.148 89.2458 225.017 89.2962 224.943 89.392C224.868 89.4825 224.83 89.6105 224.83 89.7758L224.829 90.0238C224.829 90.2265 224.877 90.3759 224.972 90.4721C225.068 90.5629 225.223 90.6086 225.436 90.609C225.586 90.6093 225.754 90.583 225.94 90.53C226.132 90.4717 226.325 90.3841 226.517 90.2672C226.709 90.1502 226.885 90.0013 227.046 89.8202L227.045 90.3242C226.986 90.3988 226.9 90.4866 226.788 90.5877C226.681 90.6835 226.551 90.7793 226.396 90.8749C226.246 90.9653 226.078 91.0423 225.891 91.1059C225.71 91.1642 225.512 91.1932 225.299 91.1927C225.07 91.1923 224.867 91.1519 224.691 91.0715C224.515 90.9858 224.377 90.8629 224.276 90.7027C224.18 90.5372 224.133 90.3371 224.133 90.1024L224.134 89.6784C224.135 89.3744 224.228 89.1399 224.415 88.975C224.608 88.8047 224.875 88.7199 225.216 88.7206L227.208 88.7246ZM230.29 87.1387C230.706 87.1396 231.034 87.1829 231.274 87.2687C231.519 87.3545 231.692 87.4882 231.793 87.6697C231.899 87.8513 231.952 88.0887 231.951 88.3821C231.951 88.6647 231.897 88.8993 231.79 89.0857C231.688 89.2669 231.515 89.4025 231.269 89.4927C231.024 89.5775 230.693 89.6195 230.277 89.6187C229.861 89.6179 229.53 89.5745 229.285 89.4887C229.045 89.3976 228.872 89.2612 228.766 89.0797C228.665 88.8981 228.615 88.666 228.615 88.3834C228.616 88.09 228.667 87.8528 228.769 87.6717C228.876 87.4852 229.052 87.3496 229.298 87.2647C229.543 87.1799 229.874 87.1379 230.29 87.1387ZM230.281 87.6587C229.891 87.6579 229.619 87.7134 229.464 87.8251C229.315 87.9314 229.24 88.1153 229.239 88.3766C229.239 88.6326 229.313 88.8168 229.462 88.9291C229.617 89.0414 229.889 89.0979 230.278 89.0987C230.673 89.0995 230.945 89.044 231.094 88.9323C231.244 88.8206 231.319 88.6368 231.319 88.3808C231.32 88.1195 231.246 87.9353 231.096 87.8283C230.947 87.716 230.675 87.6595 230.281 87.6587ZM232.41 87.239L232.369 87.6149L231.377 87.6929L231.098 87.2363L232.41 87.239ZM229.181 89.3605L229.573 89.4173C229.482 89.4971 229.421 89.5957 229.389 89.7129C229.356 89.8249 229.364 89.9289 229.412 90.025C229.465 90.1211 229.574 90.1826 229.74 90.2096L231.195 90.4446C231.563 90.4986 231.819 90.6138 231.962 90.7901C232.106 90.9664 232.178 91.2172 232.177 91.5425C232.176 91.8465 232.117 92.0864 232 92.2622C231.887 92.4379 231.695 92.5629 231.423 92.637C231.151 92.7111 230.783 92.7477 230.319 92.7468C229.967 92.7461 229.671 92.7242 229.431 92.681C229.191 92.6432 228.996 92.5762 228.847 92.4799C228.703 92.3889 228.6 92.2687 228.536 92.1192C228.472 91.9698 228.44 91.783 228.441 91.559C228.441 91.3884 228.466 91.2444 228.514 91.1272C228.567 91.0153 228.648 90.9141 228.754 90.8237C228.867 90.7332 229.011 90.6455 229.187 90.5605L229.667 90.2975L229.979 90.4101L229.587 90.7053C229.48 90.7851 229.389 90.8649 229.314 90.9448C229.245 91.0193 229.191 91.0992 229.154 91.1845C229.121 91.2751 229.105 91.3817 229.105 91.5044C229.105 91.6857 229.139 91.8244 229.208 91.9206C229.277 92.0167 229.4 92.081 229.576 92.1133C229.752 92.151 229.997 92.1702 230.312 92.1708C230.626 92.1714 230.869 92.1532 231.04 92.1162C231.216 92.0793 231.339 92.0128 231.408 91.917C231.478 91.8211 231.513 91.6852 231.513 91.5092C231.513 91.3759 231.495 91.2745 231.458 91.2051C231.426 91.1357 231.362 91.0822 231.266 91.0447C231.17 91.0072 231.029 90.9749 230.842 90.9478L229.443 90.753C229.277 90.7314 229.144 90.6778 229.043 90.5922C228.947 90.5067 228.881 90.4052 228.843 90.2878C228.806 90.1704 228.796 90.0531 228.812 89.9358C228.828 89.8131 228.869 89.7012 228.933 89.6C228.997 89.4935 229.08 89.4136 229.181 89.3605ZM234.775 87.1477C235.362 87.1489 235.786 87.2564 236.047 87.4703C236.313 87.6841 236.446 88.0017 236.445 88.4231C236.45 88.7697 236.377 89.0416 236.227 89.2386C236.078 89.4303 235.84 89.5259 235.515 89.5252L233.243 89.5206L233.244 88.9927L235.34 88.9968C235.516 88.9972 235.631 88.9388 235.684 88.8215C235.738 88.699 235.765 88.5657 235.765 88.4217C235.76 88.171 235.686 87.9922 235.542 87.8853C235.398 87.7783 235.153 87.7245 234.806 87.7238C234.524 87.7232 234.3 87.7654 234.134 87.8504C233.974 87.9301 233.859 88.0739 233.789 88.2817C233.725 88.4843 233.692 88.7695 233.691 89.1375C233.691 89.5535 233.73 89.871 233.81 90.0898C233.894 90.3086 234.027 90.4582 234.209 90.5386C234.39 90.6189 234.63 90.6594 234.928 90.66C235.136 90.6604 235.363 90.6529 235.608 90.6374C235.859 90.6166 236.083 90.593 236.281 90.5667L236.352 91.0229C236.229 91.0706 236.077 91.1103 235.895 91.142C235.719 91.1736 235.535 91.1972 235.343 91.2129C235.157 91.2285 234.989 91.2361 234.839 91.2359C234.391 91.235 234.031 91.1676 233.76 91.0337C233.488 90.8945 233.288 90.6754 233.161 90.3765C233.039 90.0722 232.978 89.6721 232.979 89.1761C232.98 88.6641 233.043 88.2616 233.166 87.9685C233.294 87.6701 233.49 87.4598 233.751 87.3377C234.018 87.2102 234.359 87.1469 234.775 87.1477ZM242.216 87.1626C242.552 87.1633 242.808 87.2545 242.984 87.4362C243.165 87.6178 243.255 87.8847 243.254 88.2367L243.248 91.1567L242.576 91.1553L242.582 88.4273C242.577 88.1873 242.529 88.0139 242.439 87.9071C242.348 87.7949 242.194 87.7386 241.975 87.7381C241.837 87.7379 241.703 87.7616 241.575 87.8093C241.452 87.8518 241.316 87.9208 241.167 88.0165C241.017 88.1122 240.836 88.2372 240.622 88.3914L240.583 87.9113C240.866 87.6612 241.141 87.4751 241.408 87.353C241.675 87.2255 241.944 87.1621 242.216 87.1626ZM238.032 87.2502L238.079 87.9943L238.15 88.1145L238.144 91.1465L237.464 91.1451L237.472 87.2491L238.032 87.2502ZM239.664 87.1575C239.995 87.1582 240.248 87.2493 240.424 87.431C240.599 87.6074 240.69 87.8742 240.694 88.2316L240.688 91.1516L240.032 91.1502L240.038 88.4223C240.038 88.1716 239.988 87.9955 239.887 87.894C239.786 87.7871 239.634 87.7334 239.431 87.733C239.298 87.7328 239.167 87.7538 239.039 87.7963C238.916 87.8387 238.777 87.9077 238.623 88.0034C238.473 88.0991 238.289 88.2268 238.07 88.3863L238.023 87.9062C238.306 87.6561 238.581 87.47 238.848 87.3479C239.115 87.2204 239.387 87.1569 239.664 87.1575ZM243.822 84.8378C244.552 85.1166 245.084 85.5657 245.419 86.185C245.759 86.8044 245.928 87.6314 245.926 88.666C245.924 89.6954 245.752 90.519 245.409 91.137C245.072 91.7497 244.538 92.1966 243.806 92.4778L243.727 92.1497C244.085 91.9637 244.373 91.7109 244.593 91.3914C244.817 91.0772 244.983 90.6908 245.091 90.2324C245.199 89.7739 245.253 89.2487 245.254 88.6567C245.256 87.75 245.137 87.0085 244.899 86.432C244.66 85.8502 244.274 85.4281 243.741 85.1657L243.822 84.8378Z" fill="black"/>
</svg>
